<svg xmlns="http://www.w3.org/2000/svg" xmlns:xlink="http://www.w3.org/1999/xlink" height="370" width="592">
  <defs>
    <path d="M336-17h92m-6-6l6 6-6 6" id="d" fill="none" stroke-linejoin="round"/>
    <path d="M63.854 100.814L179.293 5.372l3.853-3.186M175 1l8.146 1.186L182 10" id="c" fill="none" stroke-linejoin="round"/>
    <path d="M373-178.049l87-.853 5-.049M459-185l6 6.049-6 5.951" id="b" fill="none" stroke-linejoin="round"/>
    <path d="M-128.146 107.186l115.439 95.442 3.853 3.186M-10 198l1.146 7.814L-17 207" id="a" fill="none" stroke-linejoin="round"/>
  </defs>
  <path fill="none" d="M0 0h592v370H0z"/>
  <path d="M458 57.667v66.666c0 8.334 25 16.667 50 16.667s50-8.333 50-16.667V57.667C558 49.333 533 41 508 41s-50 8.333-50 16.667z" fill="#fff"/>
  <path d="M458 57.667v66.666c0 8.334 25 16.667 50 16.667s50-8.333 50-16.667V57.667c0 8.333-25 16.666-50 16.666S458 66 458 57.667C458 49.333 483 41 508 41s50 8.333 50 16.667" fill="none" stroke="#000" stroke-width="2" stroke-linejoin="round"/>
  <text y="113" x="466" style="text-decoration-line:none" font-weight="400" font-size="16" font-family="serif">
    <tspan y="113" x="472.898">database A</tspan>
  </text>
  <path d="M458 266.667v66.666c0 8.334 25 16.667 50 16.667s50-8.333 50-16.667v-66.666c0-8.334-25-16.667-50-16.667s-50 8.333-50 16.667z" fill="#fff"/>
  <path d="M458 266.667v66.666c0 8.334 25 16.667 50 16.667s50-8.333 50-16.667v-66.666c0 8.333-25 16.666-50 16.666s-50-8.333-50-16.666c0-8.334 25-16.667 50-16.667s50 8.333 50 16.667" fill="none" stroke="#000" stroke-width="2" stroke-linejoin="round"/>
  <text y="322" x="466" style="text-decoration-line:none" font-weight="400" font-size="16" font-family="serif">
    <tspan y="322" x="473.125">database B</tspan>
  </text>
  <path fill="#fff" stroke="#000" stroke-width="2" stroke-linejoin="round" d="M53 156h100v80H53z"/>
  <path fill="#fff" d="M67 123h73v25H67z"/>
  <text y="141" x="75" style="text-decoration-line:none" font-weight="400" font-size="16" font-family="serif">
    <tspan x="83.766" y="141">Client</tspan>
  </text>
  <path fill="#fff" d="M67 164h73v25H67z"/>
  <text y="182" x="75" style="text-decoration-line:none" font-style="italic" font-weight="400" font-size="16" font-family="serif">
    <tspan x="85.727" y="182">begin</tspan>
  </text>
  <path fill="#fff" d="M67 205h73v25H67z"/>
  <text y="223" x="75" style="text-decoration-line:none" font-style="italic" font-weight="400" font-size="16" font-family="serif">
    <tspan x="79.367" y="223">commit</tspan>
  </text>
  <path fill="#fff" stroke="#000" stroke-width="2" stroke-linejoin="round" d="M228 248h180v99H228z"/>
  <path d="M292.667 281h50.666c6.334 0 12.667 10 12.667 20s-6.333 20-12.667 20h-50.666C286.333 321 280 311 280 301s6.333-20 12.667-20" fill="#fff" stroke="#000" stroke-width="2" stroke-linejoin="round"/>
  <text y="307" x="289" style="text-decoration-line:none" font-weight="400" font-size="16" font-family="serif">
    <tspan x="312.594" y="307">Y</tspan>
  </text>
  <path fill="#fff" d="M228 218h175v25H228z"/>
  <text y="236" x="236" style="text-decoration-line:none" font-weight="400" font-size="16" font-family="serif">
    <tspan x="240.766" y="236">Enterprise Bean Server</tspan>
  </text>
  <use transform="translate(285 92)" height="100%" width="100%" xlink:href="#a" stroke="red" stroke-width="10" stroke-opacity="0"/>
  <use transform="translate(285 92)" height="100%" width="100%" xlink:href="#a" stroke="#000" stroke-width="2"/>
  <text style="text-decoration-line:none" font-weight="400" font-size="16" font-family="serif">
    <textPath alignment-baseline="middle" startOffset="50%" xlink:href="#a" text-anchor="middle"> </textPath>
  </text>
  <use transform="translate(-12 479)" height="100%" width="100%" xlink:href="#b" stroke="red" stroke-width="10" stroke-opacity="0"/>
  <use transform="translate(-12 479)" height="100%" width="100%" xlink:href="#b" stroke="#000" stroke-width="2"/>
  <text style="text-decoration-line:none" font-weight="400" font-size="16" font-family="serif">
    <textPath alignment-baseline="middle" startOffset="50%" xlink:href="#b" text-anchor="middle"> </textPath>
  </text>
  <path fill="#fff" stroke="#000" stroke-width="2" stroke-linejoin="round" d="M228 41h180v100H228z"/>
  <path d="M292.667 71h50.666C349.667 71 356 81 356 91s-6.333 20-12.667 20h-50.666C286.333 111 280 101 280 91s6.333-20 12.667-20" fill="#fff" stroke="#000" stroke-width="2" stroke-linejoin="round"/>
  <text y="97" x="289" style="text-decoration-line:none" font-weight="400" font-size="16" font-family="serif">
    <tspan x="312.594" y="97">X</tspan>
  </text>
  <path fill="#fff" d="M228 12h175v25H228z"/>
  <text y="30" x="236" style="text-decoration-line:none" font-weight="400" font-size="16" font-family="serif">
    <tspan x="240.766" y="30">Enterprise Bean Server</tspan>
  </text>
  <use transform="translate(93 92)" height="100%" width="100%" xlink:href="#c" stroke="red" stroke-width="10" stroke-opacity="0"/>
  <use transform="translate(93 92)" height="100%" width="100%" xlink:href="#c" stroke="#000" stroke-width="2"/>
  <text style="text-decoration-line:none" font-weight="400" font-size="16" font-family="serif">
    <textPath alignment-baseline="middle" startOffset="50%" xlink:href="#c" text-anchor="middle"> </textPath>
  </text>
  <use transform="translate(25 108)" height="100%" width="100%" xlink:href="#d" stroke="red" stroke-width="10" stroke-opacity="0"/>
  <use transform="translate(25 108)" height="100%" width="100%" xlink:href="#d" stroke="#000" stroke-width="2"/>
  <text style="text-decoration-line:none" font-weight="400" font-size="16" font-family="serif">
    <textPath alignment-baseline="middle" startOffset="50%" xlink:href="#d" text-anchor="middle"> </textPath>
  </text>
</svg>
