<svg xmlns="http://www.w3.org/2000/svg" height="371" width="694">
  <rect ry="31.25" rx="31.25" height="350" width="250" fill="#ccc" stroke="#000" stroke-width="2" transform="translate(315 10)"/>
  <rect ry="21.875" rx="21.875" height="250" width="175" fill="#ccc" stroke="#000" stroke-width="2" transform="translate(353 50)"/>
  <text transform="translate(368 36)">
    <tspan y="0" x="0">Container</tspan>
  </text>
  <text transform="translate(80 194)">
    <tspan y="0" x="0">Client</tspan>
  </text>
  <path d="M130 188h90m-6-6l6 6-6 6" fill="none" stroke="#000" stroke-width="2"/>
  <ellipse ry="35" rx="87.5" cy="35" cx="87.5" fill="#fff" stroke="#000" stroke-width="2" transform="translate(225 153)"/>
  <text transform="translate(275 185)">
    <tspan y="0" x="0">destination</tspan> <tspan y="17.609" x="0">or endpoint</tspan>
  </text>
  <text transform="translate(376 258)">
    <tspan y="0" x="0">Message-driven</tspan> <tspan y="17.609" x="0">bean</tspan>
  </text>
  <ellipse ry="21.5" rx="48.5" cy="21.5" cx="48.5" fill="#ccc" stroke="#000" stroke-width="2" transform="translate(414 154)"/>
  <ellipse ry="21.5" rx="48.5" cy="21.5" cx="48.5" fill="#ccc" stroke="#000" stroke-width="2" transform="translate(404 140)"/>
  <ellipse ry="21.5" rx="48.5" cy="21.5" cx="48.5" fill="#ccc" stroke="#000" stroke-width="2" transform="translate(394 122)"/>
  <path d="M464 140l109.303-27.556L583 110" fill="none" stroke="#000" stroke-width="2"/>
  <text transform="translate(593 98)">
    <tspan y="0" x="0">Message-</tspan><tspan y="17.609" x="0">driven bean</tspan> <tspan y="35.219" x="0">instances</tspan>
  </text>
</svg>
