<svg xmlns="http://www.w3.org/2000/svg" xmlns:xlink="http://www.w3.org/1999/xlink" width="900" height="1120">
  <defs>
    <path id="A" fill="none" stroke-linejoin="round" d="M159 288v997"/>
    <path id="z" fill="none" stroke-linejoin="round" d="M159 275v997"/>
    <path id="y" fill="none" stroke-linejoin="round" d="M159 276v997"/>
    <path id="x" fill="none" stroke-linejoin="round" d="M159 303v997"/>
    <path id="w" fill="none" stroke-linejoin="round" d="M50 266v998"/>
    <path id="v" fill="none" stroke-linejoin="round" d="M50-39l-.99 992-.01 10"/>
    <path id="u" fill="none" stroke-linejoin="round" d="M-165 8l429-1.954L274 6m-6-6l6 6-6 6"/>
    <path id="t" fill="none" stroke-linejoin="round" d="M3 6l132 .93L145 7m-6-6l6 6-6 6"/>
    <path id="s" fill="none" stroke-linejoin="round" d="M3 6l132 .93L145 7m-6-6l6 6-6 6"/>
    <path id="r" fill="none" stroke-linejoin="round" d="M3 6l132 .93L145 7m-6-6l6 6-6 6"/>
    <path id="q" fill="none" stroke-linejoin="round" d="M3 6l132 .93L145 7m-6-6l6 6-6 6"/>
    <path id="p" fill="none" stroke-linejoin="round" d="M3 6l132 .93L145 7m-6-6l6 6-6 6"/>
    <path id="o" fill="none" stroke-linejoin="round" d="M3 6l132 .93L145 7m-6-6l6 6-6 6"/>
    <path id="n" fill="none" stroke-linejoin="round" d="M3 6l132 .93L145 7m-6-6l6 6-6 6"/>
    <path id="m" fill="none" stroke-linejoin="round" d="M3 6l132 .93L145 7m-6-6l6 6-6 6"/>
    <path id="l" fill="none" stroke-linejoin="round" d="M9 12L3 6l6-6M3 6h438"/>
    <path id="k" fill="none" stroke-linejoin="round" d="M12 12L6 6l6-6M6 6h136"/>
    <path id="j" fill="none" stroke-linejoin="round" d="M12 12L6 6l6-6M6 6h136"/>
    <path id="i" fill="none" stroke-linejoin="round" d="M12 12L6 6l6-6M6 6h136"/>
    <path id="h" fill="none" stroke-linejoin="round" d="M-2 6h140m-6-6l6 6-6 6"/>
    <path id="g" fill="none" stroke-linejoin="round" d="M3 6h144m-6-6l6 6-6 6"/>
    <path id="f" fill="none" stroke-linejoin="round" d="M15 12L9 6l6-6M9 6h139"/>
    <path id="e" fill="none" stroke-linejoin="round" d="M12 12L6 6l6-6M6 6h136"/>
    <path id="d" fill="none" stroke-linejoin="round" d="M12 12L6 6l6-6M6 6h136"/>
    <path id="c" fill="none" stroke-linejoin="round" d="M-165 8l429-1.954L274 6m-6-6l6 6-6 6"/>
    <path id="b" fill="none" stroke-linejoin="round" d="M3 6h443m-6-6l6 6-6 6"/>
    <path id="a" fill="none" stroke-linejoin="round" d="M4 6h142m-6-6l6 6-6 6"/>
  </defs>
  <path fill="none" d="M0 0h900v1120H0z"/>
  <use width="100%" height="100%" stroke="red" stroke-opacity="0" stroke-width="10" transform="translate(69.683 144.544)" xlink:href="#a"/>
  <use width="100%" height="100%" stroke="#000" stroke-width="2" transform="translate(69.683 144.544)" xlink:href="#a"/>
  <text style="text-decoration-line:none" font-family="serif" font-size="16" font-weight="400">
    <textPath alignment-baseline="middle" startOffset="50%" text-anchor="middle" xlink:href="#a"> </textPath>
  </text>
  <path fill="#fff" d="M74 119h125v25H74z"/>
  <text x="82" y="137" style="text-decoration-line:none" font-family="serif" font-size="16" font-weight="400">
    <tspan x="86.328" y="137">sending request</tspan>
  </text>
  <use width="100%" height="100%" stroke="red" stroke-opacity="0" stroke-width="10" transform="translate(69.683 185.544)" xlink:href="#b"/>
  <use width="100%" height="100%" stroke="#000" stroke-width="2" transform="translate(69.683 185.544)" xlink:href="#b"/>
  <text style="text-decoration-line:none" font-family="serif" font-size="16" font-weight="400">
    <textPath alignment-baseline="middle" startOffset="50%" text-anchor="middle" xlink:href="#b"> </textPath>
  </text>
  <use width="100%" height="100%" stroke="red" stroke-opacity="0" stroke-width="10" transform="translate(541.683 984.544)" xlink:href="#c"/>
  <use width="100%" height="100%" stroke="#000" stroke-width="2" transform="translate(541.683 984.544)" xlink:href="#c"/>
  <text style="text-decoration-line:none" font-family="serif" font-size="16" font-weight="400">
    <textPath alignment-baseline="middle" startOffset="50%" text-anchor="middle" xlink:href="#c"> </textPath>
  </text>
  <use width="100%" height="100%" stroke="red" stroke-opacity="0" stroke-width="10" transform="translate(372.683 227.544)" xlink:href="#d"/>
  <use width="100%" height="100%" stroke="#000" stroke-width="2" transform="translate(372.683 227.544)" xlink:href="#d"/>
  <text style="text-decoration-line:none" font-family="serif" font-size="16" font-weight="400">
    <textPath alignment-baseline="middle" startOffset="50%" text-anchor="middle" xlink:href="#d"> </textPath>
  </text>
  <path fill="#fff" d="M387 204h125v25H387z"/>
  <text x="396" y="222" style="text-decoration-line:none" font-family="serif" font-size="16" font-weight="400">
    <tspan x="397.719" y="222">received request</tspan>
  </text>
  <use width="100%" height="100%" stroke="red" stroke-opacity="0" stroke-width="10" transform="translate(373.683 271.544)" xlink:href="#e"/>
  <use width="100%" height="100%" stroke="#000" stroke-width="2" transform="translate(373.683 271.544)" xlink:href="#e"/>
  <text style="text-decoration-line:none" font-family="serif" font-size="16" font-weight="400">
    <textPath alignment-baseline="middle" startOffset="50%" text-anchor="middle" xlink:href="#e"> </textPath>
  </text>
  <use width="100%" height="100%" stroke="red" stroke-opacity="0" stroke-width="10" transform="translate(217.683 319.544)" xlink:href="#f"/>
  <use width="100%" height="100%" stroke="#000" stroke-width="2" transform="translate(217.683 319.544)" xlink:href="#f"/>
  <text style="text-decoration-line:none" font-family="serif" font-size="16" font-weight="400">
    <textPath alignment-baseline="middle" startOffset="50%" text-anchor="middle" xlink:href="#f"> </textPath>
  </text>
  <use width="100%" height="100%" stroke="red" stroke-opacity="0" stroke-width="10" transform="translate(519.683 359.544)" xlink:href="#g"/>
  <use width="100%" height="100%" stroke="#000" stroke-width="2" transform="translate(519.683 359.544)" xlink:href="#g"/>
  <text style="text-decoration-line:none" font-family="serif" font-size="16" font-weight="400">
    <textPath alignment-baseline="middle" startOffset="50%" text-anchor="middle" xlink:href="#g"> </textPath>
  </text>
  <path fill="#fff" d="M544 330h100v25H544z"/>
  <text x="552" y="348" style="text-decoration-line:none" font-family="serif" font-size="16" font-weight="400">
    <tspan x="554.719" y="348">invoke bean</tspan>
  </text>
  <use width="100%" height="100%" stroke="red" stroke-opacity="0" stroke-width="10" transform="translate(677.683 409.544)" xlink:href="#h"/>
  <use width="100%" height="100%" stroke="#000" stroke-width="2" transform="translate(677.683 409.544)" xlink:href="#h"/>
  <text style="text-decoration-line:none" font-family="serif" font-size="16" font-weight="400">
    <textPath alignment-baseline="middle" startOffset="50%" text-anchor="middle" xlink:href="#h"> </textPath>
  </text>
  <path fill="#fff" d="M683 379h125v25H683z"/>
  <text x="691" y="397" style="text-decoration-line:none" font-family="serif" font-size="16" font-weight="400">
    <tspan x="695.922" y="397">access resource</tspan>
  </text>
  <use width="100%" height="100%" stroke="red" stroke-opacity="0" stroke-width="10" transform="translate(371.683 456.544)" xlink:href="#i"/>
  <use width="100%" height="100%" stroke="#000" stroke-width="2" transform="translate(371.683 456.544)" xlink:href="#i"/>
  <text style="text-decoration-line:none" font-family="serif" font-size="16" font-weight="400">
    <textPath alignment-baseline="middle" startOffset="50%" text-anchor="middle" xlink:href="#i"> </textPath>
  </text>
  <path fill="#fff" d="M385 426h125v25H385z"/>
  <text x="393" y="444" style="text-decoration-line:none" font-family="serif" font-size="16" font-weight="400">
    <tspan x="401.023" y="444">enlist resource</tspan>
  </text>
  <use width="100%" height="100%" stroke="red" stroke-opacity="0" stroke-width="10" transform="translate(221.683 505.544)" xlink:href="#j"/>
  <use width="100%" height="100%" stroke="#000" stroke-width="2" transform="translate(221.683 505.544)" xlink:href="#j"/>
  <text style="text-decoration-line:none" font-family="serif" font-size="16" font-weight="400">
    <textPath alignment-baseline="middle" startOffset="50%" text-anchor="middle" xlink:href="#j"> </textPath>
  </text>
  <path fill="#fff" d="M234 480h125v25H234z"/>
  <text x="243" y="498" style="text-decoration-line:none" font-family="serif" font-size="16" font-weight="400">
    <tspan x="243.961" y="498">register resource</tspan>
  </text>
  <path fill="#fff" d="M379 523h125v25H379z"/>
  <text x="387" y="541" style="text-decoration-line:none" font-family="serif" font-size="16" font-weight="400">
    <tspan x="397.773" y="541">sending reply</tspan>
  </text>
  <use width="100%" height="100%" stroke="red" stroke-opacity="0" stroke-width="10" transform="translate(371.683 553.544)" xlink:href="#k"/>
  <use width="100%" height="100%" stroke="#000" stroke-width="2" transform="translate(371.683 553.544)" xlink:href="#k"/>
  <text style="text-decoration-line:none" font-family="serif" font-size="16" font-weight="400">
    <textPath alignment-baseline="middle" startOffset="50%" text-anchor="middle" xlink:href="#k"> </textPath>
  </text>
  <path fill="#fff" d="M221 573h150v25H221z"/>
  <text x="229" y="591" style="text-decoration-line:none" font-family="serif" font-size="16" font-weight="400">
    <tspan x="233.148" y="591">IIOP reply message</tspan>
  </text>
  <use width="100%" height="100%" stroke="red" stroke-opacity="0" stroke-width="10" transform="translate(73.683 601.544)" xlink:href="#l"/>
  <use width="100%" height="100%" stroke="#000" stroke-width="2" transform="translate(73.683 601.544)" xlink:href="#l"/>
  <text style="text-decoration-line:none" font-family="serif" font-size="16" font-weight="400">
    <textPath alignment-baseline="middle" startOffset="50%" text-anchor="middle" xlink:href="#l"> </textPath>
  </text>
  <path fill="#fff" d="M72 621h125v25H72z"/>
  <text x="81" y="639" style="text-decoration-line:none" font-family="serif" font-size="16" font-weight="400">
    <tspan x="89.164" y="639">received reply</tspan>
  </text>
  <use width="100%" height="100%" stroke="red" stroke-opacity="0" stroke-width="10" transform="translate(69.683 648.544)" xlink:href="#m"/>
  <use width="100%" height="100%" stroke="#000" stroke-width="2" transform="translate(69.683 648.544)" xlink:href="#m"/>
  <text style="text-decoration-line:none" font-family="serif" font-size="16" font-weight="400">
    <textPath alignment-baseline="middle" startOffset="50%" text-anchor="middle" xlink:href="#m"> </textPath>
  </text>
  <path fill="#fff" d="M77 670h125v25H77z"/>
  <text x="85" y="688" style="text-decoration-line:none" font-family="serif" font-size="16" font-weight="400">
    <tspan x="114.875" y="688">commit</tspan>
  </text>
  <use width="100%" height="100%" stroke="red" stroke-opacity="0" stroke-width="10" transform="translate(69.683 698.544)" xlink:href="#n"/>
  <use width="100%" height="100%" stroke="#000" stroke-width="2" transform="translate(69.683 698.544)" xlink:href="#n"/>
  <text style="text-decoration-line:none" font-family="serif" font-size="16" font-weight="400">
    <textPath alignment-baseline="middle" startOffset="50%" text-anchor="middle" xlink:href="#n"> </textPath>
  </text>
  <path fill="#fff" d="M227 715h125v25H227z"/>
  <text x="236" y="733" style="text-decoration-line:none" font-family="serif" font-size="16" font-weight="400">
    <tspan x="229.266" y="733">before_completion</tspan>
  </text>
  <use width="100%" height="100%" stroke="red" stroke-opacity="0" stroke-width="10" transform="translate(219.683 743.544)" xlink:href="#o"/>
  <use width="100%" height="100%" stroke="#000" stroke-width="2" transform="translate(219.683 743.544)" xlink:href="#o"/>
  <text style="text-decoration-line:none" font-family="serif" font-size="16" font-weight="400">
    <textPath alignment-baseline="middle" startOffset="50%" text-anchor="middle" xlink:href="#o"> </textPath>
  </text>
  <path fill="#fff" d="M379 764h125v25H379z"/>
  <text x="388" y="782" style="text-decoration-line:none" font-family="serif" font-size="16" font-weight="400">
    <tspan x="381.266" y="782">before_completion</tspan>
  </text>
  <use width="100%" height="100%" stroke="red" stroke-opacity="0" stroke-width="10" transform="translate(367.683 790.544)" xlink:href="#p"/>
  <use width="100%" height="100%" stroke="#000" stroke-width="2" transform="translate(367.683 790.544)" xlink:href="#p"/>
  <text style="text-decoration-line:none" font-family="serif" font-size="16" font-weight="400">
    <textPath alignment-baseline="middle" startOffset="50%" text-anchor="middle" xlink:href="#p"> </textPath>
  </text>
  <path fill="#fff" d="M529 813h125v25H529z"/>
  <text x="537" y="831" style="text-decoration-line:none" font-family="serif" font-size="16" font-weight="400">
    <tspan x="564.789" y="831">ejbStore</tspan>
  </text>
  <use width="100%" height="100%" stroke="red" stroke-opacity="0" stroke-width="10" transform="translate(521.683 841.544)" xlink:href="#q"/>
  <use width="100%" height="100%" stroke="#000" stroke-width="2" transform="translate(521.683 841.544)" xlink:href="#q"/>
  <text style="text-decoration-line:none" font-family="serif" font-size="16" font-weight="400">
    <textPath alignment-baseline="middle" startOffset="50%" text-anchor="middle" xlink:href="#q"> </textPath>
  </text>
  <path fill="#fff" d="M683 863h125v25H683z"/>
  <text x="691" y="881" style="text-decoration-line:none" font-family="serif" font-size="16" font-weight="400">
    <tspan x="712.789" y="881">flush state</tspan>
  </text>
  <use width="100%" height="100%" stroke="red" stroke-opacity="0" stroke-width="10" transform="translate(670.683 890.544)" xlink:href="#r"/>
  <use width="100%" height="100%" stroke="#000" stroke-width="2" transform="translate(670.683 890.544)" xlink:href="#r"/>
  <text style="text-decoration-line:none" font-family="serif" font-size="16" font-weight="400">
    <textPath alignment-baseline="middle" startOffset="50%" text-anchor="middle" xlink:href="#r"> </textPath>
  </text>
  <path fill="#fff" d="M227 913h125v25H227z"/>
  <text x="236" y="931" style="text-decoration-line:none" font-family="serif" font-size="16" font-weight="400">
    <tspan x="266.063" y="931">prepare</tspan>
  </text>
  <use width="100%" height="100%" stroke="red" stroke-opacity="0" stroke-width="10" transform="translate(220.683 941.544)" xlink:href="#s"/>
  <use width="100%" height="100%" stroke="#000" stroke-width="2" transform="translate(220.683 941.544)" xlink:href="#s"/>
  <text style="text-decoration-line:none" font-family="serif" font-size="16" font-weight="400">
    <textPath alignment-baseline="middle" startOffset="50%" text-anchor="middle" xlink:href="#s"> </textPath>
  </text>
  <path fill="#fff" d="M529 952h125v25H529z"/>
  <text x="538" y="970" style="text-decoration-line:none" font-family="serif" font-size="16" font-weight="400">
    <tspan x="568.063" y="970">prepare</tspan>
  </text>
  <path fill="#fff" d="M227 1009h125v25H227z"/>
  <text x="235" y="1027" style="text-decoration-line:none" font-family="serif" font-size="16" font-weight="400">
    <tspan x="264.875" y="1027">commit</tspan>
  </text>
  <use width="100%" height="100%" stroke="red" stroke-opacity="0" stroke-width="10" transform="translate(221.683 1037.544)" xlink:href="#t"/>
  <use width="100%" height="100%" stroke="#000" stroke-width="2" transform="translate(221.683 1037.544)" xlink:href="#t"/>
  <text style="text-decoration-line:none" font-family="serif" font-size="16" font-weight="400">
    <textPath alignment-baseline="middle" startOffset="50%" text-anchor="middle" xlink:href="#t"> </textPath>
  </text>
  <path fill="#fff" d="M529 1051h125v25H529z"/>
  <text x="537" y="1069" style="text-decoration-line:none" font-family="serif" font-size="16" font-weight="400">
    <tspan x="566.875" y="1069">commit</tspan>
  </text>
  <use width="100%" height="100%" stroke="red" stroke-opacity="0" stroke-width="10" transform="translate(540.683 1080.544)" xlink:href="#u"/>
  <use width="100%" height="100%" stroke="#000" stroke-width="2" transform="translate(540.683 1080.544)" xlink:href="#u"/>
  <text style="text-decoration-line:none" font-family="serif" font-size="16" font-weight="400">
    <textPath alignment-baseline="middle" startOffset="50%" text-anchor="middle" xlink:href="#u"> </textPath>
  </text>
  <path fill="#fff" d="M20 26h100v80H20z"/>
  <text x="28" y="63" style="text-decoration-line:none" font-family="serif" font-size="16" font-weight="400">
    <tspan x="52.047" y="63">client</tspan><tspan x="39.695" y="80.609">container</tspan>
  </text>
  <use width="100%" height="100%" stroke="red" stroke-opacity="0" stroke-width="10" transform="translate(20 145)" xlink:href="#v"/>
  <use width="100%" height="100%" stroke="#000" stroke-dasharray="5,5" transform="translate(20 145)" xlink:href="#v"/>
  <text style="text-decoration-line:none" font-family="serif" font-size="16" font-weight="400">
    <textPath alignment-baseline="middle" startOffset="50%" text-anchor="middle" xlink:href="#v"> </textPath>
  </text>
  <path fill="#fff" d="M170 26h100v80H170z"/>
  <text x="179" y="54" style="text-decoration-line:none" font-family="serif" font-size="16" font-weight="400">
    <tspan x="198.586" y="54">client&apos;s</tspan><tspan x="185.094" y="71.609">transaction</tspan><tspan x="192.516" y="89.219">manager</tspan>
  </text>
  <use width="100%" height="100%" stroke="red" stroke-opacity="0" stroke-width="10" transform="translate(170 -160)" xlink:href="#w"/>
  <use width="100%" height="100%" stroke="#000" stroke-dasharray="5,5" transform="translate(170 -160)" xlink:href="#w"/>
  <text style="text-decoration-line:none" font-family="serif" font-size="16" font-weight="400">
    <textPath alignment-baseline="middle" startOffset="50%" text-anchor="middle" xlink:href="#w"> </textPath>
  </text>
  <path fill="#fff" d="M320 26h100v83H320z"/>
  <text x="329" y="55" style="text-decoration-line:none" font-family="serif" font-size="16" font-weight="400">
    <tspan x="346.813" y="55">server&apos;s</tspan><tspan x="335.094" y="72.609">transaction</tspan><tspan x="342.516" y="90.219">manager</tspan>
  </text>
  <use width="100%" height="100%" stroke="red" stroke-opacity="0" stroke-width="10" transform="translate(211 -194)" xlink:href="#x"/>
  <use width="100%" height="100%" stroke="#000" stroke-dasharray="5,5" transform="translate(211 -194)" xlink:href="#x"/>
  <text style="text-decoration-line:none" font-family="serif" font-size="16" font-weight="400">
    <textPath alignment-baseline="middle" startOffset="50%" text-anchor="middle" xlink:href="#x"> </textPath>
  </text>
  <path fill="#fff" d="M470 26h100v80H470z"/>
  <text x="478" y="54" style="text-decoration-line:none" font-family="serif" font-size="16" font-weight="400">
    <tspan x="487.07" y="54">Enterprise</tspan><tspan x="500.359" y="71.609">Beans</tspan><tspan x="489.695" y="89.219">container</tspan>
  </text>
  <path fill="#fff" d="M620 26h100v80H620z"/>
  <text x="628" y="54" style="text-decoration-line:none" font-family="serif" font-size="16" font-weight="400">
    <tspan x="638.406" y="54">enterprise</tspan><tspan x="654.086" y="71.609">bean</tspan><tspan x="643.734" y="89.219">instance</tspan>
  </text>
  <use width="100%" height="100%" stroke="red" stroke-opacity="0" stroke-width="10" transform="translate(511 -170)" xlink:href="#y"/>
  <use width="100%" height="100%" stroke="#000" stroke-dasharray="5,5" transform="translate(511 -170)" xlink:href="#y"/>
  <text style="text-decoration-line:none" font-family="serif" font-size="16" font-weight="400">
    <textPath alignment-baseline="middle" startOffset="50%" text-anchor="middle" xlink:href="#y"> </textPath>
  </text>
  <path fill="#fff" d="M770 26h100v80H770z"/>
  <text x="778" y="63" style="text-decoration-line:none" font-family="serif" font-size="16" font-weight="400">
    <tspan x="790.18" y="63">Resource</tspan><tspan x="791.031" y="80.609">Manager</tspan>
  </text>
  <use width="100%" height="100%" stroke="red" stroke-opacity="0" stroke-width="10" transform="translate(661 -169)" xlink:href="#z"/>
  <use width="100%" height="100%" stroke="#000" stroke-dasharray="5,5" transform="translate(661 -169)" xlink:href="#z"/>
  <text style="text-decoration-line:none" font-family="serif" font-size="16" font-weight="400">
    <textPath alignment-baseline="middle" startOffset="50%" text-anchor="middle" xlink:href="#z"> </textPath>
  </text>
  <path fill="#fff" d="M116 163h359.291v25H116z"/>
  <text x="124" y="181" style="text-decoration-line:none" font-family="serif" font-size="16" font-weight="400">
    <tspan x="147.138" y="181">IIOP request message with transaction context</tspan>
  </text>
  <use width="100%" height="100%" stroke="red" stroke-opacity="0" stroke-width="10" transform="translate(361 -182)" xlink:href="#A"/>
  <use width="100%" height="100%" stroke="#000" stroke-dasharray="5,5" transform="translate(361 -182)" xlink:href="#A"/>
  <text style="text-decoration-line:none" font-family="serif" font-size="16" font-weight="400">
    <textPath alignment-baseline="middle" startOffset="50%" text-anchor="middle" xlink:href="#A"> </textPath>
  </text>
  <path fill="#fff" d="M378 245h175v25H378z"/>
  <text x="387" y="263" style="text-decoration-line:none" font-family="serif" font-size="16" font-weight="400">
    <tspan x="392.602" y="263">register syncronization</tspan>
  </text>
  <path fill="#fff" d="M224 289h235v25H224z"/>
  <text x="233" y="307" style="text-decoration-line:none" font-family="serif" font-size="16" font-weight="400">
    <tspan x="235.32" y="307">register syncronization (optional)</tspan>
  </text>
  <circle cx="294.5" cy="216.5" r="12.5" fill="#fff" stroke="#000" stroke-linejoin="round" stroke-width="2"/>
  <text x="290" y="222" style="text-decoration-line:none" font-family="serif" font-size="16" font-weight="400">
    <tspan x="290.5" y="222">1</tspan>
  </text>
  <circle cx="293.5" cy="974.5" r="12.5" fill="#fff" stroke="#000" stroke-linejoin="round" stroke-width="2"/>
  <text x="289" y="980" style="text-decoration-line:none" font-family="serif" font-size="16" font-weight="400">
    <tspan x="289.5" y="980">6</tspan>
  </text>
  <circle cx="294.5" cy="537.5" r="12.5" fill="#fff" stroke="#000" stroke-linejoin="round" stroke-width="2"/>
  <text x="290" y="543" style="text-decoration-line:none" font-family="serif" font-size="16" font-weight="400">
    <tspan x="290.5" y="543">3</tspan>
  </text>
  <circle cx="293.5" cy="1070.5" r="12.5" fill="#fff" stroke="#000" stroke-linejoin="round" stroke-width="2"/>
  <text x="289" y="1076" style="text-decoration-line:none" font-family="serif" font-size="16" font-weight="400">
    <tspan x="289.5" y="1076">7</tspan>
  </text>
  <circle cx="293.5" cy="776.5" r="12.5" fill="#fff" stroke="#000" stroke-linejoin="round" stroke-width="2"/>
  <text x="289" y="782" style="text-decoration-line:none" font-family="serif" font-size="16" font-weight="400">
    <tspan x="289.5" y="782">5</tspan>
  </text>
  <circle cx="294.5" cy="635.5" r="12.5" fill="#fff" stroke="#000" stroke-linejoin="round" stroke-width="2"/>
  <text x="290" y="641" style="text-decoration-line:none" font-family="serif" font-size="16" font-weight="400">
    <tspan x="290.5" y="641">4</tspan>
  </text>
  <circle cx="294.5" cy="351.5" r="12.5" fill="#fff" stroke="#000" stroke-linejoin="round" stroke-width="2"/>
  <text x="290" y="357" style="text-decoration-line:none" font-family="serif" font-size="16" font-weight="400">
    <tspan x="290.5" y="357">2</tspan>
  </text>
</svg>
