<svg xmlns="http://www.w3.org/2000/svg" xmlns:xlink="http://www.w3.org/1999/xlink" height="294" width="593">
  <defs>
    <path d="M39-29h145m-6-6l6 6-6 6" id="d" fill="none" stroke-linejoin="round"/>
    <path d="M288-19v63m6-6l-6 6-6-6" id="c" fill="none" stroke-linejoin="round"/>
    <path d="M251-15v63m6-6l-6 6-6-6" id="b" fill="none" stroke-linejoin="round"/>
    <path d="M38-28.044l98-.868 5-.044M135-35l6 6.044L135-23" id="a" fill="none" stroke-linejoin="round"/>
  </defs>
  <path fill="none" d="M0 0h593v294H0z"/>
  <path fill="#fff" stroke="#000" stroke-width="2" stroke-linejoin="round" d="M10 51h100v80H10z"/>
  <text y="97" x="18" style="text-decoration-line:none" font-weight="400" font-size="16" font-family="serif">
    <tspan y="97" x="40.266">Client</tspan>
  </text>
  <path fill="#fff" stroke="#000" stroke-width="2" stroke-linejoin="round" d="M166 40h180v100H166z"/>
  <path d="M235.667 70h50.666C292.667 70 299 80 299 90s-6.333 20-12.667 20h-50.666C229.333 110 223 100 223 90s6.333-20 12.667-20" fill="#fff" stroke="#000" stroke-width="2" stroke-linejoin="round"/>
  <text y="96" x="232" style="text-decoration-line:none" font-weight="400" font-size="16" font-family="serif">
    <tspan y="96" x="255.594">X</tspan>
  </text>
  <use transform="translate(77 119)" height="100%" width="100%" xlink:href="#a" stroke="red" stroke-width="10" stroke-opacity="0"/>
  <use transform="translate(77 119)" height="100%" width="100%" xlink:href="#a" stroke="#000" stroke-width="2"/>
  <text style="text-decoration-line:none" font-weight="400" font-size="16" font-family="serif">
    <textPath alignment-baseline="middle" startOffset="50%" xlink:href="#a" text-anchor="middle"> </textPath>
  </text>
  <path d="M211 199.667v66.666c0 8.334 25 16.667 50 16.667s50-8.333 50-16.667v-66.666c0-8.334-25-16.667-50-16.667s-50 8.333-50 16.667z" fill="#fff"/>
  <path d="M211 199.667v66.666c0 8.334 25 16.667 50 16.667s50-8.333 50-16.667v-66.666c0 8.333-25 16.666-50 16.666s-50-8.333-50-16.666c0-8.334 25-16.667 50-16.667s50 8.333 50 16.667" fill="none" stroke="#000" stroke-width="2" stroke-linejoin="round"/>
  <text y="255" x="219" style="text-decoration-line:none" font-weight="400" font-size="16" font-family="serif">
    <tspan y="255" x="225.898">database A</tspan>
  </text>
  <use transform="translate(10 130)" height="100%" width="100%" xlink:href="#b" stroke="red" stroke-width="10" stroke-opacity="0"/>
  <use transform="translate(10 130)" height="100%" width="100%" xlink:href="#b" stroke="#000" stroke-width="2"/>
  <text style="text-decoration-line:none" font-weight="400" font-size="16" font-family="serif">
    <textPath alignment-baseline="middle" startOffset="50%" xlink:href="#b" text-anchor="middle"> </textPath>
  </text>
  <path fill="#fff" d="M166 10h175v25H166z"/>
  <text y="28" x="174" style="text-decoration-line:none" font-weight="400" font-size="16" font-family="serif">
    <tspan y="28" x="178.766">Enterprise Bean Server</tspan>
  </text>
  <path fill="#fff" stroke="#000" stroke-width="2" stroke-linejoin="round" d="M402 40h180v100H402z"/>
  <path d="M466.667 70h50.666C523.667 70 530 80 530 90s-6.333 20-12.667 20h-50.666C460.333 110 454 100 454 90s6.333-20 12.667-20" fill="#fff" stroke="#000" stroke-width="2" stroke-linejoin="round"/>
  <text y="96" x="463" style="text-decoration-line:none" font-weight="400" font-size="16" font-family="serif">
    <tspan y="96" x="486.594">Y</tspan>
  </text>
  <use transform="translate(204 134)" height="100%" width="100%" xlink:href="#c" stroke="red" stroke-width="10" stroke-opacity="0"/>
  <use transform="translate(204 134)" height="100%" width="100%" xlink:href="#c" stroke="#000" stroke-width="2"/>
  <text style="text-decoration-line:none" font-weight="400" font-size="16" font-family="serif">
    <textPath alignment-baseline="middle" startOffset="50%" xlink:href="#c" text-anchor="middle"> </textPath>
  </text>
  <path fill="#fff" d="M405 10h175v25H405z"/>
  <text y="28" x="413" style="text-decoration-line:none" font-weight="400" font-size="16" font-family="serif">
    <tspan y="28" x="417.766">Enterprise Bean Server</tspan>
  </text>
  <path d="M442 199.667v66.666c0 8.334 25 16.667 50 16.667s50-8.333 50-16.667v-66.666c0-8.334-25-16.667-50-16.667s-50 8.333-50 16.667z" fill="#fff"/>
  <path d="M442 199.667v66.666c0 8.334 25 16.667 50 16.667s50-8.333 50-16.667v-66.666c0 8.333-25 16.666-50 16.666s-50-8.333-50-16.666c0-8.334 25-16.667 50-16.667s50 8.333 50 16.667" fill="none" stroke="#000" stroke-width="2" stroke-linejoin="round"/>
  <text y="255" x="450" style="text-decoration-line:none" font-weight="400" font-size="16" font-family="serif">
    <tspan y="255" x="457.125">database B</tspan>
  </text>
  <use transform="translate(265 119)" height="100%" width="100%" xlink:href="#d" stroke="red" stroke-width="10" stroke-opacity="0"/>
  <use transform="translate(265 119)" height="100%" width="100%" xlink:href="#d" stroke="#000" stroke-width="2"/>
  <text style="text-decoration-line:none" font-weight="400" font-size="16" font-family="serif">
    <textPath alignment-baseline="middle" startOffset="50%" xlink:href="#d" text-anchor="middle"> </textPath>
  </text>
</svg>
