<svg xmlns="http://www.w3.org/2000/svg" height="336" width="723">
  <ellipse ry="30" rx="76.5" cy="184" cx="85.5" fill="#fff" stroke="#000" stroke-width="2"/>
  <text y="190" x="48">
    <tspan y="190" x="49.891">Program A</tspan>
  </text>
  <path d="M90.29 152.568l116.13-34.705 4.79-1.431M204 113l7.21 3.432L207 123" fill="none" stroke="#000" stroke-width="2"/>
  <text y="121" x="120">
    <tspan y="121" x="120.336">TX 1</tspan>
  </text>
  <ellipse ry="30" rx="76.5" cy="115" cx="292.5" fill="#fff" stroke="#000" stroke-width="2"/>
  <text y="119" x="255">
    <tspan y="119" x="257.109">Program B</tspan>
  </text>
  <path d="M90.28 215.465l116.16 35.605 4.78 1.466M207 245l4.22 7.535L204 256" fill="none" stroke="#000" stroke-width="2"/>
  <text y="260" x="120">
    <tspan y="260" x="120.336">TX 1</tspan>
  </text>
  <ellipse ry="30" rx="76.5" cy="254" cx="292.5" fill="#fff" stroke="#000" stroke-width="2"/>
  <text y="258" x="255">
    <tspan y="258" x="257.109">Program C</tspan>
  </text>
  <text y="49" x="508">
    <tspan y="49" x="514.602">Enterprise Bean Container</tspan>
  </text>
  <rect ry="26.375" rx="26.375" height="243" width="211" y="63" x="500" fill="#fff" stroke="#000" stroke-width="2"/>
  <ellipse ry="30" rx="76.5" cy="184" cx="605.5" fill="#fff" stroke="#000" stroke-width="2"/>
  <text y="190" x="563">
    <tspan y="190" x="563.719">Entity object</tspan>
  </text>
  <path d="M373.591 116.98l146.226 63.06 4.592 1.98M521 175l3.409 7.02L517 185" fill="none" stroke="#000" stroke-width="2"/>
  <text y="121" x="441">
    <tspan y="121" x="441.336">TX 1</tspan>
  </text>
  <path d="M373.58 251.996l146.258-63.988 4.581-2.004M517 183l7.42 3.004L522 193" fill="none" stroke="#000" stroke-width="2"/>
  <text y="251" x="441">
    <tspan y="251" x="441.336">TX 1</tspan>
  </text>
</svg>
