<svg xmlns="http://www.w3.org/2000/svg" xmlns:xlink="http://www.w3.org/1999/xlink" width="723" height="336">
  <defs>
    <path id="d" fill="none" stroke-linejoin="round" d="M120.976 93.51l168.072-16.53 4.976-.49M288 71l6.024 5.49L289 83"/>
    <path id="c" fill="none" stroke-linejoin="round" d="M146.967-39.43l168.098 19.29 4.968.57M315-26l5.033 6.43L314-15"/>
    <path id="b" fill="none" stroke-linejoin="round" d="M28.338 89.738l157.986-41.214 4.838-1.262M184 43l7.162 4.262L187 54"/>
    <path id="a" fill="none" stroke-linejoin="round" d="M-51.594-91.033l157.783 31.1 4.905.966M107-66l4.094 7.033L104-55"/>
  </defs>
  <path fill="none" d="M0 0h723v336H0z"/>
  <rect width="211" height="243" x="229" y="57" fill="#fff" stroke="#000" stroke-linejoin="round" stroke-width="2" rx="26.375" ry="26.375"/>
  <ellipse cx="334.5" cy="248" fill="#fff" stroke="#000" stroke-linejoin="round" stroke-width="2" rx="76.5" ry="30"/>
  <ellipse cx="334.5" cy="109" fill="#fff" stroke="#000" stroke-linejoin="round" stroke-width="2" rx="76.5" ry="30"/>
  <path fill="#fff" stroke="#fff" stroke-linejoin="round" stroke-width="2" d="M229 23h200v25H229z"/>
  <text x="237" y="41" style="text-decoration-line:none" font-family="serif" font-size="16" font-weight="100">
    <tspan x="243.602" y="41">Enterprise Bean Container</tspan>
  </text>
  <ellipse cx="85.5" cy="184" fill="#fff" stroke="#000" stroke-linejoin="round" stroke-width="2" rx="76.5" ry="30"/>
  <use width="100%" height="100%" stroke="red" stroke-opacity="0" stroke-width="10" transform="translate(142 306)" xlink:href="#a"/>
  <use width="100%" height="100%" stroke="#000" stroke-width="2" transform="translate(142 306)" xlink:href="#a"/>
  <text style="text-decoration-line:none" font-family="serif" font-size="16" font-weight="100">
    <textPath alignment-baseline="middle" startOffset="50%" text-anchor="middle" xlink:href="#a"> </textPath>
  </text>
  <use width="100%" height="100%" stroke="red" stroke-opacity="0" stroke-width="10" transform="translate(62 63)" xlink:href="#b"/>
  <use width="100%" height="100%" stroke="#000" stroke-width="2" transform="translate(62 63)" xlink:href="#b"/>
  <text style="text-decoration-line:none" font-family="serif" font-size="16" font-weight="100">
    <textPath alignment-baseline="middle" startOffset="50%" text-anchor="middle" xlink:href="#b"> </textPath>
  </text>
  <use width="100%" height="100%" stroke="red" stroke-opacity="0" stroke-width="10" transform="translate(269 149)" xlink:href="#c"/>
  <use width="100%" height="100%" stroke="#000" stroke-width="2" transform="translate(269 149)" xlink:href="#c"/>
  <text style="text-decoration-line:none" font-family="serif" font-size="16" font-weight="100">
    <textPath alignment-baseline="middle" startOffset="50%" text-anchor="middle" xlink:href="#c"> </textPath>
  </text>
  <use width="100%" height="100%" stroke="red" stroke-opacity="0" stroke-width="10" transform="translate(295 154)" xlink:href="#d"/>
  <use width="100%" height="100%" stroke="#000" stroke-width="2" transform="translate(295 154)" xlink:href="#d"/>
  <text style="text-decoration-line:none" font-family="serif" font-size="16" font-weight="100">
    <textPath alignment-baseline="middle" startOffset="50%" text-anchor="middle" xlink:href="#d"> </textPath>
  </text>
  <path fill="#fff" stroke="#fff" stroke-linejoin="round" stroke-width="2" d="M161 91h50v25h-50z"/>
  <text x="169" y="109" style="text-decoration-line:none" font-family="serif" font-size="16" font-weight="100">
    <tspan x="169.336" y="109">TX 1</tspan>
  </text>
  <path fill="#fff" stroke="#fff" stroke-linejoin="round" stroke-width="2" d="M161 243h50v25h-50z"/>
  <text x="169" y="261" style="text-decoration-line:none" font-family="serif" font-size="16" font-weight="100">
    <tspan x="169.336" y="261">TX 1</tspan>
  </text>
  <path fill="#fff" stroke="#fff" stroke-linejoin="round" stroke-width="2" d="M474 245h117v42H474z"/>
  <text x="485" y="263" style="text-decoration-line:none" font-family="serif" font-size="16" font-weight="100">
    <tspan x="485" y="263">read and cache</tspan><tspan x="485" y="280.609">Account 100</tspan>
  </text>
  <path fill="#fff" d="M594 146.667v66.666c0 8.334 25 16.667 50 16.667s50-8.333 50-16.667v-66.666c0-8.334-25-16.667-50-16.667s-50 8.333-50 16.667z"/>
  <path fill="none" stroke="#000" stroke-linejoin="round" stroke-width="2" d="M594 146.667v66.666c0 8.334 25 16.667 50 16.667s50-8.333 50-16.667v-66.666c0 8.333-25 16.666-50 16.666s-50-8.333-50-16.666c0-8.334 25-16.667 50-16.667s50 8.333 50 16.667"/>
  <path fill="#fff" stroke="#fff" stroke-linejoin="round" stroke-width="2" d="M474 68h117v42H474z"/>
  <text x="485" y="86" style="text-decoration-line:none" font-family="serif" font-size="16" font-weight="100">
    <tspan x="485" y="86">read and cache</tspan><tspan x="485" y="103.609">Account 100</tspan>
  </text>
  <path fill="#fff" stroke="#fff" stroke-linejoin="round" stroke-width="2" d="M40 174h90v20H40z"/>
  <text x="48" y="190" style="text-decoration-line:none" font-family="serif" font-size="16" font-weight="100">
    <tspan x="49.891" y="190">Program A</tspan>
  </text>
  <path fill="#fff" stroke="#fff" stroke-linejoin="round" stroke-width="2" d="M267 98h135v20H267z"/>
  <text x="275" y="114" style="text-decoration-line:none" font-family="serif" font-size="16" font-weight="100">
    <tspan x="275.398" y="114">Session Instance 1</tspan>
  </text>
  <path fill="#fff" stroke="#fff" stroke-linejoin="round" stroke-width="2" d="M267 237h135v20H267z"/>
  <text x="275" y="253" style="text-decoration-line:none" font-family="serif" font-size="16" font-weight="100">
    <tspan x="275.398" y="253">Session Instance 2</tspan>
  </text>
</svg>
