<svg xmlns="http://www.w3.org/2000/svg" xmlns:xlink="http://www.w3.org/1999/xlink" height="293" width="524">
  <defs>
    <path d="M64.097 29.473l61.709 59.581 3.597 3.473M129 85l.403 7.527L121 93" id="e" fill="none" stroke-linejoin="round"/>
    <path d="M234.609-31.54l62.173 59.619 3.61 3.46M300 24l.391 7.54L292 32" id="d" fill="none" stroke-linejoin="round"/>
    <path d="M247.391-16.54l-62.173 59.62-3.61 3.46M190 47l-8.391-.46L182 39" id="c" fill="none" stroke-linejoin="round"/>
    <path d="M33-28l103-.912L146-29m-6-6l6 6-6 6" id="b" fill="none" stroke-linejoin="round"/>
    <path d="M150 50h55m-6-6l6 6-6 6" id="a" fill="none" stroke-linejoin="round"/>
  </defs>
  <path fill="none" d="M0 0h524v293H0z"/>
  <path fill="#fff" stroke="#000" stroke-width="2" stroke-linejoin="round" d="M10 53h100v80H10z"/>
  <text y="99" x="18" style="text-decoration-line:none" font-weight="400" font-size="16" font-family="serif">
    <tspan y="99" x="40.266">Client</tspan>
  </text>
  <path fill="#fff" stroke="#000" stroke-width="2" stroke-linejoin="round" d="M166 42h300v100H166z"/>
  <path d="M235.667 72h50.666C292.667 72 299 82 299 92s-6.333 20-12.667 20h-50.666C229.333 112 223 102 223 92s6.333-20 12.667-20" fill="#fff" stroke="#000" stroke-width="2" stroke-linejoin="round"/>
  <text y="98" x="232" style="text-decoration-line:none" font-weight="400" font-size="16" font-family="serif">
    <tspan y="98" x="255.594">X</tspan>
  </text>
  <path d="M366.167 72h48.666C420.917 72 427 82 427 92s-6.083 20-12.167 20h-48.666C360.083 112 354 102 354 92s6.083-20 12.167-20" fill="#fff" stroke="#000" stroke-width="2" stroke-linejoin="round"/>
  <text y="98" x="363" style="text-decoration-line:none" font-weight="400" font-size="16" font-family="serif">
    <tspan y="98" x="385.094">Y</tspan>
  </text>
  <use transform="translate(149 42)" height="100%" width="100%" xlink:href="#a" stroke="red" stroke-width="10" stroke-opacity="0"/>
  <use transform="translate(149 42)" height="100%" width="100%" xlink:href="#a" stroke="#000" stroke-width="2"/>
  <text style="text-decoration-line:none" font-weight="400" font-size="16" font-family="serif">
    <textPath alignment-baseline="middle" startOffset="50%" xlink:href="#a" text-anchor="middle"> </textPath>
  </text>
  <use transform="translate(77 121)" height="100%" width="100%" xlink:href="#b" stroke="red" stroke-width="10" stroke-opacity="0"/>
  <use transform="translate(77 121)" height="100%" width="100%" xlink:href="#b" stroke="#000" stroke-width="2"/>
  <text style="text-decoration-line:none" font-weight="400" font-size="16" font-family="serif">
    <textPath alignment-baseline="middle" startOffset="50%" xlink:href="#b" text-anchor="middle"> </textPath>
  </text>
  <path d="M284 198.667v66.666c0 8.334 25 16.667 50 16.667s50-8.333 50-16.667v-66.666c0-8.334-25-16.667-50-16.667s-50 8.333-50 16.667z" fill="#fff"/>
  <path d="M284 198.667v66.666c0 8.334 25 16.667 50 16.667s50-8.333 50-16.667v-66.666c0 8.333-25 16.666-50 16.666s-50-8.333-50-16.666c0-8.334 25-16.667 50-16.667s50 8.333 50 16.667" fill="none" stroke="#000" stroke-width="2" stroke-linejoin="round"/>
  <text y="254" x="292" style="text-decoration-line:none" font-weight="400" font-size="16" font-family="serif">
    <tspan y="254" x="299.125">database B</tspan>
  </text>
  <path d="M413 198.667v66.666c0 8.334 25 16.667 50 16.667s50-8.333 50-16.667v-66.666c0-8.334-25-16.667-50-16.667s-50 8.333-50 16.667z" fill="#fff"/>
  <path d="M413 198.667v66.666c0 8.334 25 16.667 50 16.667s50-8.333 50-16.667v-66.666c0 8.333-25 16.666-50 16.666s-50-8.333-50-16.666c0-8.334 25-16.667 50-16.667s50 8.333 50 16.667" fill="none" stroke="#000" stroke-width="2" stroke-linejoin="round"/>
  <text y="254" x="421" style="text-decoration-line:none" font-weight="400" font-size="16" font-family="serif">
    <tspan y="254" x="428.125">database C</tspan>
  </text>
  <use transform="translate(10 132)" height="100%" width="100%" xlink:href="#c" stroke="red" stroke-width="10" stroke-opacity="0"/>
  <use transform="translate(10 132)" height="100%" width="100%" xlink:href="#c" stroke="#000" stroke-width="2"/>
  <text style="text-decoration-line:none" font-weight="400" font-size="16" font-family="serif">
    <textPath alignment-baseline="middle" startOffset="50%" xlink:href="#c" text-anchor="middle"> </textPath>
  </text>
  <use transform="translate(30 147)" height="100%" width="100%" xlink:href="#d" stroke="red" stroke-width="10" stroke-opacity="0"/>
  <use transform="translate(30 147)" height="100%" width="100%" xlink:href="#d" stroke="#000" stroke-width="2"/>
  <text style="text-decoration-line:none" font-weight="400" font-size="16" font-family="serif">
    <textPath alignment-baseline="middle" startOffset="50%" xlink:href="#d" text-anchor="middle"> </textPath>
  </text>
  <use transform="translate(330 86)" height="100%" width="100%" xlink:href="#e" stroke="red" stroke-width="10" stroke-opacity="0"/>
  <use transform="translate(330 86)" height="100%" width="100%" xlink:href="#e" stroke="#000" stroke-width="2"/>
  <text style="text-decoration-line:none" font-weight="400" font-size="16" font-family="serif">
    <textPath alignment-baseline="middle" startOffset="50%" xlink:href="#e" text-anchor="middle"> </textPath>
  </text>
  <path fill="#fff" d="M229 10h175v25H229z"/>
  <text y="28" x="237" style="text-decoration-line:none" font-weight="400" font-size="16" font-family="serif">
    <tspan y="28" x="241.766">Enterprise Bean Server</tspan>
  </text>
  <path d="M138 198h80v48c-5 0-5 0-30 8s-25 8-50 0v-56m10 0v-8h80v48h-10m-60-48v-8h80v48h-10" fill="#fff" stroke="#000" stroke-width="2" stroke-linejoin="round"/>
  <text y="228" x="146" style="text-decoration-line:none" font-weight="400" font-size="16" font-family="serif">
    <tspan y="228" x="151.336">queue A</tspan>
  </text>
</svg>
