<svg xmlns="http://www.w3.org/2000/svg" xmlns:xlink="http://www.w3.org/1999/xlink" width="695" height="141">
  <defs>
    <path id="b" fill="none" stroke-linejoin="round" d="M352-56h90m-6-6l6 6-6 6"/>
    <path id="a" fill="none" stroke-linejoin="round" d="M179-51h90m-6-6l6 6-6 6"/>
  </defs>
  <path fill="none" d="M0 0h695v141H0z"/>
  <path fill="#fff" stroke="#000" stroke-linejoin="round" stroke-width="2" d="M59 10h100c12.5 0 25 10 25 20s-12.5 20-25 20H59c-12.5 0-25-10-25-20s12.5-20 25-20"/>
  <text style="text-decoration-line:none" x="42" y="36" font-family="serif" font-size="16" font-weight="400">
    <tspan x="103.664" y="36">C</tspan>
  </text>
  <path fill="#fff" stroke="#000" stroke-linejoin="round" stroke-width="2" d="M284 10h150v40H284z"/>
  <text style="text-decoration-line:none" x="292" y="36" font-family="serif" font-size="16" font-weight="400">
    <tspan x="350.547" y="36">S1</tspan>
  </text>
  <path fill="#fff" stroke="#000" stroke-linejoin="round" stroke-width="2" d="M534 10h150v40H534z"/>
  <text style="text-decoration-line:none" x="542" y="36" font-family="serif" font-size="16" font-weight="400">
    <tspan x="600.547" y="36">S2</tspan>
  </text>
  <use width="100%" height="100%" stroke="red" stroke-opacity="0" stroke-width="10" transform="translate(10 81)" xlink:href="#a"/>
  <use width="100%" height="100%" stroke="#000" stroke-width="2" transform="translate(10 81)" xlink:href="#a"/>
  <text style="text-decoration-line:none" font-family="serif" font-size="16" font-weight="400">
    <textPath alignment-baseline="middle" startOffset="50%" text-anchor="middle" xlink:href="#a"> </textPath>
  </text>
  <use width="100%" height="100%" stroke="red" stroke-opacity="0" stroke-width="10" transform="translate(87 86)" xlink:href="#b"/>
  <use width="100%" height="100%" stroke="#000" stroke-width="2" transform="translate(87 86)" xlink:href="#b"/>
  <text style="text-decoration-line:none" font-family="serif" font-size="16" font-weight="400">
    <textPath alignment-baseline="middle" startOffset="50%" text-anchor="middle" xlink:href="#b"> </textPath>
  </text>
  <path fill="#fff" d="M34 60h150v70H34z"/>
  <text style="text-decoration-line:none" x="42" y="83" font-family="serif" font-size="16" font-weight="400">
    <tspan x="44.484" y="83">application client or</tspan><tspan x="75.313" y="100.609">web client</tspan><tspan x="54.875" y="118.219">(initiating client)</tspan>
  </text>
  <path fill="#fff" d="M284 60h150v70H284z"/>
  <text style="text-decoration-line:none" x="292" y="83" font-family="serif" font-size="16" font-weight="400">
    <tspan x="295.367" y="83">Enterprise Beans or</tspan><tspan x="312.961" y="100.609">web container</tspan><tspan x="313.555" y="118.219">(intermediate)</tspan>
  </text>
  <path fill="#fff" d="M534 60h150v70H534z"/>
  <text style="text-decoration-line:none" x="542" y="83" font-family="serif" font-size="16" font-weight="400">
    <tspan x="554.484" y="83">Enterprise Beans</tspan><tspan x="577.234" y="100.609">container </tspan><tspan x="585.469" y="118.219">(target)</tspan>
  </text>
</svg>
