<svg xmlns="http://www.w3.org/2000/svg" height="245" width="505">
  <rect ry="25" rx="25" height="200" width="300" y="35" x="194" fill="#fff" stroke="#000" stroke-width="2"/>
  <rect ry="15.625" rx="15.625" height="125" width="275" y="60" x="207" fill="#fff" stroke="#000" stroke-width="2"/>
  <text y="26" x="311">
    <tspan y="26" x="313.695">container</tspan>
  </text>
  <text y="140" x="18">
    <tspan y="140" x="17.047">client</tspan>
  </text>
  <path stroke="#000" stroke-width="2" d="M64.928 133.655l55.216-9.465 4.928-.845M119 119l6.072 4.345L120 130" fill="none"/>
  <path d="M150.833 100h83.334C244.583 100 255 111.25 255 122.5S244.583 145 234.167 145h-83.334C140.417 145 130 133.75 130 122.5s10.417-22.5 20.833-22.5" fill="#fff" stroke="#000" stroke-width="2"/>
  <text y="128" x="138">
    <tspan y="128" x="178.547">Cart</tspan>
  </text>
  <path stroke="#000" stroke-width="2" d="M260 122.5h85m-6-5.5l6 5.5-6 5.5" fill="none"/>
  <path d="M370 100h80c10 0 20 11.25 20 22.5S460 145 450 145h-80c-10 0-20-11.25-20-22.5s10-22.5 20-22.5" fill="#fff" stroke="#000" stroke-width="2"/>
  <text y="128" x="358">
    <tspan y="128" x="379.383">CartBean</tspan>
  </text>
</svg>
