<svg xmlns="http://www.w3.org/2000/svg" height="291" width="548">
  <path fill="#fff" stroke="#000" stroke-width="2" d="M308 40h229v99H308z"/>
  <text y="28" x="343">
    <tspan y="28" x="347.766">Enterprise Bean Server</tspan>
  </text>
  <path fill="#fff" stroke="#000" stroke-width="2" d="M10 51h100v80H10z"/>
  <text y="97" x="18">
    <tspan y="97" x="40.266">Client</tspan>
  </text>
  <path d="M115 91h40m-6-6l6 6-6 6" fill="none" stroke="#000" stroke-width="2"/>
  <path d="M160 67h80v48c-5 0-5 0-30 8s-25 8-50 0V67m10 0v-8h80v48h-10m-60-48v-8h80v48h-10" fill="#fff" stroke="#000" stroke-width="2"/>
  <text y="97" x="168">
    <tspan y="97" x="173.336">queue A</tspan>
  </text>
  <path d="M265 91h114m-6-6l6 6-6 6" fill="none" stroke="#000" stroke-width="2"/>
  <path d="M396.667 71h50.666C453.667 71 460 81 460 91s-6.333 20-12.667 20h-50.666C390.333 111 384 101 384 91s6.333-20 12.667-20" fill="#fff" stroke="#000" stroke-width="2"/>
  <text y="97" x="393">
    <tspan y="97" x="416.594">X</tspan>
  </text>
  <path d="M418.6 114.666l-53.8 58.002-3.4 3.666M369 176l-7.6.334L361 168" fill="none" stroke="#000" stroke-width="2"/>
  <path d="M308 196.667v66.666c0 8.334 25 16.667 50 16.667s50-8.333 50-16.667v-66.666c0 8.333-25 16.666-50 16.666s-50-8.333-50-16.666c0-8.334 25-16.667 50-16.667s50 8.333 50 16.667" fill="#fff" stroke="#000" stroke-width="2"/>
  <text y="252" x="316">
    <tspan y="252" x="323.125">database B</tspan>
  </text>
  <path d="M425.428 114.64l54.715 58.081 3.429 3.64M484 168l-.428 8.36L476 176" fill="none" stroke="#000" stroke-width="2"/>
  <path d="M437 196.667v66.666c0 8.334 25 16.667 50 16.667s50-8.333 50-16.667v-66.666c0 8.333-25 16.666-50 16.666s-50-8.333-50-16.666c0-8.334 25-16.667 50-16.667s50 8.333 50 16.667" fill="#fff" stroke="#000" stroke-width="2"/>
  <text y="252" x="445">
    <tspan y="252" x="452.125">database C</tspan>
  </text>
</svg>
