<svg xmlns="http://www.w3.org/2000/svg" height="294" width="593">
  <path fill="#fff" stroke="#000" stroke-width="2" d="M10 51h100v80H10z"/>
  <text y="97" x="18">
    <tspan y="97" x="40.266">Client</tspan>
  </text>
  <path fill="#fff" stroke="#000" stroke-width="2" d="M166 40h180v100H166z"/>
  <text y="28" x="174">
    <tspan y="28" x="178.766">Enterprise Bean Server</tspan>
  </text>
  <path d="M115 90.956l98-.868 5-.044M212 84l6 6.044L212 96" fill="none" stroke="#000" stroke-width="2"/>
  <path d="M235.667 70h50.666C292.667 70 299 80 299 90s-6.333 20-12.667 20h-50.666C229.333 110 223 100 223 90s6.333-20 12.667-20" fill="#fff" stroke="#000" stroke-width="2"/>
  <text y="96" x="232">
    <tspan y="96" x="255.594">X</tspan>
  </text>
  <path d="M261 115v63m6-6l-6 6-6-6" fill="none" stroke="#000" stroke-width="2"/>
  <path d="M211 199.667v66.666c0 8.334 25 16.667 50 16.667s50-8.333 50-16.667v-66.666c0 8.333-25 16.666-50 16.666s-50-8.333-50-16.666c0-8.334 25-16.667 50-16.667s50 8.333 50 16.667" fill="#fff" stroke="#000" stroke-width="2"/>
  <text y="255" x="219">
    <tspan y="255" x="225.898">database A</tspan>
  </text>
  <path fill="#fff" stroke="#000" stroke-width="2" d="M402 40h180v100H402z"/>
  <text y="28" x="413">
    <tspan y="28" x="417.766">Enterprise Bean Server</tspan>
  </text>
  <path d="M304 90h145m-6-6l6 6-6 6" fill="none" stroke="#000" stroke-width="2"/>
  <path d="M466.667 70h50.666C523.667 70 530 80 530 90s-6.333 20-12.667 20h-50.666C460.333 110 454 100 454 90s6.333-20 12.667-20" fill="#fff" stroke="#000" stroke-width="2"/>
  <text y="96" x="463">
    <tspan y="96" x="486.594">Y</tspan>
  </text>
  <path d="M492 115v63m6-6l-6 6-6-6" fill="none" stroke="#000" stroke-width="2"/>
  <path d="M442 199.667v66.666c0 8.334 25 16.667 50 16.667s50-8.333 50-16.667v-66.666c0 8.333-25 16.666-50 16.666s-50-8.333-50-16.666c0-8.334 25-16.667 50-16.667s50 8.333 50 16.667" fill="#fff" stroke="#000" stroke-width="2"/>
  <text y="255" x="450">
    <tspan y="255" x="457.125">database B</tspan>
  </text>
</svg>
