<svg xmlns="http://www.w3.org/2000/svg" height="370" width="592">
  <text y="141" x="75">
    <tspan x="83.766" y="141">Client</tspan>
  </text>
  <path fill="#fff" stroke="#000" stroke-width="2" d="M53 156h100v80H53z"/>
  <text y="182" x="75" font-style="italic">
    <tspan x="85.727" y="182">begin</tspan>
  </text>
  <text y="223" x="75" font-style="italic">
    <tspan x="79.367" y="223">commit</tspan>
  </text>
  <text y="30" x="236">
    <tspan x="240.766" y="30">Enterprise Bean Server</tspan>
  </text>
  <path fill="#fff" stroke="#000" stroke-width="2" d="M228 41h180v100H228z"/>
  <path d="M156.854 192.814l115.439-95.442 3.853-3.186M268 93l8.146 1.186L275 102" fill="none" stroke="#000" stroke-width="2"/>
  <path d="M292.667 71h50.666C349.667 71 356 81 356 91s-6.333 20-12.667 20h-50.666C286.333 111 280 101 280 91s6.333-20 12.667-20" fill="#fff" stroke="#000" stroke-width="2"/>
  <text y="97" x="289">
    <tspan x="312.594" y="97">X</tspan>
  </text>
  <path d="M361 91h92m-6-6l6 6-6 6" fill="none" stroke="#000" stroke-width="2"/>
  <path d="M458 57.667v66.666c0 8.334 25 16.667 50 16.667s50-8.333 50-16.667V57.667c0 8.333-25 16.666-50 16.666S458 66 458 57.667C458 49.333 483 41 508 41s50 8.333 50 16.667" fill="#fff" stroke="#000" stroke-width="2"/>
  <text y="113" x="466">
    <tspan y="113" x="472.898">database A</tspan>
  </text>
  <text y="236" x="236">
    <tspan x="240.766" y="236">Enterprise Bean Server</tspan>
  </text>
  <path fill="#fff" stroke="#000" stroke-width="2" d="M228 248h180v99H228z"/>
  <path d="M156.854 199.186l115.439 95.442 3.853 3.186M275 290l1.146 7.814L268 299" fill="none" stroke="#000" stroke-width="2"/>
  <path d="M292.667 281h50.666c6.334 0 12.667 10 12.667 20s-6.333 20-12.667 20h-50.666C286.333 321 280 311 280 301s6.333-20 12.667-20" fill="#fff" stroke="#000" stroke-width="2"/>
  <text y="307" x="289">
    <tspan x="312.594" y="307">Y</tspan>
  </text>
  <path d="M361 300.951l87-.853 5-.049M447 294l6 6.049-6 5.951" fill="none" stroke="#000" stroke-width="2"/>
  <path d="M458 266.667v66.666c0 8.334 25 16.667 50 16.667s50-8.333 50-16.667v-66.666c0 8.333-25 16.666-50 16.666s-50-8.333-50-16.666c0-8.334 25-16.667 50-16.667s50 8.333 50 16.667" fill="#fff" stroke="#000" stroke-width="2"/>
  <text y="322" x="466">
    <tspan y="322" x="473.125">database B</tspan>
  </text>
</svg>
