<svg xmlns="http://www.w3.org/2000/svg" height="293" width="477">
  <path fill="#fff" stroke="#000" stroke-width="2" d="M10 53h100v80H10z"/>
  <text y="99" x="18">
    <tspan y="99" x="40.266">Client</tspan>
  </text>
  <text y="28" x="237">
    <tspan y="28" x="241.766">Enterprise Bean Server</tspan>
  </text>
  <path fill="#fff" stroke="#000" stroke-width="2" d="M166 42h300v100H166z"/>
  <text y="79" x="176" font-style="italic">
    <tspan y="79" x="187.727">begin</tspan>
  </text>
  <path d="M115 92.966l130-.897 5-.035M244 86l6 6.034L244 98" fill="none" stroke="#000" stroke-width="2"/>
  <text y="117" x="176" font-style="italic">
    <tspan y="117" x="181.367">commit</tspan>
  </text>
  <path d="M267.667 72h50.666C324.667 72 331 82 331 92s-6.333 20-12.667 20h-50.666C261.333 112 255 102 255 92s6.333-20 12.667-20" fill="#fff" stroke="#000" stroke-width="2"/>
  <text y="98" x="264">
    <tspan y="98" x="287.594">X</tspan>
  </text>
  <path d="M292.929 117l-.786 55-.072 5m5.929-6l-5.929 6-6.071-6" fill="none" stroke="#000" stroke-width="2"/>
  <path d="M242 198.667v66.666c0 8.334 25 16.667 50 16.667s50-8.333 50-16.667v-66.666c0 8.333-25 16.666-50 16.666s-50-8.333-50-16.666c0-8.334 25-16.667 50-16.667s50 8.333 50 16.667" fill="#fff" stroke="#000" stroke-width="2"/>
  <text y="254" x="250">
    <tspan y="254" x="256.898">database A</tspan>
  </text>
  <path d="M336 92h29m-6-6l6 6-6 6" fill="none" stroke="#000" stroke-width="2"/>
  <path d="M382.167 72h48.666C436.917 72 443 82 443 92s-6.083 20-12.167 20h-48.666C376.083 112 370 102 370 92s6.083-20 12.167-20" fill="#fff" stroke="#000" stroke-width="2"/>
  <text y="98" x="379">
    <tspan y="98" x="401.094">Y</tspan>
  </text>
  <path d="M406.536 117l.393 55 .035 5m6.036-6l-6.036 6-5.964-6" fill="none" stroke="#000" stroke-width="2"/>
  <path d="M357 198.667v66.666c0 8.334 25 16.667 50 16.667s50-8.333 50-16.667v-66.666c0 8.333-25 16.666-50 16.666s-50-8.333-50-16.666c0-8.334 25-16.667 50-16.667s50 8.333 50 16.667" fill="#fff" stroke="#000" stroke-width="2"/>
  <text y="254" x="365">
    <tspan y="254" x="372.125">database B</tspan>
  </text>
</svg>
