<svg xmlns="http://www.w3.org/2000/svg" height="293" width="524">
  <path fill="#fff" stroke="#000" stroke-width="2" d="M166 42h300v100H166z"/>
  <text y="28" x="237">
    <tspan y="28" x="241.766">Enterprise Bean Server</tspan>
  </text>
  <path fill="#fff" stroke="#000" stroke-width="2" d="M10 53h100v80H10z"/>
  <text y="99" x="18">
    <tspan y="99" x="40.266">Client</tspan>
  </text>
  <path d="M110 93l103-.912L223 92m-6-6l6 6-6 6" fill="none" stroke="#000" stroke-width="2"/>
  <path d="M235.667 72h50.666C292.667 72 299 82 299 92s-6.333 20-12.667 20h-50.666C229.333 112 223 102 223 92s6.333-20 12.667-20" fill="#fff" stroke="#000" stroke-width="2"/>
  <text y="98" x="232">
    <tspan y="98" x="255.594">X</tspan>
  </text>
  <path d="M299 92h55m-6-6l6 6-6 6" fill="none" stroke="#000" stroke-width="2"/>
  <path d="M366.167 72h48.666C420.917 72 427 82 427 92s-6.083 20-12.167 20h-48.666C360.083 112 354 102 354 92s6.083-20 12.167-20" fill="#fff" stroke="#000" stroke-width="2"/>
  <text y="98" x="363">
    <tspan y="98" x="385.094">Y</tspan>
  </text>
  <path d="M200 179l-8.391-.46L192 171m-54 27.667v66.666c0 8.334 25 16.667 50 16.667s50-8.333 50-16.667v-66.666c0 8.333-25 16.666-50 16.666s-50-8.333-50-16.666c0-8.334 25-16.667 50-16.667s50 8.333 50 16.667" fill="none" stroke="#000" stroke-width="2"/>
  <text y="254" x="146">
    <tspan y="254" x="152.898">database A</tspan>
  </text>
  <path d="M257.391 115.46l-62.173 59.62-3.61 3.46" stroke="#000" stroke-width="2"/>
  <path d="M330 171l.391 7.54L322 179m-38 19.667v66.666c0 8.334 25 16.667 50 16.667s50-8.333 50-16.667v-66.666c0 8.333-25 16.666-50 16.666s-50-8.333-50-16.666c0-8.334 25-16.667 50-16.667s50 8.333 50 16.667" fill="none" stroke="#000" stroke-width="2"/>
  <text y="254" x="292">
    <tspan y="254" x="299.125">database B</tspan>
  </text>
  <path d="M264.609 115.46l62.173 59.619 3.61 3.46" stroke="#000" stroke-width="2"/>
  <path d="M459 171l.403 7.527L451 179m-38 19.667v66.666c0 8.334 25 16.667 50 16.667s50-8.333 50-16.667v-66.666c0 8.333-25 16.666-50 16.666s-50-8.333-50-16.666c0-8.334 25-16.667 50-16.667s50 8.333 50 16.667" fill="none" stroke="#000" stroke-width="2"/>
  <text y="254" x="421">
    <tspan y="254" x="428.125">database C</tspan>
  </text>
  <path d="M394.097 115.473l61.709 59.581 3.597 3.473" stroke="#000" stroke-width="2"/>
</svg>
