<svg xmlns="http://www.w3.org/2000/svg" width="345" height="378">
  <path fill="none" d="M0 0h345v378H0z"/>
  <text x="10" y="20" font-style="italic">
    <tspan>After Change:</tspan>
  </text>
  <path fill="#fff" stroke="#000" stroke-width="2" d="M42.667 122h46.666c5.834 0 11.667 8.75 11.667 17.5S95.167 157 89.333 157H42.667C36.833 157 31 148.25 31 139.5S36.833 122 42.667 122"/>
  <text x="29" y="122">
    <tspan dx="27" dy="24">a1</tspan>
  </text>
  <path fill="none" stroke="#000" stroke-width="2" d="M102.581 134.757l25.257-75.77 1.58-4.744M122 58l7.419-3.757L133 61"/>
  <path fill="#fff" stroke="#000" stroke-width="2" d="M142.667 32h46.666C195.167 32 201 40.75 201 49.5S195.167 67 189.333 67h-46.666C136.833 67 131 58.25 131 49.5S136.833 32 142.667 32"/>
  <text x="130" y="32">
    <tspan dx="25" dy="22">b11</tspan>
  </text>
  <path fill="none" stroke="#000" stroke-width="2" d="M104.412 135.845l45.765-49.035 3.411-3.656M146 83l7.588.155L154 91"/>
  <path fill="#fff" stroke="#000" stroke-width="2" d="M168.667 62h46.666C221.167 62 227 70.75 227 79.5S221.167 97 215.333 97h-46.666C162.833 97 157 88.25 157 79.5S162.833 62 168.667 62"/>
  <text x="156" y="62">
    <tspan dx="25" dy="22">b12</tspan>
  </text>
  <path fill="none" stroke="#000" stroke-width="2" d="M105.696 137.782l67.913-24.846 4.695-1.718M171 108l7.304 3.218L175 118"/>
  <path fill="#fff" stroke="#000" stroke-width="2" d="M194.667 92h46.666c5.834 0 11.667 8.75 11.667 17.5s-5.833 17.5-11.667 17.5h-46.666c-5.834 0-11.667-8.75-11.667-17.5S188.833 92 194.667 92"/>
  <text x="182" y="92">
    <tspan dx="25" dy="22">b13</tspan>
  </text>
  <path fill="none" stroke="#000" stroke-width="2" d="M106 139.5h96m-6-5.5l6 5.5-6 5.5"/>
  <path fill="#fff" stroke="#000" stroke-width="2" d="M218.667 122h46.666c5.834 0 11.667 8.75 11.667 17.5s-5.833 17.5-11.667 17.5h-46.666c-5.834 0-11.667-8.75-11.667-17.5s5.833-17.5 11.667-17.5"/>
  <text x="206" y="122">
    <tspan dx="25" dy="22">b1n-1</tspan>
  </text>
  <path fill="none" stroke="#000" stroke-width="2" d="M105.866 140.651l116.403 27.546 4.865 1.152M223 163l4.134 6.349L220 174"/>
  <path fill="#fff" stroke="#000" stroke-width="2" d="M243.667 153h46.666c5.834 0 11.667 8.75 11.667 17.5s-5.833 17.5-11.667 17.5h-46.666c-5.834 0-11.667-8.75-11.667-17.5s5.833-17.5 11.667-17.5"/>
  <text x="231" y="153">
    <tspan dx="25" dy="22">b1n</tspan>
  </text>
  <path fill="none" stroke="#000" stroke-width="2" d="M105.64 141.362l138.08 55.414 4.64 1.862M245 191l3.36 7.638L241 202"/>
  <path fill="#fff" stroke="#000" stroke-width="2" d="M264.667 183h46.666c5.834 0 11.667 8.75 11.667 17.5s-5.833 17.5-11.667 17.5h-46.666c-5.834 0-11.667-8.75-11.667-17.5s5.833-17.5 11.667-17.5"/>
  <text x="252" y="183">
    <tspan dx="25" dy="22">b2m</tspan>
  </text>
  <path fill="#fff" stroke="#000" stroke-width="2" d="M40.667 274h46.666C93.167 274 99 282.75 99 291.5S93.167 309 87.333 309H40.667C34.833 309 29 300.25 29 291.5S34.833 274 40.667 274"/>
  <text x="29" y="274">
    <tspan dx="27" dy="24">a2</tspan>
  </text>
  <path fill="none" stroke="#000" stroke-width="2" d="M103.874 290.384l116.378-26.652 4.874-1.116M218 258l7.126 4.616L221 269"/>
  <path fill="#fff" stroke="#000" stroke-width="2" d="M241.667 244h46.666c5.834 0 11.667 8.75 11.667 17.5s-5.833 17.5-11.667 17.5h-46.666c-5.834 0-11.667-8.75-11.667-17.5s5.833-17.5 11.667-17.5"/>
  <text x="229" y="244">
    <tspan dx="25" dy="22">b21</tspan>
  </text>
  <path fill="none" stroke="#000" stroke-width="2" d="M104 291.547l91 .859 5 .047M194 287l6 5.453-6 5.547"/>
  <path fill="#fff" stroke="#000" stroke-width="2" d="M216.667 275h46.666c5.834 0 11.667 8.75 11.667 17.5s-5.833 17.5-11.667 17.5h-46.666c-5.834 0-11.667-8.75-11.667-17.5s5.833-17.5 11.667-17.5"/>
  <text x="204" y="275">
    <tspan dx="25" dy="22">b22</tspan>
  </text>
  <path fill="none" stroke="#000" stroke-width="2" d="M103.677 293.268l67.97 25.696 4.676 1.768M173 313l3.323 7.732L169 324"/>
  <path fill="#fff" stroke="#000" stroke-width="2" d="M192.667 305h46.666c5.834 0 11.667 8.75 11.667 17.5s-5.833 17.5-11.667 17.5h-46.666c-5.834 0-11.667-8.75-11.667-17.5s5.833-17.5 11.667-17.5"/>
  <text x="180" y="305">
    <tspan dx="25" dy="22">b23</tspan>
  </text>
  <path fill="none" stroke="#000" stroke-width="2" d="M102.381 295.183l45.856 49.95 3.382 3.684M152 341l-.381 7.817L144 348"/>
  <path fill="#fff" stroke="#000" stroke-width="2" d="M166.667 335h46.666c5.834 0 11.667 8.75 11.667 17.5s-5.833 17.5-11.667 17.5h-46.666c-5.834 0-11.667-8.75-11.667-17.5s5.833-17.5 11.667-17.5"/>
  <text x="154" y="335">
    <tspan dx="25" dy="22">b2m-1</tspan>
  </text>
</svg>
