<svg xmlns="http://www.w3.org/2000/svg" xmlns:xlink="http://www.w3.org/1999/xlink" width="430" height="378">
  <defs>
    <path id="i" fill="none" stroke-linejoin="round" d="M-162 80l3.581-7.257L-151 76m-7.419-3.257l25.257 75.77 1.58 4.744M-128 146l-3.581 7.257L-139 150"/>
    <path id="h" fill="none" stroke-linejoin="round" d="M-137 120l.381-8.317L-129 112m-7.619-.317l45.856 49.95 3.382 3.684M-87 157l-.381 8.317L-95 165"/>
    <path id="g" fill="none" stroke-linejoin="round" d="M-122 122l-3.323-7.232L-118 111m-7.323 3.768l67.97 25.696 4.676 1.768M-56 135l3.323 7.232L-60 146"/>
    <path id="f" fill="none" stroke-linejoin="round" d="M-109 144l-6-5.953 6-6.047m-6 6.047l91 .859 5 .047M-25 133l6 5.953-6 6.047"/>
    <path id="e" fill="none" stroke-linejoin="round" d="M-63 172l-7.126-4.616L-66 161m-4.126 6.384l116.378-26.652 4.874-1.116M44 135l7.126 4.616L47 146"/>
    <path id="d" fill="none" stroke-linejoin="round" d="M-29 77l-6-5.476L-29 66m-6 5.524l91 .429 5 .023M55 66l6 5.976L55 78"/>
    <path id="c" fill="none" stroke-linejoin="round" d="M12 78l-7.295-3.193L8 68m-3.295 6.807L72.59 50.385l4.705-1.692M70 45l7.295 3.693L74 56"/>
    <path id="b" fill="none" stroke-linejoin="round" d="M56 73l-7.604-.17L48 65m.396 7.83l45.811-49.49 3.397-3.67M90 20l7.604-.33L98 28"/>
    <path id="a" fill="none" stroke-linejoin="round" d="M59 98l-7.427 3.754L48 95m3.573 6.754l25.28-76.262 1.574-4.746M71 24l7.427-3.254L82 28"/>
  </defs>
  <path fill="none" d="M0 0h430v378H0z"/>
  <text style="text-decoration-line:none" x="10.6" y="10" dominant-baseline="hanging" font-family="serif" font-size="16" font-style="italic" font-weight="400">
    <tspan x="10.6" y="10">After Change:</tspan>
  </text>
  <path fill="#fff" stroke="#000" stroke-linejoin="round" stroke-width="2" d="M74.667 126h46.666c5.834 0 11.667 8.75 11.667 17.5s-5.833 17.5-11.667 17.5H74.667C68.833 161 63 152.25 63 143.5S68.833 126 74.667 126"/>
  <text style="text-decoration-line:none" x="71" y="149" font-family="serif" font-size="16" font-weight="400">
    <tspan x="90.445" y="149">a1</tspan>
  </text>
  <path fill="#fff" stroke="#000" stroke-linejoin="round" stroke-width="2" d="M174.667 36h46.666C227.167 36 233 44.75 233 53.5S227.167 71 221.333 71h-46.666C168.833 71 163 62.25 163 53.5S168.833 36 174.667 36"/>
  <text style="text-decoration-line:none" x="172" y="59" font-family="serif" font-size="16" font-weight="400">
    <tspan x="186.891" y="59">b11</tspan>
  </text>
  <use width="100%" height="100%" stroke="red" stroke-opacity="0" stroke-width="10" transform="translate(83 37)" xlink:href="#a"/>
  <use width="100%" height="100%" stroke="#000" stroke-width="2" transform="translate(83 37)" xlink:href="#a"/>
  <text style="text-decoration-line:none" font-family="serif" font-size="16" font-weight="400">
    <textPath alignment-baseline="middle" startOffset="50%" text-anchor="middle" xlink:href="#a"> </textPath>
  </text>
  <path fill="#fff" stroke="#000" stroke-linejoin="round" stroke-width="2" d="M200.667 66h46.666C253.167 66 259 74.75 259 83.5s-5.833 17.5-11.667 17.5h-46.666C194.833 101 189 92.25 189 83.5S194.833 66 200.667 66"/>
  <text style="text-decoration-line:none" x="198" y="89" font-family="serif" font-size="16" font-weight="400">
    <tspan x="212.594" y="89">b12</tspan>
  </text>
  <path fill="#fff" stroke="#000" stroke-linejoin="round" stroke-width="2" d="M226.667 96h46.666c5.834 0 11.667 8.75 11.667 17.5s-5.833 17.5-11.667 17.5h-46.666c-5.834 0-11.667-8.75-11.667-17.5S220.833 96 226.667 96"/>
  <text style="text-decoration-line:none" x="224" y="119" font-family="serif" font-size="16" font-weight="400">
    <tspan x="238.594" y="119">b13</tspan>
  </text>
  <path fill="#fff" stroke="#000" stroke-linejoin="round" stroke-width="2" d="M250.667 126h46.666c5.834 0 11.667 8.75 11.667 17.5s-5.833 17.5-11.667 17.5h-46.666c-5.834 0-11.667-8.75-11.667-17.5s5.833-17.5 11.667-17.5"/>
  <text style="text-decoration-line:none" x="248" y="149" font-family="serif" font-size="16" font-weight="400">
    <tspan x="255.93" y="149">b1n-1</tspan>
  </text>
  <path fill="#fff" stroke="#000" stroke-linejoin="round" stroke-width="2" d="M360.667 162h46.666c5.834 0 11.667 8.75 11.667 17.5s-5.833 17.5-11.667 17.5h-46.666c-5.834 0-11.667-8.75-11.667-17.5s5.833-17.5 11.667-17.5"/>
  <text style="text-decoration-line:none" x="358" y="185" font-family="serif" font-size="16" font-weight="400">
    <tspan x="372.188" y="185">b1n</tspan>
  </text>
  <use width="100%" height="100%" stroke="red" stroke-opacity="0" stroke-width="10" transform="translate(88 67)" xlink:href="#b"/>
  <use width="100%" height="100%" stroke="#000" stroke-width="2" transform="translate(88 67)" xlink:href="#b"/>
  <text style="text-decoration-line:none" font-family="serif" font-size="16" font-weight="400">
    <textPath alignment-baseline="middle" startOffset="50%" text-anchor="middle" xlink:href="#b"> </textPath>
  </text>
  <use width="100%" height="100%" stroke="red" stroke-opacity="0" stroke-width="10" transform="translate(133 67)" xlink:href="#c"/>
  <use width="100%" height="100%" stroke="#000" stroke-width="2" transform="translate(133 67)" xlink:href="#c"/>
  <text style="text-decoration-line:none" font-family="serif" font-size="16" font-weight="400">
    <textPath alignment-baseline="middle" startOffset="50%" text-anchor="middle" xlink:href="#c"> </textPath>
  </text>
  <use width="100%" height="100%" stroke="red" stroke-opacity="0" stroke-width="10" transform="translate(173 72)" xlink:href="#d"/>
  <use width="100%" height="100%" stroke="#000" stroke-width="2" transform="translate(173 72)" xlink:href="#d"/>
  <text style="text-decoration-line:none" font-family="serif" font-size="16" font-weight="400">
    <textPath alignment-baseline="middle" startOffset="50%" text-anchor="middle" xlink:href="#d"> </textPath>
  </text>
  <use width="100%" height="100%" stroke="red" stroke-opacity="0" stroke-width="10" transform="translate(208 91)" xlink:href="#e"/>
  <use width="100%" height="100%" stroke="#000" stroke-width="2" transform="translate(208 91)" xlink:href="#e"/>
  <text style="text-decoration-line:none" font-family="serif" font-size="16" font-weight="400">
    <textPath alignment-baseline="middle" startOffset="50%" text-anchor="middle" xlink:href="#e"> </textPath>
  </text>
  <path fill="#fff" stroke="#000" stroke-linejoin="round" stroke-width="2" d="M74.667 242h46.666c5.834 0 11.667 8.75 11.667 17.5s-5.833 17.5-11.667 17.5H74.667C68.833 277 63 268.25 63 259.5S68.833 242 74.667 242"/>
  <text style="text-decoration-line:none" x="71" y="265" font-family="serif" font-size="16" font-weight="400">
    <tspan x="90.445" y="265">a2</tspan>
  </text>
  <path fill="#fff" stroke="#000" stroke-linejoin="round" stroke-width="2" d="M275.667 212h46.666c5.834 0 11.667 8.75 11.667 17.5s-5.833 17.5-11.667 17.5h-46.666c-5.834 0-11.667-8.75-11.667-17.5s5.833-17.5 11.667-17.5"/>
  <text style="text-decoration-line:none" x="273" y="235" font-family="serif" font-size="16" font-weight="400">
    <tspan x="287.594" y="235">b21</tspan>
  </text>
  <path fill="#fff" stroke="#000" stroke-linejoin="round" stroke-width="2" d="M250.667 243h46.666c5.834 0 11.667 8.75 11.667 17.5s-5.833 17.5-11.667 17.5h-46.666c-5.834 0-11.667-8.75-11.667-17.5s5.833-17.5 11.667-17.5"/>
  <text style="text-decoration-line:none" x="248" y="266" font-family="serif" font-size="16" font-weight="400">
    <tspan x="262.594" y="266">b22</tspan>
  </text>
  <path fill="#fff" stroke="#000" stroke-linejoin="round" stroke-width="2" d="M226.667 273h46.666c5.834 0 11.667 8.75 11.667 17.5s-5.833 17.5-11.667 17.5h-46.666c-5.834 0-11.667-8.75-11.667-17.5s5.833-17.5 11.667-17.5"/>
  <text style="text-decoration-line:none" x="224" y="296" font-family="serif" font-size="16" font-weight="400">
    <tspan x="238.594" y="296">b23</tspan>
  </text>
  <path fill="#fff" stroke="#000" stroke-linejoin="round" stroke-width="2" d="M200.667 303h46.666c5.834 0 11.667 8.75 11.667 17.5s-5.833 17.5-11.667 17.5h-46.666c-5.834 0-11.667-8.75-11.667-17.5s5.833-17.5 11.667-17.5"/>
  <text style="text-decoration-line:none" x="198" y="326" font-family="serif" font-size="16" font-weight="400">
    <tspan x="203.703" y="326">b2m-1</tspan>
  </text>
  <path fill="#fff" stroke="#000" stroke-linejoin="round" stroke-width="2" d="M174.667 332h46.666c5.834 0 11.667 8.75 11.667 17.5s-5.833 17.5-11.667 17.5h-46.666c-5.834 0-11.667-8.75-11.667-17.5s5.833-17.5 11.667-17.5"/>
  <text style="text-decoration-line:none" x="172" y="355" font-family="serif" font-size="16" font-weight="400">
    <tspan x="184.188" y="355">b2m</tspan>
  </text>
  <use width="100%" height="100%" stroke="red" stroke-opacity="0" stroke-width="10" transform="translate(253 121)" xlink:href="#f"/>
  <use width="100%" height="100%" stroke="#000" stroke-width="2" transform="translate(253 121)" xlink:href="#f"/>
  <text style="text-decoration-line:none" font-family="serif" font-size="16" font-weight="400">
    <textPath alignment-baseline="middle" startOffset="50%" text-anchor="middle" xlink:href="#f"> </textPath>
  </text>
  <use width="100%" height="100%" stroke="red" stroke-opacity="0" stroke-width="10" transform="translate(263 146)" xlink:href="#g"/>
  <use width="100%" height="100%" stroke="#000" stroke-width="2" transform="translate(263 146)" xlink:href="#g"/>
  <text style="text-decoration-line:none" font-family="serif" font-size="16" font-weight="400">
    <textPath alignment-baseline="middle" startOffset="50%" text-anchor="middle" xlink:href="#g"> </textPath>
  </text>
  <use width="100%" height="100%" stroke="red" stroke-opacity="0" stroke-width="10" transform="translate(273 151)" xlink:href="#h"/>
  <use width="100%" height="100%" stroke="#000" stroke-width="2" transform="translate(273 151)" xlink:href="#h"/>
  <text style="text-decoration-line:none" font-family="serif" font-size="16" font-weight="400">
    <textPath alignment-baseline="middle" startOffset="50%" text-anchor="middle" xlink:href="#h"> </textPath>
  </text>
  <use width="100%" height="100%" stroke="red" stroke-opacity="0" stroke-width="10" transform="translate(293 191)" xlink:href="#i"/>
  <use width="100%" height="100%" stroke="#000" stroke-width="2" transform="translate(293 191)" xlink:href="#i"/>
  <text style="text-decoration-line:none" font-family="serif" font-size="16" font-weight="400">
    <textPath alignment-baseline="middle" startOffset="50%" text-anchor="middle" xlink:href="#i"> </textPath>
  </text>
</svg>
