<svg xmlns="http://www.w3.org/2000/svg" xmlns:xlink="http://www.w3.org/1999/xlink" width="600" height="546">
  <defs>
    <path id="d" fill="none" stroke-linejoin="round" d="M-16.535-34.75L227.07 88l4.465 2.25M229 83l2.535 7.25L224 93"/>
    <path id="c" fill="none" stroke-linejoin="round" d="M64.802-16.608l242.593 70.324 4.803 1.392M308 48l4.198 7.108L305 59"/>
    <path id="b" fill="none" stroke-linejoin="round" d="M48.802 7.608l242.593-70.324 4.803-1.392M289-68l7.198 3.892L292-57"/>
    <path id="a" fill="none" stroke-linejoin="round" d="M-27.528 124.764L216.056 2.972l4.472-2.236M213-2l7.528 2.736L218 8"/>
  </defs>
  <path fill="none" d="M0 0h600v546H0z"/>
  <rect width="225" height="525" x="364" y="10" fill="#fff" stroke="#000" stroke-linejoin="round" stroke-width="2" rx="28.125" ry="28.125"/>
  <rect width="175" height="188" x="378" y="263" fill="#fff" stroke="#000" stroke-linejoin="round" stroke-width="2" rx="21.875" ry="21.875"/>
  <rect width="175" height="188" x="378" y="49" fill="#fff" stroke="#000" stroke-linejoin="round" stroke-width="2" rx="21.875" ry="21.875"/>
  <path fill="#fff" stroke="#000" stroke-linejoin="round" stroke-width="2" d="M367.833 69h83.334C461.583 69 472 77.75 472 86.5S461.583 104 451.167 104h-83.334C357.417 104 347 95.25 347 86.5S357.417 69 367.833 69"/>
  <path fill="#fff" stroke="#000" stroke-linejoin="round" stroke-width="2" d="M357.833 79h83.334C451.583 79 462 87.75 462 96.5S451.583 114 441.167 114h-83.334C347.417 114 337 105.25 337 96.5S347.417 79 357.833 79"/>
  <path fill="#fff" stroke="#000" stroke-linejoin="round" stroke-width="2" d="M347.833 89h83.334C441.583 89 452 97.75 452 106.5S441.583 124 431.167 124h-83.334C337.417 124 327 115.25 327 106.5S337.417 89 347.833 89"/>
  <text style="text-decoration-line:none" x="335" y="112" font-family="serif" font-size="16" font-weight="400">
    <tspan x="351.633" y="112">EJBObjects</tspan>
  </text>
  <path fill="#fff" stroke="#000" stroke-linejoin="round" stroke-width="2" d="M367.833 283h83.334c10.416 0 20.833 8.75 20.833 17.5S461.583 318 451.167 318h-83.334C357.417 318 347 309.25 347 300.5s10.417-17.5 20.833-17.5"/>
  <path fill="#fff" stroke="#000" stroke-linejoin="round" stroke-width="2" d="M357.833 292h83.334c10.416 0 20.833 8.75 20.833 17.5S451.583 327 441.167 327h-83.334C347.417 327 337 318.25 337 309.5s10.417-17.5 20.833-17.5"/>
  <path fill="#fff" stroke="#000" stroke-linejoin="round" stroke-width="2" d="M347.833 302h83.334c10.416 0 20.833 8.75 20.833 17.5S441.583 337 431.167 337h-83.334C337.417 337 327 328.25 327 319.5s10.417-17.5 20.833-17.5"/>
  <text style="text-decoration-line:none" x="335" y="325" font-family="serif" font-size="16" font-weight="400">
    <tspan x="333.422" y="325">EJBLocalObjects</tspan>
  </text>
  <path fill="#fff" stroke="#000" stroke-linejoin="round" stroke-width="2" d="M347.833 153h83.334c10.416 0 20.833 8.75 20.833 17.5S441.583 188 431.167 188h-83.334C337.417 188 327 179.25 327 170.5s10.417-17.5 20.833-17.5"/>
  <text style="text-decoration-line:none" x="335" y="176" font-family="serif" font-size="16" font-weight="400">
    <tspan x="356.563" y="176">EJBHome</tspan>
  </text>
  <path fill="#fff" stroke="#000" stroke-linejoin="round" stroke-width="2" d="M347.833 367h83.334c10.416 0 20.833 8.75 20.833 17.5S441.583 402 431.167 402h-83.334C337.417 402 327 393.25 327 384.5s10.417-17.5 20.833-17.5"/>
  <text style="text-decoration-line:none" x="335" y="390" font-family="serif" font-size="16" font-weight="400">
    <tspan x="338.352" y="390">EJBLocalHome</tspan>
  </text>
  <path fill="#fff" d="M396 201h100v20H396z"/>
  <text style="text-decoration-line:none" x="404" y="217" font-family="serif" font-size="16" font-weight="400">
    <tspan x="404.68" y="217">entity bean 1</tspan>
  </text>
  <path fill="#fff" d="M396 414h100v20H396z"/>
  <text style="text-decoration-line:none" x="404" y="430" font-family="serif" font-size="16" font-weight="400">
    <tspan x="404.68" y="430">entity bean 2</tspan>
  </text>
  <path fill="#fff" d="M391 477h160v20H391z"/>
  <text style="text-decoration-line:none" x="399" y="493" font-family="serif" font-size="16" font-weight="400">
    <tspan x="400.719" y="493">other enterprise beans</tspan>
  </text>
  <path fill="#fff" d="M20 235h50v20H20z"/>
  <text style="text-decoration-line:none" x="28" y="251" font-family="serif" font-size="16" font-weight="400">
    <tspan x="27.047" y="251">client</tspan>
  </text>
  <use width="100%" height="100%" stroke="red" stroke-opacity="0" stroke-width="10" transform="translate(102 108)" xlink:href="#a"/>
  <use width="100%" height="100%" stroke="#000" stroke-width="2" transform="translate(102 108)" xlink:href="#a"/>
  <text style="text-decoration-line:none" font-family="serif" font-size="16" font-weight="400">
    <textPath alignment-baseline="middle" startOffset="50%" text-anchor="middle" xlink:href="#a"> </textPath>
  </text>
  <use width="100%" height="100%" stroke="red" stroke-opacity="0" stroke-width="10" transform="translate(26 236)" xlink:href="#b"/>
  <use width="100%" height="100%" stroke="#000" stroke-width="2" transform="translate(26 236)" xlink:href="#b"/>
  <text style="text-decoration-line:none" font-family="serif" font-size="16" font-weight="400">
    <textPath alignment-baseline="middle" startOffset="50%" text-anchor="middle" xlink:href="#b"> </textPath>
  </text>
  <use width="100%" height="100%" stroke="red" stroke-opacity="0" stroke-width="10" transform="translate(10 263)" xlink:href="#c"/>
  <use width="100%" height="100%" stroke="#000" stroke-width="2" transform="translate(10 263)" xlink:href="#c"/>
  <text style="text-decoration-line:none" font-family="serif" font-size="16" font-weight="400">
    <textPath alignment-baseline="middle" startOffset="50%" text-anchor="middle" xlink:href="#c"> </textPath>
  </text>
  <use width="100%" height="100%" stroke="red" stroke-opacity="0" stroke-width="10" transform="translate(91 292)" xlink:href="#d"/>
  <use width="100%" height="100%" stroke="#000" stroke-width="2" transform="translate(91 292)" xlink:href="#d"/>
  <text style="text-decoration-line:none" font-family="serif" font-size="16" font-weight="400">
    <textPath alignment-baseline="middle" startOffset="50%" text-anchor="middle" xlink:href="#d"> </textPath>
  </text>
  <path fill="#fff" d="M396 22h150v20H396z"/>
  <text style="text-decoration-line:none" x="404" y="38" font-family="serif" font-size="16" font-weight="400">
    <tspan x="440.695" y="38">container</tspan>
  </text>
</svg>
