<svg xmlns="http://www.w3.org/2000/svg" xmlns:xlink="http://www.w3.org/1999/xlink" width="396" height="351">
  <defs>
    <path id="c" fill="none" stroke-linejoin="round" d="M52 81.5h94m-6-5.5l6 5.5-6 5.5"/>
    <path id="b" fill="none" stroke-linejoin="round" d="M57 48.5h94m-6-5.5l6 5.5-6 5.5"/>
    <path id="a" fill="none" stroke-linejoin="round" d="M16 40h106m-6-6l6 6-6 6"/>
  </defs>
  <path fill="none" d="M0 0h396v351H0z"/>
  <path fill="#fff" d="M11 10h375v20H11z"/>
  <text style="text-decoration-line:none" x="20" y="26" font-family="serif" font-size="16" font-weight="400">
    <tspan x="22.258" y="26">A and B are in a one-to-one unidirectional relationship:</tspan>
  </text>
  <path fill="#fff" stroke="#000" stroke-linejoin="round" stroke-width="2" d="M44 72h100v80H44z"/>
  <text style="text-decoration-line:none" x="53" y="118" font-family="serif" font-size="16" font-weight="400">
    <tspan x="88.594" y="118">A</tspan>
  </text>
  <use width="100%" height="100%" stroke="red" stroke-opacity="0" stroke-width="10" transform="translate(133 72)" xlink:href="#a"/>
  <use width="100%" height="100%" stroke="#000" stroke-width="2" transform="translate(133 72)" xlink:href="#a"/>
  <text style="text-decoration-line:none" font-family="serif" font-size="16" font-weight="400">
    <textPath alignment-baseline="middle" startOffset="50%" text-anchor="middle" xlink:href="#a"> </textPath>
  </text>
  <path fill="#fff" stroke="#000" stroke-linejoin="round" stroke-width="2" d="M260 72h100v80H260z"/>
  <text style="text-decoration-line:none" x="268" y="118" font-family="serif" font-size="16" font-weight="400">
    <tspan x="304.664" y="118">B</tspan>
  </text>
  <text dominant-baseline="hanging" style="text-decoration-line:none" x="152.6" y="86" font-family="serif" font-size="16" font-weight="400">
    <tspan x="152.6" y="86">0..1</tspan>
  </text>
  <text dominant-baseline="hanging" style="text-decoration-line:none" x="226.6" y="86" font-family="serif" font-size="16" font-weight="400">
    <tspan x="226.6" y="86">0..1</tspan>
  </text>
  <text dominant-baseline="hanging" style="text-decoration-line:none" x="21.6" y="185" font-family="serif" font-size="16" font-style="italic" font-weight="400">
    <tspan x="21.6" y="185">Before Change:</tspan>
  </text>
  <path fill="#fff" stroke="#000" stroke-linejoin="round" stroke-width="2" d="M87.667 232h46.666c5.834 0 11.667 8.75 11.667 17.5s-5.833 17.5-11.667 17.5H87.667C81.833 267 76 258.25 76 249.5S81.833 232 87.667 232"/>
  <text style="text-decoration-line:none" x="84" y="255" font-family="serif" font-size="16" font-weight="400">
    <tspan x="103.445" y="255">a1</tspan>
  </text>
  <path fill="#fff" stroke="#000" stroke-linejoin="round" stroke-width="2" d="M261.667 232h46.666c5.834 0 11.667 8.75 11.667 17.5s-5.833 17.5-11.667 17.5h-46.666c-5.834 0-11.667-8.75-11.667-17.5s5.833-17.5 11.667-17.5"/>
  <text style="text-decoration-line:none" x="259" y="255" font-family="serif" font-size="16" font-weight="400">
    <tspan x="277.594" y="255">b1</tspan>
  </text>
  <path fill="#fff" stroke="#000" stroke-linejoin="round" stroke-width="2" d="M87.667 305h46.666c5.834 0 11.667 8.75 11.667 17.5s-5.833 17.5-11.667 17.5H87.667C81.833 340 76 331.25 76 322.5S81.833 305 87.667 305"/>
  <text style="text-decoration-line:none" x="84" y="328" font-family="serif" font-size="16" font-weight="400">
    <tspan x="103.445" y="328">a2</tspan>
  </text>
  <path fill="#fff" stroke="#000" stroke-linejoin="round" stroke-width="2" d="M261.667 305h46.666c5.834 0 11.667 8.75 11.667 17.5s-5.833 17.5-11.667 17.5h-46.666c-5.834 0-11.667-8.75-11.667-17.5s5.833-17.5 11.667-17.5"/>
  <text style="text-decoration-line:none" x="259" y="328" font-family="serif" font-size="16" font-weight="400">
    <tspan x="277.594" y="328">b2</tspan>
  </text>
  <use width="100%" height="100%" stroke="red" stroke-opacity="0" stroke-width="10" transform="translate(94 201)" xlink:href="#b"/>
  <use width="100%" height="100%" stroke="#000" stroke-width="2" transform="translate(94 201)" xlink:href="#b"/>
  <text style="text-decoration-line:none" font-family="serif" font-size="16" font-weight="400">
    <textPath alignment-baseline="middle" startOffset="50%" text-anchor="middle" xlink:href="#b"> </textPath>
  </text>
  <use width="100%" height="100%" stroke="red" stroke-opacity="0" stroke-width="10" transform="translate(99 241)" xlink:href="#c"/>
  <use width="100%" height="100%" stroke="#000" stroke-width="2" transform="translate(99 241)" xlink:href="#c"/>
  <text style="text-decoration-line:none" font-family="serif" font-size="16" font-weight="400">
    <textPath alignment-baseline="middle" startOffset="50%" text-anchor="middle" xlink:href="#c"> </textPath>
  </text>
</svg>
