<svg xmlns="http://www.w3.org/2000/svg" xmlns:xlink="http://www.w3.org/1999/xlink" width="556" height="209">
  <defs>
    <path id="d" fill="none" d="M305.033 1.678l70.305 18.746L385 23"/>
    <path id="c" fill="none" d="M190.033-9.322l44.595 17.07 9.339 3.574"/>
    <path id="b" fill="none" d="M167 3l71.367 80.517L245 91"/>
    <path id="a" fill="none" d="M113.967-4.322L78.784 81.744 75 91"/>
  </defs>
  <path fill="none" d="M0 0h556v209H0z"/>
  <ellipse cx="177" cy="35" fill="#fff" stroke="#000" stroke-width="2" rx="75" ry="25"/>
  <text x="110" y="41">
    <tspan x="157.805" y="41">Order</tspan>
  </text>
  <ellipse cx="85" cy="173" fill="#fff" stroke="#000" stroke-width="2" rx="75" ry="25"/>
  <text x="18" y="179">
    <tspan x="29.797" y="179">ShippingAddress</tspan>
  </text>
  <ellipse cx="255" cy="173" fill="#fff" stroke="#000" stroke-width="2" rx="75" ry="25"/>
  <text x="188" y="179">
    <tspan x="206.461" y="179">BillingAddress</tspan>
  </text>
  <ellipse cx="337" cy="91" fill="#fff" stroke="#000" stroke-width="2" rx="75" ry="25"/>
  <text x="270" y="97">
    <tspan x="307.5" y="97">LineItem</tspan>
  </text>
  <ellipse cx="470" cy="155" fill="#fff" stroke="#000" stroke-width="2" rx="75" ry="25"/>
  <text x="403" y="161">
    <tspan x="444.93" y="161">Product</tspan>
  </text>
  <use width="100%" height="100%" stroke="red" stroke-opacity="0" stroke-width="10" transform="translate(10 57)" xlink:href="#a"/>
  <use width="100%" height="100%" stroke="#000" stroke-width="2" transform="translate(10 57)" xlink:href="#a"/>
  <text>
    <textPath alignment-baseline="middle" startOffset="50%" text-anchor="middle" xlink:href="#a"> </textPath>
  </text>
  <use width="100%" height="100%" stroke="red" stroke-opacity="0" stroke-width="10" transform="translate(10 57)" xlink:href="#b"/>
  <use width="100%" height="100%" stroke="#000" stroke-width="2" transform="translate(10 57)" xlink:href="#b"/>
  <text>
    <textPath alignment-baseline="middle" startOffset="50%" text-anchor="middle" xlink:href="#b"> </textPath>
  </text>
  <use width="100%" height="100%" stroke="red" stroke-opacity="0" stroke-width="10" transform="translate(40 62)" xlink:href="#c"/>
  <use width="100%" height="100%" stroke="#000" stroke-width="2" transform="translate(40 62)" xlink:href="#c"/>
  <text>
    <textPath alignment-baseline="middle" startOffset="50%" text-anchor="middle" xlink:href="#c"> </textPath>
  </text>
  <use width="100%" height="100%" stroke="red" stroke-opacity="0" stroke-width="10" transform="translate(85 107)" xlink:href="#d"/>
  <use width="100%" height="100%" stroke="#000" stroke-width="2" transform="translate(85 107)" xlink:href="#d"/>
  <text>
    <textPath alignment-baseline="middle" startOffset="50%" text-anchor="middle" xlink:href="#d"> </textPath>
  </text>
  <text x="74" y="127" dominant-baseline="hanging">
    <tspan x="74" y="127">1</tspan>
  </text>
  <text x="223" y="129" dominant-baseline="hanging">
    <tspan x="223" y="129">1</tspan>
  </text>
  <text x="251" y="43" dominant-baseline="hanging">
    <tspan x="251" y="43">1</tspan>
  </text>
  <text x="464" y="112" dominant-baseline="hanging">
    <tspan x="464" y="112">1</tspan>
  </text>
  <text x="280" y="55" dominant-baseline="hanging">
    <tspan x="280" y="55">m</tspan>
  </text>
  <text x="411" y="98" dominant-baseline="hanging">
    <tspan x="411" y="98">m</tspan>
  </text>
  <text x="164" y="61" dominant-baseline="hanging">
    <tspan x="164" y="61">m</tspan>
  </text>
  <text x="99" y="55" dominant-baseline="hanging">
    <tspan x="99" y="55">m</tspan>
  </text>
</svg>
