<svg xmlns="http://www.w3.org/2000/svg" xmlns:xlink="http://www.w3.org/1999/xlink" width="320" height="176">
  <path fill="none" d="M0 0h320v176H0z"/>
  <text dominant-baseline="hanging" font-family="serif" font-size="16" font-weight="400" font-style="italic" transform="translate(10.6 10)">
    <tspan x="0" y="0">After Change:</tspan>
  </text>
  <path d="M76.667 57h46.666C129.167 57 135 65.75 135 74.5S129.167 92 123.333 92H76.667C70.833 92 65 83.25 65 74.5S70.833 57 76.667 57" stroke-linejoin="round" stroke="#000" stroke-width="2" fill="#fff"/>
  <text transform="translate(73 80)" font-family="serif" font-size="16" font-weight="400">
    <tspan x="19.445" y="0">a1</tspan>
  </text>
  <path d="M250.667 57h46.666C303.167 57 309 65.75 309 74.5S303.167 92 297.333 92h-46.666C244.833 92 239 83.25 239 74.5S244.833 57 250.667 57" stroke-linejoin="round" stroke="#000" stroke-width="2" fill="#fff"/>
  <text transform="translate(248 80)" font-family="serif" font-size="16" font-weight="400">
    <tspan x="18.68" y="0">b1</tspan>
  </text>
  <path d="M76.667 130h46.666c5.834 0 11.667 8.75 11.667 17.5s-5.833 17.5-11.667 17.5H76.667C70.833 165 65 156.25 65 147.5S70.833 130 76.667 130" stroke-linejoin="round" stroke="#000" stroke-width="2" fill="#fff"/>
  <text transform="translate(73 153)" font-family="serif" font-size="16" font-weight="400">
    <tspan x="19.445" y="0">a2</tspan>
  </text>
  <path d="M250.667 130h46.666c5.834 0 11.667 8.75 11.667 17.5s-5.833 17.5-11.667 17.5h-46.666c-5.834 0-11.667-8.75-11.667-17.5s5.833-17.5 11.667-17.5" stroke-linejoin="round" stroke="#000" stroke-width="2" fill="#fff"/>
  <text transform="translate(248 153)" font-family="serif" font-size="16" font-weight="400">
    <tspan x="18.68" y="0">b2</tspan>
  </text>
  <g transform="translate(83 26)">
    <defs>
      <path id="a" d="M57 59l-.917-7.614L64 50m-7.917 1.386l91.75 64.843 4.084 2.885M151 111l.917 8.114L144 120" stroke-linejoin="round" fill="none"/>
    </defs>
    <use xlink:href="#a" stroke-width="10" stroke-opacity="0" stroke="red"/>
    <use xlink:href="#a" stroke="#000" stroke-width="2"/>
    <text font-family="serif" font-size="16" font-weight="400">
      <textPath xlink:href="#a" startOffset="50%" text-anchor="middle" alignment-baseline="middle"> </textPath>
    </text>
  </g>
</svg>
