<svg xmlns="http://www.w3.org/2000/svg" xmlns:xlink="http://www.w3.org/1999/xlink" width="345" height="378">
  <defs>
    <path id="j" fill="none" stroke-linejoin="round" d="M-70.36-127.638L67.72-72.224l4.64 1.862M69-78l3.36 7.638L65-67"/>
    <path id="i" fill="none" stroke-linejoin="round" d="M-36.619 15.183l45.856 49.95 3.382 3.684M13 61l-.381 7.817L5 68"/>
    <path id="h" fill="none" stroke-linejoin="round" d="M4.677 18.268l67.97 25.696 4.676 1.768M74 38l3.323 7.732L70 49"/>
    <path id="g" fill="none" stroke-linejoin="round" d="M50 16.547l91 .859 5 .047M140 12l6 5.453L140 23"/>
    <path id="f" fill="none" stroke-linejoin="round" d="M54.874 45.384l116.378-26.652 4.874-1.116M169 13l7.126 4.616L172 24"/>
    <path id="e" fill="none" stroke-linejoin="round" d="M-70.134 47.651L46.269 75.197l4.865 1.152M47 70l4.134 6.349L44 81"/>
    <path id="d" fill="none" stroke-linejoin="round" d="M-35 71.5h96M55 66l6 5.5-6 5.5"/>
    <path id="c" fill="none" stroke-linejoin="round" d="M4.696 74.782l67.913-24.846 4.695-1.718M70 45l7.304 3.218L74 55"/>
    <path id="b" fill="none" stroke-linejoin="round" d="M48.412 72.845L94.177 23.81l3.411-3.656M90 20l7.588.155L98 28"/>
    <path id="a" fill="none" stroke-linejoin="round" d="M51.581 101.757l25.257-75.77 1.58-4.744M71 25l7.419-3.757L82 28"/>
  </defs>
  <path fill="none" d="M0 0h345v378H0z"/>
  <text style="text-decoration-line:none" x="10.6" y="10" dominant-baseline="hanging" font-family="serif" font-size="16" font-style="italic" font-weight="400">
    <tspan x="10.6" y="10">After Change:</tspan>
  </text>
  <path fill="#fff" stroke="#000" stroke-linejoin="round" stroke-width="2" d="M42.667 122h46.666c5.834 0 11.667 8.75 11.667 17.5S95.167 157 89.333 157H42.667C36.833 157 31 148.25 31 139.5S36.833 122 42.667 122"/>
  <text style="text-decoration-line:none" x="39" y="145" font-family="serif" font-size="16" font-weight="400">
    <tspan x="58.445" y="145">a1</tspan>
  </text>
  <path fill="#fff" stroke="#000" stroke-linejoin="round" stroke-width="2" d="M142.667 32h46.666C195.167 32 201 40.75 201 49.5S195.167 67 189.333 67h-46.666C136.833 67 131 58.25 131 49.5S136.833 32 142.667 32"/>
  <text style="text-decoration-line:none" x="140" y="55" font-family="serif" font-size="16" font-weight="400">
    <tspan x="154.891" y="55">b11</tspan>
  </text>
  <use width="100%" height="100%" stroke="red" stroke-opacity="0" stroke-width="10" transform="translate(51 33)" xlink:href="#a"/>
  <use width="100%" height="100%" stroke="#000" stroke-width="2" transform="translate(51 33)" xlink:href="#a"/>
  <text style="text-decoration-line:none" font-family="serif" font-size="16" font-weight="400">
    <textPath alignment-baseline="middle" startOffset="50%" text-anchor="middle" xlink:href="#a"> </textPath>
  </text>
  <path fill="#fff" stroke="#000" stroke-linejoin="round" stroke-width="2" d="M168.667 62h46.666C221.167 62 227 70.75 227 79.5S221.167 97 215.333 97h-46.666C162.833 97 157 88.25 157 79.5S162.833 62 168.667 62"/>
  <text style="text-decoration-line:none" x="166" y="85" font-family="serif" font-size="16" font-weight="400">
    <tspan x="180.594" y="85">b12</tspan>
  </text>
  <path fill="#fff" stroke="#000" stroke-linejoin="round" stroke-width="2" d="M194.667 92h46.666c5.834 0 11.667 8.75 11.667 17.5s-5.833 17.5-11.667 17.5h-46.666c-5.834 0-11.667-8.75-11.667-17.5S188.833 92 194.667 92"/>
  <text style="text-decoration-line:none" x="192" y="115" font-family="serif" font-size="16" font-weight="400">
    <tspan x="206.594" y="115">b13</tspan>
  </text>
  <path fill="#fff" stroke="#000" stroke-linejoin="round" stroke-width="2" d="M218.667 122h46.666c5.834 0 11.667 8.75 11.667 17.5s-5.833 17.5-11.667 17.5h-46.666c-5.834 0-11.667-8.75-11.667-17.5s5.833-17.5 11.667-17.5"/>
  <text style="text-decoration-line:none" x="216" y="145" font-family="serif" font-size="16" font-weight="400">
    <tspan x="223.93" y="145">b1n-1</tspan>
  </text>
  <path fill="#fff" stroke="#000" stroke-linejoin="round" stroke-width="2" d="M243.667 153h46.666c5.834 0 11.667 8.75 11.667 17.5s-5.833 17.5-11.667 17.5h-46.666c-5.834 0-11.667-8.75-11.667-17.5s5.833-17.5 11.667-17.5"/>
  <text style="text-decoration-line:none" x="241" y="176" font-family="serif" font-size="16" font-weight="400">
    <tspan x="255.188" y="176">b1n</tspan>
  </text>
  <use width="100%" height="100%" stroke="red" stroke-opacity="0" stroke-width="10" transform="translate(56 63)" xlink:href="#b"/>
  <use width="100%" height="100%" stroke="#000" stroke-width="2" transform="translate(56 63)" xlink:href="#b"/>
  <text style="text-decoration-line:none" font-family="serif" font-size="16" font-weight="400">
    <textPath alignment-baseline="middle" startOffset="50%" text-anchor="middle" xlink:href="#b"> </textPath>
  </text>
  <use width="100%" height="100%" stroke="red" stroke-opacity="0" stroke-width="10" transform="translate(101 63)" xlink:href="#c"/>
  <use width="100%" height="100%" stroke="#000" stroke-width="2" transform="translate(101 63)" xlink:href="#c"/>
  <text style="text-decoration-line:none" font-family="serif" font-size="16" font-weight="400">
    <textPath alignment-baseline="middle" startOffset="50%" text-anchor="middle" xlink:href="#c"> </textPath>
  </text>
  <use width="100%" height="100%" stroke="red" stroke-opacity="0" stroke-width="10" transform="translate(141 68)" xlink:href="#d"/>
  <use width="100%" height="100%" stroke="#000" stroke-width="2" transform="translate(141 68)" xlink:href="#d"/>
  <text style="text-decoration-line:none" font-family="serif" font-size="16" font-weight="400">
    <textPath alignment-baseline="middle" startOffset="50%" text-anchor="middle" xlink:href="#d"> </textPath>
  </text>
  <use width="100%" height="100%" stroke="red" stroke-opacity="0" stroke-width="10" transform="translate(176 93)" xlink:href="#e"/>
  <use width="100%" height="100%" stroke="#000" stroke-width="2" transform="translate(176 93)" xlink:href="#e"/>
  <text style="text-decoration-line:none" font-family="serif" font-size="16" font-weight="400">
    <textPath alignment-baseline="middle" startOffset="50%" text-anchor="middle" xlink:href="#e"> </textPath>
  </text>
  <path fill="#fff" stroke="#000" stroke-linejoin="round" stroke-width="2" d="M40.667 274h46.666C93.167 274 99 282.75 99 291.5S93.167 309 87.333 309H40.667C34.833 309 29 300.25 29 291.5S34.833 274 40.667 274"/>
  <text style="text-decoration-line:none" x="37" y="297" font-family="serif" font-size="16" font-weight="400">
    <tspan x="56.445" y="297">a2</tspan>
  </text>
  <path fill="#fff" stroke="#000" stroke-linejoin="round" stroke-width="2" d="M241.667 244h46.666c5.834 0 11.667 8.75 11.667 17.5s-5.833 17.5-11.667 17.5h-46.666c-5.834 0-11.667-8.75-11.667-17.5s5.833-17.5 11.667-17.5"/>
  <text style="text-decoration-line:none" x="239" y="267" font-family="serif" font-size="16" font-weight="400">
    <tspan x="253.594" y="267">b21</tspan>
  </text>
  <use width="100%" height="100%" stroke="red" stroke-opacity="0" stroke-width="10" transform="translate(49 245)" xlink:href="#f"/>
  <use width="100%" height="100%" stroke="#000" stroke-width="2" transform="translate(49 245)" xlink:href="#f"/>
  <text style="text-decoration-line:none" font-family="serif" font-size="16" font-weight="400">
    <textPath alignment-baseline="middle" startOffset="50%" text-anchor="middle" xlink:href="#f"> </textPath>
  </text>
  <path fill="#fff" stroke="#000" stroke-linejoin="round" stroke-width="2" d="M216.667 275h46.666c5.834 0 11.667 8.75 11.667 17.5s-5.833 17.5-11.667 17.5h-46.666c-5.834 0-11.667-8.75-11.667-17.5s5.833-17.5 11.667-17.5"/>
  <text style="text-decoration-line:none" x="214" y="298" font-family="serif" font-size="16" font-weight="400">
    <tspan x="228.594" y="298">b22</tspan>
  </text>
  <path fill="#fff" stroke="#000" stroke-linejoin="round" stroke-width="2" d="M192.667 305h46.666c5.834 0 11.667 8.75 11.667 17.5s-5.833 17.5-11.667 17.5h-46.666c-5.834 0-11.667-8.75-11.667-17.5s5.833-17.5 11.667-17.5"/>
  <text style="text-decoration-line:none" x="190" y="328" font-family="serif" font-size="16" font-weight="400">
    <tspan x="204.594" y="328">b23</tspan>
  </text>
  <path fill="#fff" stroke="#000" stroke-linejoin="round" stroke-width="2" d="M166.667 335h46.666c5.834 0 11.667 8.75 11.667 17.5s-5.833 17.5-11.667 17.5h-46.666c-5.834 0-11.667-8.75-11.667-17.5s5.833-17.5 11.667-17.5"/>
  <text style="text-decoration-line:none" x="164" y="358" font-family="serif" font-size="16" font-weight="400">
    <tspan x="169.703" y="358">b2m-1</tspan>
  </text>
  <path fill="#fff" stroke="#000" stroke-linejoin="round" stroke-width="2" d="M264.667 183h46.666c5.834 0 11.667 8.75 11.667 17.5s-5.833 17.5-11.667 17.5h-46.666c-5.834 0-11.667-8.75-11.667-17.5s5.833-17.5 11.667-17.5"/>
  <text style="text-decoration-line:none" x="262" y="206" font-family="serif" font-size="16" font-weight="400">
    <tspan x="274.188" y="206">b2m</tspan>
  </text>
  <use width="100%" height="100%" stroke="red" stroke-opacity="0" stroke-width="10" transform="translate(54 275)" xlink:href="#g"/>
  <use width="100%" height="100%" stroke="#000" stroke-width="2" transform="translate(54 275)" xlink:href="#g"/>
  <text style="text-decoration-line:none" font-family="serif" font-size="16" font-weight="400">
    <textPath alignment-baseline="middle" startOffset="50%" text-anchor="middle" xlink:href="#g"> </textPath>
  </text>
  <use width="100%" height="100%" stroke="red" stroke-opacity="0" stroke-width="10" transform="translate(99 275)" xlink:href="#h"/>
  <use width="100%" height="100%" stroke="#000" stroke-width="2" transform="translate(99 275)" xlink:href="#h"/>
  <text style="text-decoration-line:none" font-family="serif" font-size="16" font-weight="400">
    <textPath alignment-baseline="middle" startOffset="50%" text-anchor="middle" xlink:href="#h"> </textPath>
  </text>
  <use width="100%" height="100%" stroke="red" stroke-opacity="0" stroke-width="10" transform="translate(139 280)" xlink:href="#i"/>
  <use width="100%" height="100%" stroke="#000" stroke-width="2" transform="translate(139 280)" xlink:href="#i"/>
  <text style="text-decoration-line:none" font-family="serif" font-size="16" font-weight="400">
    <textPath alignment-baseline="middle" startOffset="50%" text-anchor="middle" xlink:href="#i"> </textPath>
  </text>
  <use width="100%" height="100%" stroke="red" stroke-opacity="0" stroke-width="10" transform="translate(176 269)" xlink:href="#j"/>
  <use width="100%" height="100%" stroke="#000" stroke-width="2" transform="translate(176 269)" xlink:href="#j"/>
  <text style="text-decoration-line:none" font-family="serif" font-size="16" font-weight="400">
    <textPath alignment-baseline="middle" startOffset="50%" text-anchor="middle" xlink:href="#j"> </textPath>
  </text>
</svg>
