<svg xmlns="http://www.w3.org/2000/svg" xmlns:xlink="http://www.w3.org/1999/xlink" width="396" height="555">
  <path fill="none" d="M0 0h396v555H0z"/>
  <path fill="#fff" d="M1 9h390v20H1z"/>
  <text font-family="serif" font-size="16" font-weight="400" transform="translate(10 25)">
    <tspan x="1.313" y="0">A and B are in a many-to-many bidirectional relationship:</tspan>
  </text>
  <path fill="#fff" stroke="#000" stroke-linejoin="round" stroke-width="2" d="M43 72h100v80H43z"/>
  <text font-family="serif" font-size="16" font-weight="400" transform="translate(52 118)">
    <tspan x="35.594" y="0">A</tspan>
  </text>
  <g transform="translate(132 72)">
    <defs>
      <path id="a" fill="none" stroke-linejoin="round" d="M22 46l-6-6 6-6m-6 6h106m-6-6l6 6-6 6"/>
    </defs>
    <use stroke="red" stroke-opacity="0" stroke-width="10" xlink:href="#a"/>
    <use stroke="#000" stroke-width="2" xlink:href="#a"/>
    <text font-family="serif" font-size="16" font-weight="400">
      <textPath alignment-baseline="middle" startOffset="50%" text-anchor="middle" xlink:href="#a"> </textPath>
    </text>
  </g>
  <path fill="#fff" stroke="#000" stroke-linejoin="round" stroke-width="2" d="M259 72h100v80H259z"/>
  <text font-family="serif" font-size="16" font-weight="400" transform="translate(267 118)">
    <tspan x="36.664" y="0">B</tspan>
  </text>
  <text dominant-baseline="hanging" font-family="serif" font-size="16" font-weight="400" transform="translate(151.6 86)">
    <tspan x="0" y="0">0..*</tspan>
  </text>
  <text dominant-baseline="hanging" font-family="serif" font-size="16" font-weight="400" transform="translate(225.6 86)">
    <tspan x="0" y="0">0..*</tspan>
  </text>
  <text dominant-baseline="hanging" font-family="serif" font-size="16" font-style="italic" font-weight="400" transform="translate(20.6 185)">
    <tspan x="0" y="0">Before Change:</tspan>
  </text>
  <path fill="#fff" stroke="#000" stroke-linejoin="round" stroke-width="2" d="M101.667 214h46.666c5.834 0 11.667 8.75 11.667 17.5s-5.833 17.5-11.667 17.5h-46.666C95.833 249 90 240.25 90 231.5s5.833-17.5 11.667-17.5"/>
  <text font-family="serif" font-size="16" font-weight="400" transform="translate(98 237)">
    <tspan x="19.445" y="0">a1</tspan>
  </text>
  <path fill="#fff" stroke="#000" stroke-linejoin="round" stroke-width="2" d="M253.667 214h46.666c5.834 0 11.667 8.75 11.667 17.5s-5.833 17.5-11.667 17.5h-46.666c-5.834 0-11.667-8.75-11.667-17.5s5.833-17.5 11.667-17.5"/>
  <text font-family="serif" font-size="16" font-weight="400" transform="translate(251 237)">
    <tspan x="18.594" y="0">b1</tspan>
  </text>
  <g transform="translate(110 193)">
    <defs>
      <path id="b" fill="none" stroke-linejoin="round" d="M61 44l-6-5.5 6-5.5m-6 5.5h72m-6-5.5l6 5.5-6 5.5"/>
    </defs>
    <use stroke="red" stroke-opacity="0" stroke-width="10" xlink:href="#b"/>
    <use stroke="#000" stroke-width="2" xlink:href="#b"/>
    <text font-family="serif" font-size="16" font-weight="400">
      <textPath alignment-baseline="middle" startOffset="50%" text-anchor="middle" xlink:href="#b"> </textPath>
    </text>
  </g>
  <path fill="#fff" stroke="#000" stroke-linejoin="round" stroke-width="2" d="M101.667 284h46.666c5.834 0 11.667 8.75 11.667 17.5s-5.833 17.5-11.667 17.5h-46.666C95.833 319 90 310.25 90 301.5s5.833-17.5 11.667-17.5"/>
  <text font-family="serif" font-size="16" font-weight="400" transform="translate(98 307)">
    <tspan x="19.445" y="0">a2</tspan>
  </text>
  <g transform="translate(168 284)">
    <defs>
      <path id="c" fill="none" stroke-linejoin="round" d="M-6 2l-7.27-3.623L-10-9m-3.27 7.377l87.81-30.131 4.73-1.623M72-37l7.27 3.623L76-26"/>
    </defs>
    <use stroke="red" stroke-opacity="0" stroke-width="10" xlink:href="#c"/>
    <use stroke="#000" stroke-width="2" xlink:href="#c"/>
    <text font-family="serif" font-size="16" font-weight="400">
      <textPath alignment-baseline="middle" startOffset="50%" text-anchor="middle" xlink:href="#c"> </textPath>
    </text>
  </g>
  <path fill="#fff" stroke="#000" stroke-linejoin="round" stroke-width="2" d="M253.667 284h46.666c5.834 0 11.667 8.75 11.667 17.5s-5.833 17.5-11.667 17.5h-46.666c-5.834 0-11.667-8.75-11.667-17.5s5.833-17.5 11.667-17.5"/>
  <text font-family="serif" font-size="16" font-weight="400" transform="translate(251 307)">
    <tspan x="18.594" y="0">b2</tspan>
  </text>
  <g transform="translate(109 319)">
    <defs>
      <path id="d" fill="none" stroke-linejoin="round" d="M62-12l-6-5.5 6-5.5m-6 5.5h72m-6-5.5l6 5.5-6 5.5"/>
    </defs>
    <use stroke="red" stroke-opacity="0" stroke-width="10" xlink:href="#d"/>
    <use stroke="#000" stroke-width="2" xlink:href="#d"/>
    <text font-family="serif" font-size="16" font-weight="400">
      <textPath alignment-baseline="middle" startOffset="50%" text-anchor="middle" xlink:href="#d"> </textPath>
    </text>
  </g>
  <g transform="translate(90 331)">
    <defs>
      <path id="e" fill="none" stroke-linejoin="round" d="M154-56l3.27 7.377L150-45m7.27-3.623L69.46-78.754l-4.73-1.623M68-73l-3.27-7.377L72-84"/>
    </defs>
    <use stroke="red" stroke-opacity="0" stroke-width="10" xlink:href="#e"/>
    <use stroke="#000" stroke-width="2" xlink:href="#e"/>
    <text font-family="serif" font-size="16" font-weight="400">
      <textPath alignment-baseline="middle" startOffset="50%" text-anchor="middle" xlink:href="#e"> </textPath>
    </text>
  </g>
  <path fill="#fff" stroke="#000" stroke-linejoin="round" stroke-width="2" d="M101.667 354h46.666c5.834 0 11.667 8.75 11.667 17.5s-5.833 17.5-11.667 17.5h-46.666C95.833 389 90 380.25 90 371.5s5.833-17.5 11.667-17.5"/>
  <text font-family="serif" font-size="16" font-weight="400" transform="translate(98 377)">
    <tspan x="19.445" y="0">a3</tspan>
  </text>
  <g transform="translate(109 393)">
    <defs>
      <path id="f" fill="none" stroke-linejoin="round" d="M62-16l-6-5.5 6-5.5m-6 5.5h72m-6-5.5l6 5.5-6 5.5"/>
    </defs>
    <use stroke="red" stroke-opacity="0" stroke-width="10" xlink:href="#f"/>
    <use stroke="#000" stroke-width="2" xlink:href="#f"/>
    <text font-family="serif" font-size="16" font-weight="400">
      <textPath alignment-baseline="middle" startOffset="50%" text-anchor="middle" xlink:href="#f"> </textPath>
    </text>
  </g>
  <path fill="#fff" stroke="#000" stroke-linejoin="round" stroke-width="2" d="M253.667 354h46.666c5.834 0 11.667 8.75 11.667 17.5s-5.833 17.5-11.667 17.5h-46.666c-5.834 0-11.667-8.75-11.667-17.5s5.833-17.5 11.667-17.5"/>
  <text font-family="serif" font-size="16" font-weight="400" transform="translate(251 377)">
    <tspan x="18.594" y="0">b3</tspan>
  </text>
  <g transform="translate(168 356)">
    <defs>
      <path id="g" fill="none" stroke-linejoin="round" d="M-6 0l-7.27-3.623L-10-11m-3.27 7.377l87.81-30.131 4.73-1.623M72-39l7.27 3.623L76-28"/>
    </defs>
    <use stroke="red" stroke-opacity="0" stroke-width="10" xlink:href="#g"/>
    <use stroke="#000" stroke-width="2" xlink:href="#g"/>
    <text font-family="serif" font-size="16" font-weight="400">
      <textPath alignment-baseline="middle" startOffset="50%" text-anchor="middle" xlink:href="#g"> </textPath>
    </text>
  </g>
  <g transform="translate(90 405)">
    <defs>
      <path id="h" fill="none" stroke-linejoin="round" d="M154-60l3.27 7.377L150-49m7.27-3.623L69.46-82.754l-4.73-1.623M68-77l-3.27-7.377L72-88"/>
    </defs>
    <use stroke="red" stroke-opacity="0" stroke-width="10" xlink:href="#h"/>
    <use stroke="#000" stroke-width="2" xlink:href="#h"/>
    <text font-family="serif" font-size="16" font-weight="400">
      <textPath alignment-baseline="middle" startOffset="50%" text-anchor="middle" xlink:href="#h"> </textPath>
    </text>
  </g>
  <path fill="#fff" stroke="#000" stroke-linejoin="round" stroke-width="2" d="M101.667 424h46.666c5.834 0 11.667 8.75 11.667 17.5s-5.833 17.5-11.667 17.5h-46.666C95.833 459 90 450.25 90 441.5s5.833-17.5 11.667-17.5"/>
  <text font-family="serif" font-size="16" font-weight="400" transform="translate(98 447)">
    <tspan x="19.445" y="0">a4</tspan>
  </text>
  <g transform="translate(109 466)">
    <defs>
      <path id="i" fill="none" stroke-linejoin="round" d="M62-19l-6-5.5 6-5.5m-6 5.5h72m-6-5.5l6 5.5-6 5.5"/>
    </defs>
    <use stroke="red" stroke-opacity="0" stroke-width="10" xlink:href="#i"/>
    <use stroke="#000" stroke-width="2" xlink:href="#i"/>
    <text font-family="serif" font-size="16" font-weight="400">
      <textPath alignment-baseline="middle" startOffset="50%" text-anchor="middle" xlink:href="#i"> </textPath>
    </text>
  </g>
  <path fill="#fff" stroke="#000" stroke-linejoin="round" stroke-width="2" d="M253.667 424h46.666c5.834 0 11.667 8.75 11.667 17.5s-5.833 17.5-11.667 17.5h-46.666c-5.834 0-11.667-8.75-11.667-17.5s5.833-17.5 11.667-17.5"/>
  <text font-family="serif" font-size="16" font-weight="400" transform="translate(251 447)">
    <tspan x="18.594" y="0">b4</tspan>
  </text>
  <g transform="translate(168 429)">
    <defs>
      <path id="j" fill="none" stroke-linejoin="round" d="M-6-3l-7.27-3.623L-10-14m-3.27 7.377l87.81-30.131 4.73-1.623M72-42l7.27 3.623L76-31"/>
    </defs>
    <use stroke="red" stroke-opacity="0" stroke-width="10" xlink:href="#j"/>
    <use stroke="#000" stroke-width="2" xlink:href="#j"/>
    <text font-family="serif" font-size="16" font-weight="400">
      <textPath alignment-baseline="middle" startOffset="50%" text-anchor="middle" xlink:href="#j"> </textPath>
    </text>
  </g>
  <g transform="translate(90 478)">
    <defs>
      <path id="k" fill="none" stroke-linejoin="round" d="M154-63l3.27 7.377L150-52m7.27-3.623L69.46-85.754l-4.73-1.623M68-80l-3.27-7.377L72-91"/>
    </defs>
    <use stroke="red" stroke-opacity="0" stroke-width="10" xlink:href="#k"/>
    <use stroke="#000" stroke-width="2" xlink:href="#k"/>
    <text font-family="serif" font-size="16" font-weight="400">
      <textPath alignment-baseline="middle" startOffset="50%" text-anchor="middle" xlink:href="#k"> </textPath>
    </text>
  </g>
  <path fill="#fff" stroke="#000" stroke-linejoin="round" stroke-width="2" d="M101.667 494h46.666c5.834 0 11.667 8.75 11.667 17.5s-5.833 17.5-11.667 17.5h-46.666C95.833 529 90 520.25 90 511.5s5.833-17.5 11.667-17.5"/>
  <text font-family="serif" font-size="16" font-weight="400" transform="translate(98 517)">
    <tspan x="19.445" y="0">a5</tspan>
  </text>
  <g transform="translate(109 542)">
    <defs>
      <path id="l" fill="none" stroke-linejoin="round" d="M62-25l-6-5.5 6-5.5m-6 5.5h72m-6-5.5l6 5.5-6 5.5"/>
    </defs>
    <use stroke="red" stroke-opacity="0" stroke-width="10" xlink:href="#l"/>
    <use stroke="#000" stroke-width="2" xlink:href="#l"/>
    <text font-family="serif" font-size="16" font-weight="400">
      <textPath alignment-baseline="middle" startOffset="50%" text-anchor="middle" xlink:href="#l"> </textPath>
    </text>
  </g>
  <path fill="#fff" stroke="#000" stroke-linejoin="round" stroke-width="2" d="M253.667 494h46.666c5.834 0 11.667 8.75 11.667 17.5s-5.833 17.5-11.667 17.5h-46.666c-5.834 0-11.667-8.75-11.667-17.5s5.833-17.5 11.667-17.5"/>
  <text font-family="serif" font-size="16" font-weight="400" transform="translate(251 517)">
    <tspan x="18.594" y="0">b5</tspan>
  </text>
  <g transform="translate(168 505)">
    <defs>
      <path id="m" fill="none" stroke-linejoin="round" d="M-6-9l-7.27-3.623L-10-20m-3.27 7.377l87.81-30.131 4.73-1.623M72-48l7.27 3.623L76-37"/>
    </defs>
    <use stroke="red" stroke-opacity="0" stroke-width="10" xlink:href="#m"/>
    <use stroke="#000" stroke-width="2" xlink:href="#m"/>
    <text font-family="serif" font-size="16" font-weight="400">
      <textPath alignment-baseline="middle" startOffset="50%" text-anchor="middle" xlink:href="#m"> </textPath>
    </text>
  </g>
  <g transform="translate(90 554)">
    <defs>
      <path id="n" fill="none" stroke-linejoin="round" d="M154-69l3.27 7.377L150-58m7.27-3.623L69.46-91.754l-4.73-1.623M68-86l-3.27-7.377L72-97"/>
    </defs>
    <use stroke="red" stroke-opacity="0" stroke-width="10" xlink:href="#n"/>
    <use stroke="#000" stroke-width="2" xlink:href="#n"/>
    <text font-family="serif" font-size="16" font-weight="400">
      <textPath alignment-baseline="middle" startOffset="50%" text-anchor="middle" xlink:href="#n"> </textPath>
    </text>
  </g>
</svg>
