<svg xmlns="http://www.w3.org/2000/svg" xmlns:xlink="http://www.w3.org/1999/xlink" width="345" height="378">
  <path fill="none" d="M0 0h345v378H0z"/>
  <text dominant-baseline="hanging" font-family="serif" font-size="16" font-weight="400" font-style="italic" transform="translate(10.6 10)">
    <tspan x="0" y="0">After Change:</tspan>
  </text>
  <path d="M38.667 103h46.666C91.167 103 97 111.75 97 120.5S91.167 138 85.333 138H38.667C32.833 138 27 129.25 27 120.5S32.833 103 38.667 103" stroke-linejoin="round" stroke="#000" stroke-width="2" fill="#fff"/>
  <text transform="translate(35 126)" font-family="serif" font-size="16" font-weight="400">
    <tspan x="19.445" y="0">a1</tspan>
  </text>
  <path d="M164.667 43h46.666C217.167 43 223 51.75 223 60.5S217.167 78 211.333 78h-46.666C158.833 78 153 69.25 153 60.5S158.833 43 164.667 43" stroke-linejoin="round" stroke="#000" stroke-width="2" fill="#fff"/>
  <text transform="translate(162 66)" font-family="serif" font-size="16" font-weight="400">
    <tspan x="14.891" y="0">b11</tspan>
  </text>
  <g transform="translate(47 14)">
    <defs>
      <path id="a" d="M61 103l-7.604-.17L53 95m.396 7.83l45.811-49.49 3.397-3.67" stroke-linejoin="round" fill="none"/>
    </defs>
    <use xlink:href="#a" stroke-width="10" stroke-opacity="0" stroke="red"/>
    <use xlink:href="#a" stroke="#000" stroke-width="2"/>
    <text font-family="serif" font-size="16" font-weight="400">
      <textPath xlink:href="#a" startOffset="50%" text-anchor="middle" alignment-baseline="middle"> </textPath>
    </text>
  </g>
  <path d="M190.667 73h46.666C243.167 73 249 81.75 249 90.5s-5.833 17.5-11.667 17.5h-46.666C184.833 108 179 99.25 179 90.5S184.833 73 190.667 73" stroke-linejoin="round" stroke="#000" stroke-width="2" fill="#fff"/>
  <text transform="translate(188 96)" font-family="serif" font-size="16" font-weight="400">
    <tspan x="14.594" y="0">b12</tspan>
  </text>
  <path d="M214.667 103h46.666c5.834 0 11.667 8.75 11.667 17.5s-5.833 17.5-11.667 17.5h-46.666c-5.834 0-11.667-8.75-11.667-17.5s5.833-17.5 11.667-17.5" stroke-linejoin="round" stroke="#000" stroke-width="2" fill="#fff"/>
  <text transform="translate(212 126)" font-family="serif" font-size="16" font-weight="400">
    <tspan x="7.93" y="0">b1n-1</tspan>
  </text>
  <path d="M239.667 134h46.666c5.834 0 11.667 8.75 11.667 17.5s-5.833 17.5-11.667 17.5h-46.666c-5.834 0-11.667-8.75-11.667-17.5s5.833-17.5 11.667-17.5" stroke-linejoin="round" stroke="#000" stroke-width="2" fill="#fff"/>
  <text transform="translate(237 157)" font-family="serif" font-size="16" font-weight="400">
    <tspan x="14.188" y="0">b1n</tspan>
  </text>
  <g transform="translate(52 44)">
    <defs>
      <path id="b" d="M57 78l-7.304-3.218L53 68m-3.304 6.782l67.913-24.846 4.695-1.718" stroke-linejoin="round" fill="none"/>
    </defs>
    <use xlink:href="#b" stroke-width="10" stroke-opacity="0" stroke="red"/>
    <use xlink:href="#b" stroke="#000" stroke-width="2"/>
    <text font-family="serif" font-size="16" font-weight="400">
      <textPath xlink:href="#b" startOffset="50%" text-anchor="middle" alignment-baseline="middle"> </textPath>
    </text>
  </g>
  <g transform="translate(97 44)">
    <defs>
      <path id="c" d="M-5 203l5.206-5.504L6 203m-5.794-5.504l4.381 106.013.207 4.995" stroke-linejoin="round" fill="none"/>
    </defs>
    <use xlink:href="#c" stroke-width="10" stroke-opacity="0" stroke="red"/>
    <use xlink:href="#c" stroke="#000" stroke-width="2"/>
    <text font-family="serif" font-size="16" font-weight="400">
      <textPath xlink:href="#c" startOffset="50%" text-anchor="middle" alignment-baseline="middle"> </textPath>
    </text>
  </g>
  <g transform="translate(137 49)">
    <defs>
      <path id="d" d="M-29 77l-6-5.476L-29 66m-6 5.524l91 .429 5 .023" stroke-linejoin="round" fill="none"/>
    </defs>
    <use xlink:href="#d" stroke-width="10" stroke-opacity="0" stroke="red"/>
    <use xlink:href="#d" stroke="#000" stroke-width="2"/>
    <text font-family="serif" font-size="16" font-weight="400">
      <textPath xlink:href="#d" startOffset="50%" text-anchor="middle" alignment-baseline="middle"> </textPath>
    </text>
  </g>
  <g transform="translate(172 74)">
    <defs>
      <path id="e" d="M-66 54l-4.13-6.366L-63 43m-7.13 4.634L46.26 74.732l4.87 1.134" stroke-linejoin="round" fill="none"/>
    </defs>
    <use xlink:href="#e" stroke-width="10" stroke-opacity="0" stroke="red"/>
    <use xlink:href="#e" stroke="#000" stroke-width="2"/>
    <text font-family="serif" font-size="16" font-weight="400">
      <textPath xlink:href="#e" startOffset="50%" text-anchor="middle" alignment-baseline="middle"> </textPath>
    </text>
  </g>
  <path d="M38.667 219h46.666C91.167 219 97 227.75 97 236.5S91.167 254 85.333 254H38.667C32.833 254 27 245.25 27 236.5S32.833 219 38.667 219" stroke-linejoin="round" stroke="#000" stroke-width="2" fill="#fff"/>
  <text transform="translate(35 242)" font-family="serif" font-size="16" font-weight="400">
    <tspan x="19.445" y="0">a2</tspan>
  </text>
  <path d="M239.667 189h46.666c5.834 0 11.667 8.75 11.667 17.5s-5.833 17.5-11.667 17.5h-46.666c-5.834 0-11.667-8.75-11.667-17.5s5.833-17.5 11.667-17.5" stroke-linejoin="round" stroke="#000" stroke-width="2" fill="#fff"/>
  <text transform="translate(237 212)" font-family="serif" font-size="16" font-weight="400">
    <tspan x="14.594" y="0">b21</tspan>
  </text>
  <g transform="translate(47 192)">
    <defs>
      <path id="f" d="M62 49l-7.147-3.704L59 38m-4.147 7.296l116.441-28.888 4.853-1.204" stroke-linejoin="round" fill="none"/>
    </defs>
    <use xlink:href="#f" stroke-width="10" stroke-opacity="0" stroke="red"/>
    <use xlink:href="#f" stroke="#000" stroke-width="2"/>
    <text font-family="serif" font-size="16" font-weight="400">
      <textPath xlink:href="#f" startOffset="50%" text-anchor="middle" alignment-baseline="middle"> </textPath>
    </text>
  </g>
  <path d="M214.667 220h46.666c5.834 0 11.667 8.75 11.667 17.5s-5.833 17.5-11.667 17.5h-46.666c-5.834 0-11.667-8.75-11.667-17.5s5.833-17.5 11.667-17.5" stroke-linejoin="round" stroke="#000" stroke-width="2" fill="#fff"/>
  <text transform="translate(212 243)" font-family="serif" font-size="16" font-weight="400">
    <tspan x="14.594" y="0">b22</tspan>
  </text>
  <path d="M190.667 250h46.666c5.834 0 11.667 8.75 11.667 17.5s-5.833 17.5-11.667 17.5h-46.666c-5.834 0-11.667-8.75-11.667-17.5s5.833-17.5 11.667-17.5" stroke-linejoin="round" stroke="#000" stroke-width="2" fill="#fff"/>
  <text transform="translate(188 273)" font-family="serif" font-size="16" font-weight="400">
    <tspan x="14.188" y="0">b2k</tspan>
  </text>
  <path d="M164.667 280h46.666c5.834 0 11.667 8.75 11.667 17.5s-5.833 17.5-11.667 17.5h-46.666c-5.834 0-11.667-8.75-11.667-17.5s5.833-17.5 11.667-17.5" stroke-linejoin="round" stroke="#000" stroke-width="2" fill="#fff"/>
  <text transform="translate(162 303)" font-family="serif" font-size="16" font-weight="400">
    <tspan x="5.703" y="0">b2m-1</tspan>
  </text>
  <g transform="translate(52 220)">
    <defs>
      <path id="g" d="M56 22l-6-5.43L56 11m-6 5.57l91 1.29 5 .07" stroke-linejoin="round" fill="none"/>
    </defs>
    <use xlink:href="#g" stroke-width="10" stroke-opacity="0" stroke="red"/>
    <use xlink:href="#g" stroke="#000" stroke-width="2"/>
    <text font-family="serif" font-size="16" font-weight="400">
      <textPath xlink:href="#g" startOffset="50%" text-anchor="middle" alignment-baseline="middle"> </textPath>
    </text>
  </g>
  <g transform="translate(97 220)">
    <defs>
      <path id="h" d="M8 26l-3.323-7.732L12 15m-7.323 3.268l67.97 25.696 4.676 1.768" stroke-linejoin="round" fill="none"/>
    </defs>
    <use xlink:href="#h" stroke-width="10" stroke-opacity="0" stroke="red"/>
    <use xlink:href="#h" stroke="#000" stroke-width="2"/>
    <text font-family="serif" font-size="16" font-weight="400">
      <textPath xlink:href="#h" startOffset="50%" text-anchor="middle" alignment-baseline="middle"> </textPath>
    </text>
  </g>
  <g transform="translate(137 225)">
    <defs>
      <path id="i" d="M-37 23l.366-7.803L-29 16m-7.634-.803L9.267 65.606l3.367 3.697" stroke-linejoin="round" fill="none"/>
    </defs>
    <use xlink:href="#i" stroke-width="10" stroke-opacity="0" stroke="red"/>
    <use xlink:href="#i" stroke="#000" stroke-width="2"/>
    <text font-family="serif" font-size="16" font-weight="400">
      <textPath xlink:href="#i" startOffset="50%" text-anchor="middle" alignment-baseline="middle"> </textPath>
    </text>
  </g>
  <g transform="translate(172 250)">
    <defs>
      <path id="j" d="M-77-2l3.573-6.754L-66-5m-7.427-3.754l25.28 76.262 1.574 4.746" stroke-linejoin="round" fill="none"/>
    </defs>
    <use xlink:href="#j" stroke-width="10" stroke-opacity="0" stroke="red"/>
    <use xlink:href="#j" stroke="#000" stroke-width="2"/>
    <text font-family="serif" font-size="16" font-weight="400">
      <textPath xlink:href="#j" startOffset="50%" text-anchor="middle" alignment-baseline="middle"> </textPath>
    </text>
  </g>
  <path d="M138.667 309h46.666c5.834 0 11.667 8.75 11.667 17.5s-5.833 17.5-11.667 17.5h-46.666c-5.834 0-11.667-8.75-11.667-17.5s5.833-17.5 11.667-17.5" stroke-linejoin="round" stroke="#000" stroke-width="2" fill="#fff"/>
  <text transform="translate(136 332)" font-family="serif" font-size="16" font-weight="400">
    <tspan x="12.188" y="0">b2m</tspan>
  </text>
  <path d="M113.667 340h46.666c5.834 0 11.667 8.75 11.667 17.5s-5.833 17.5-11.667 17.5h-46.666c-5.834 0-11.667-8.75-11.667-17.5s5.833-17.5 11.667-17.5" stroke-linejoin="round" stroke="#000" stroke-width="2" fill="#fff"/>
  <text transform="translate(111 363)" font-family="serif" font-size="16" font-weight="400">
    <tspan x="16.367" y="0">b1j</tspan>
  </text>
</svg>
