<svg xmlns="http://www.w3.org/2000/svg" xmlns:xlink="http://www.w3.org/1999/xlink" width="654" height="233">
  <path fill="none" d="M0 0h654v233H0z"/>
  <rect transform="translate(246 29)" width="237" height="193" rx="24.125" ry="24.125" stroke-linejoin="round" stroke="#000" stroke-width="2" fill="#fff"/>
  <path d="M26.667 44h66.666C101.667 44 110 54 110 64s-8.333 20-16.667 20H26.667C18.333 84 10 74 10 64s8.333-20 16.667-20" stroke-linejoin="round" stroke="#000" stroke-width="2" fill="#fff"/>
  <text transform="translate(18 70)" font-family="serif" font-size="16" font-weight="400">
    <tspan x="16.445" y="0">Client 1</tspan>
  </text>
  <path d="M26.667 182h66.666c8.334 0 16.667 10 16.667 20s-8.333 20-16.667 20H26.667C18.333 222 10 212 10 202s8.333-20 16.667-20" stroke-linejoin="round" stroke="#000" stroke-width="2" fill="#fff"/>
  <text transform="translate(18 208)" font-family="serif" font-size="16" font-weight="400">
    <tspan x="16.445" y="0">Client 2</tspan>
  </text>
  <g transform="translate(106 51)">
    <defs>
      <path id="a" d="M8.434 15.311l80.698 42.067 4.434 2.31M91 52l2.566 7.689L86 62" stroke-linejoin="round" fill="none"/>
    </defs>
    <use xlink:href="#a" stroke-width="10" stroke-opacity="0" stroke="red"/>
    <use xlink:href="#a" stroke="#000" stroke-width="2"/>
    <text font-family="serif" font-size="16" font-weight="400">
      <textPath xlink:href="#a" startOffset="50%" text-anchor="middle" alignment-baseline="middle"> </textPath>
    </text>
  </g>
  <g transform="translate(126 96)">
    <defs>
      <path id="b" d="M-11.566 103.689l80.698-42.067 4.434-2.31M66 57l7.566 2.311L71 67" stroke-linejoin="round" fill="none"/>
    </defs>
    <use xlink:href="#b" stroke-width="10" stroke-opacity="0" stroke="red"/>
    <use xlink:href="#b" stroke="#000" stroke-width="2"/>
    <text font-family="serif" font-size="16" font-weight="400">
      <textPath xlink:href="#b" startOffset="50%" text-anchor="middle" alignment-baseline="middle"> </textPath>
    </text>
  </g>
  <path d="M207 113h80c10 0 20 10 20 20s-10 20-20 20h-80c-10 0-20-10-20-20s10-20 20-20" stroke-linejoin="round" stroke="#000" stroke-width="2" fill="#fff"/>
  <text transform="translate(196 130)" font-family="serif" font-size="16" font-weight="400">
    <tspan x="10.719" y="0">Entity object</tspan><tspan x="10.492" y="17.609">Account 100</tspan>
  </text>
  <g transform="translate(348 20)">
    <defs>
      <path id="c" d="M-37.257 109.685l23.771-21.055 3.743-3.315M-18 85l8.257.315L-10 93" stroke-linejoin="round" fill="none"/>
    </defs>
    <use xlink:href="#c" stroke-width="10" stroke-opacity="0" stroke="red"/>
    <use xlink:href="#c" stroke="#000" stroke-width="2"/>
    <text font-family="serif" font-size="16" font-weight="400">
      <textPath xlink:href="#c" startOffset="50%" text-anchor="middle" alignment-baseline="middle"> </textPath>
    </text>
  </g>
  <g transform="translate(383 20)">
    <defs>
      <path id="d" d="M-72.362 116.43l24.086 22.71 3.638 3.43M-45 135l.362 7.57L-53 143" stroke-linejoin="round" fill="none"/>
    </defs>
    <use xlink:href="#d" stroke-width="10" stroke-opacity="0" stroke="red"/>
    <use xlink:href="#d" stroke="#000" stroke-width="2"/>
    <text font-family="serif" font-size="16" font-weight="400">
      <textPath xlink:href="#d" startOffset="50%" text-anchor="middle" alignment-baseline="middle"> </textPath>
    </text>
  </g>
  <path d="M362 82h80c10 0 20 10 20 20s-10 20-20 20h-80c-10 0-20-10-20-20s10-20 20-20" stroke-linejoin="round" stroke="#000" stroke-width="2" fill="#fff"/>
  <text transform="translate(351 99)" font-family="serif" font-size="16" font-weight="400">
    <tspan x="10.492" y="0">Account 100</tspan><tspan x="27.258" y="17.609">in TX 1</tspan>
  </text>
  <path d="M362 146h80c10 0 20 10 20 20s-10 20-20 20h-80c-10 0-20-10-20-20s10-20 20-20" stroke-linejoin="round" stroke="#000" stroke-width="2" fill="#fff"/>
  <text transform="translate(351 163)" font-family="serif" font-size="16" font-weight="400">
    <tspan x="10.492" y="0">Account 100</tspan><tspan x="27.258" y="17.609">in TX 2</tspan>
  </text>
  <g transform="translate(530 10)">
    <defs>
      <path id="e" d="M-63.183 93.341l64.55 17.976 4.816 1.342M2 106l4.183 6.659L-1 117" stroke-linejoin="round" fill="none"/>
    </defs>
    <use xlink:href="#e" stroke-width="10" stroke-opacity="0" stroke="red"/>
    <use xlink:href="#e" stroke="#000" stroke-width="2"/>
    <text font-family="serif" font-size="16" font-weight="400">
      <textPath xlink:href="#e" startOffset="50%" text-anchor="middle" alignment-baseline="middle"> </textPath>
    </text>
  </g>
  <g transform="translate(560 25)">
    <defs>
      <path id="f" d="M-93.204 139.586l63.612-18.758 4.796-1.414M-32 116l7.204 3.414L-29 126" stroke-linejoin="round" fill="none"/>
    </defs>
    <use xlink:href="#f" stroke-width="10" stroke-opacity="0" stroke="red"/>
    <use xlink:href="#f" stroke="#000" stroke-width="2"/>
    <text font-family="serif" font-size="16" font-weight="400">
      <textPath xlink:href="#f" startOffset="50%" text-anchor="middle" alignment-baseline="middle"> </textPath>
    </text>
  </g>
  <path d="M543 91.667v66.666c0 8.334 25 16.667 50 16.667s50-8.333 50-16.667V91.667C643 83.333 618 75 593 75s-50 8.333-50 16.667z" fill="#fff"/>
  <path fill="none" d="M543 91.667v66.666c0 8.334 25 16.667 50 16.667s50-8.333 50-16.667V91.667c0 8.333-25 16.666-50 16.666S543 100 543 91.667C543 83.333 568 75 593 75s50 8.333 50 16.667" stroke-linejoin="round" stroke="#000" stroke-width="2"/>
  <text transform="translate(552 147)" font-family="serif" font-size="16" font-weight="400">
    <tspan x=".492" y="0">Account 100</tspan>
  </text>
  <path fill="#fff" d="M254 44h190v20H254z"/>
  <text transform="translate(262 60)" font-family="serif" font-size="16" font-weight="400">
    <tspan x="6.945" y="0">enterprise bean instances</tspan>
  </text>
  <text dominant-baseline="hanging" font-family="serif" font-size="16" font-weight="400" transform="translate(166 70)">
    <tspan x="0" y="0">TX 1</tspan>
  </text>
  <text dominant-baseline="hanging" font-family="serif" font-size="16" font-weight="400" transform="translate(166 185)">
    <tspan x="0" y="0">TX 2</tspan>
  </text>
  <text dominant-baseline="hanging" font-family="serif" font-size="16" font-weight="400" transform="translate(332 8)">
    <tspan x="0" y="0">Container</tspan>
  </text>
</svg>
