<svg xmlns="http://www.w3.org/2000/svg" width="613" height="544">
  <text font-family="serif" font-size="16" font-style="italic" font-weight="400" transform="translate(94 34)">
    <tspan x="0" y="0">(a) Entity bean is an object view of a collection of related records</tspan><tspan x="0" y="17.609">in the database</tspan>
  </text>
  <rect width="176" height="162" fill="#fff" stroke="#000" stroke-width="2" rx="20.25" ry="20.25" transform="translate(193 75)"/>
  <text transform="translate(254 100)">
    <tspan x="-3.305" y="0">container</tspan>
  </text>
  <path fill="#fff" stroke="#000" stroke-width="2" d="M26.667 137h66.666c8.334 0 16.667 10 16.667 20s-8.333 20-16.667 20H26.667C18.333 177 10 167 10 157s8.333-20 16.667-20"/>
  <text transform="translate(18 163)">
    <tspan x="24.047" y="0">client</tspan>
  </text>
  <path fill="none" stroke="#000" stroke-width="2" d="M115 157h111m-6-6l6 6-6 6"/>
  <path fill="#fff" stroke="#000" stroke-width="2" d="M247.667 137h66.666c8.334 0 16.667 10 16.667 20s-8.333 20-16.667 20h-66.666C239.333 177 231 167 231 157s8.333-20 16.667-20"/>
  <text transform="translate(239 154)">
    <tspan x="4.5" y="0">order entity</tspan><tspan x="26.086" y="17.609">bean</tspan>
  </text>
  <path fill="none" stroke="#000" stroke-width="2" d="M336 157h124m-6-6l6 6-6 6m11-39.333v66.666c0 8.334 25 16.667 50 16.667s50-8.333 50-16.667v-66.666c0 8.333-25 16.666-50 16.666s-50-8.333-50-16.666c0-8.334 25-16.667 50-16.667s50 8.333 50 16.667"/>
  <text transform="translate(473 179)">
    <tspan x="9.344" y="0">Order 100</tspan>
  </text>
  <text font-family="serif" font-size="16" font-style="italic" font-weight="400" transform="translate(110 299)">
    <tspan x="0" y="0">(b) Entity bean is an object view of an existing application</tspan>
  </text>
  <rect width="176" height="162" fill="#fff" stroke="#000" stroke-width="2" rx="20.25" ry="20.25" transform="translate(134 322)"/>
  <text transform="translate(195 347)">
    <tspan x="-3.305" y="0">container</tspan>
  </text>
  <path fill="#fff" stroke="#000" stroke-width="2" d="M26.667 384h66.666c8.334 0 16.667 10 16.667 20s-8.333 20-16.667 20H26.667C18.333 424 10 414 10 404s8.333-20 16.667-20"/>
  <text transform="translate(18 410)">
    <tspan x="24.047" y="0">client</tspan>
  </text>
  <path fill="none" stroke="#000" stroke-width="2" d="M115 404h52m-6-6l6 6-6 6"/>
  <path fill="#fff" stroke="#000" stroke-width="2" d="M188.667 384h66.666c8.334 0 16.667 10 16.667 20s-8.333 20-16.667 20h-66.666C180.333 424 172 414 172 404s8.333-20 16.667-20"/>
  <text transform="translate(180 401)">
    <tspan x="4.5" y="0">order entity</tspan><tspan x="26.086" y="17.609">bean</tspan>
  </text>
  <path fill="none" stroke="#000" stroke-width="2" d="M277 403.96l49-.382 5-.039M325 398l6 5.54-6 5.46"/>
  <g transform="translate(336 366)">
    <ellipse cx="62.5" cy="37.5" fill="#fff" stroke="#000" stroke-width="2" rx="62.5" ry="37.5"/>
    <text transform="translate(8 34)">
      <tspan x="26.945" y="0">exisiting</tspan><tspan x="18.555" y="17.609">application</tspan>
    </text>
  </g>
  <path fill="none" stroke="#000" stroke-width="2" d="M466 403.561l26 .317 5 .061M491 398l6 5.939-6 6.061m11-39.333v66.666c0 8.334 25 16.667 50 16.667s50-8.333 50-16.667v-66.666c0 8.333-25 16.666-50 16.666s-50-8.333-50-16.666c0-8.334 25-16.667 50-16.667s50 8.333 50 16.667"/>
  <text transform="translate(510 426)">
    <tspan x="9.344" y="0">Order 100</tspan>
  </text>
</svg>
