<svg xmlns="http://www.w3.org/2000/svg" xmlns:xlink="http://www.w3.org/1999/xlink" width="654" height="233">
  <defs>
    <path id="d" fill="none" d="M-63.183 93.341l64.55 17.976 4.816 1.342M2 106l4.183 6.659L-1 117"/>
    <path id="c" fill="none" d="M-37.257 109.685l23.771-21.055 3.743-3.315M-18 85l8.257.315L-10 93"/>
    <path id="b" fill="none" d="M-11.566 103.689l80.698-42.067 4.434-2.31M66 57l7.566 2.311L71 67"/>
    <path id="a" fill="none" d="M8.434 15.311l80.698 42.067 4.434 2.31M91 52l2.566 7.689L86 62"/>
  </defs>
  <path fill="none" d="M0 0h654v233H0z"/>
  <rect width="237" height="193" x="246" y="29" fill="#fff" stroke="#000" stroke-width="2" rx="24.125" ry="24.125"/>
  <path fill="#fff" stroke="#000" stroke-width="2" d="M26.667 44h66.666C101.667 44 110 54 110 64s-8.333 20-16.667 20H26.667C18.333 84 10 74 10 64s8.333-20 16.667-20"/>
  <text x="18" y="70">
    <tspan x="34.445" y="70">Client 1</tspan>
  </text>
  <path fill="#fff" stroke="#000" stroke-width="2" d="M26.667 182h66.666c8.334 0 16.667 10 16.667 20s-8.333 20-16.667 20H26.667C18.333 222 10 212 10 202s8.333-20 16.667-20"/>
  <text x="18" y="208">
    <tspan x="34.445" y="208">Client 2</tspan>
  </text>
  <use width="100%" height="100%" stroke="red" stroke-opacity="0" stroke-width="10" transform="translate(106 51)" xlink:href="#a"/>
  <use width="100%" height="100%" stroke="#000" stroke-width="2" transform="translate(106 51)" xlink:href="#a"/>
  <text>
    <textPath alignment-baseline="middle" startOffset="50%" text-anchor="middle" xlink:href="#a"> </textPath>
  </text>
  <use width="100%" height="100%" stroke="red" stroke-opacity="0" stroke-width="10" transform="translate(126 96)" xlink:href="#b"/>
  <use width="100%" height="100%" stroke="#000" stroke-width="2" transform="translate(126 96)" xlink:href="#b"/>
  <text>
    <textPath alignment-baseline="middle" startOffset="50%" text-anchor="middle" xlink:href="#b"> </textPath>
  </text>
  <path fill="#fff" stroke="#000" stroke-width="2" d="M207 113h80c10 0 20 10 20 20s-10 20-20 20h-80c-10 0-20-10-20-20s10-20 20-20"/>
  <text x="196" y="130">
    <tspan x="206.719" y="130">Entity object</tspan><tspan x="206.492" y="147.609">Account 100</tspan>
  </text>
  <use width="100%" height="100%" stroke="red" stroke-opacity="0" stroke-width="10" transform="translate(348 20)" xlink:href="#c"/>
  <use width="100%" height="100%" stroke="#000" stroke-width="2" transform="translate(348 20)" xlink:href="#c"/>
  <text>
    <textPath alignment-baseline="middle" startOffset="50%" text-anchor="middle" xlink:href="#c"> </textPath>
  </text>
  <path fill="#fff" stroke="#000" stroke-width="2" d="M362 82h80c10 0 20 10 20 20s-10 20-20 20h-80c-10 0-20-10-20-20s10-20 20-20"/>
  <text x="351" y="99">
    <tspan x="361.492" y="99">Account 100</tspan><tspan x="378.258" y="116.609">in TX 1</tspan>
  </text>
  <use width="100%" height="100%" stroke="red" stroke-opacity="0" stroke-width="10" transform="translate(530 10)" xlink:href="#d"/>
  <use width="100%" height="100%" stroke="#000" stroke-width="2" transform="translate(530 10)" xlink:href="#d"/>
  <text>
    <textPath alignment-baseline="middle" startOffset="50%" text-anchor="middle" xlink:href="#d"> </textPath>
  </text>
  <path fill="#fff" d="M543 91.667v66.666c0 8.334 25 16.667 50 16.667s50-8.333 50-16.667V91.667C643 83.333 618 75 593 75s-50 8.333-50 16.667z"/>
  <path fill="none" stroke="#000" stroke-width="2" d="M543 91.667v66.666c0 8.334 25 16.667 50 16.667s50-8.333 50-16.667V91.667c0 8.333-25 16.666-50 16.666S543 100 543 91.667C543 83.333 568 75 593 75s50 8.333 50 16.667"/>
  <text x="552" y="147">
    <tspan x="552.492" y="147">Account 100</tspan>
  </text>
  <path fill="#fff" d="M254 44h190v20H254z"/>
  <text x="262" y="60">
    <tspan x="268.945" y="60">enterprise bean instances</tspan>
  </text>
  <text x="166" y="70" dominant-baseline="hanging">
    <tspan x="166" y="70">TX 1</tspan>
  </text>
  <text x="166" y="185" dominant-baseline="hanging">
    <tspan x="166" y="185">TX 2</tspan>
  </text>
  <text x="332" y="8" dominant-baseline="hanging">
    <tspan x="332" y="8">Container</tspan>
  </text>
  <path fill="#fff" d="M254 170h190v40H254z"/>
  <text x="269" y="187">
    <tspan x="269" y="187">container blocks Client 2</tspan><tspan x="269" y="204.609">until Client 1 finishes</tspan>
  </text>
</svg>
