<svg xmlns="http://www.w3.org/2000/svg" xmlns:xlink="http://www.w3.org/1999/xlink" width="345" height="378">
  <path fill="none" d="M0 0h345v378H0z"/>
  <text dominant-baseline="hanging" font-family="serif" font-size="16" font-weight="400" font-style="italic" transform="translate(10.6 10)">
    <tspan x="0" y="0">After Change:</tspan>
  </text>
  <path d="M74.667 126h46.666c5.834 0 11.667 8.75 11.667 17.5s-5.833 17.5-11.667 17.5H74.667C68.833 161 63 152.25 63 143.5S68.833 126 74.667 126" stroke-linejoin="round" stroke="#000" stroke-width="2" fill="#fff"/>
  <text transform="translate(71 149)" font-family="serif" font-size="16" font-weight="400">
    <tspan x="19.445" y="0">a1</tspan>
  </text>
  <path d="M174.667 36h46.666C227.167 36 233 44.75 233 53.5S227.167 71 221.333 71h-46.666C168.833 71 163 62.25 163 53.5S168.833 36 174.667 36" stroke-linejoin="round" stroke="#000" stroke-width="2" fill="#fff"/>
  <text transform="translate(172 59)" font-family="serif" font-size="16" font-weight="400">
    <tspan x="14.891" y="0">b11</tspan>
  </text>
  <g transform="translate(83 37)">
    <defs>
      <path id="a" d="M54.18 109.244l118.46 77.768 4.18 2.744M175 182l1.82 7.756L169 191" stroke-linejoin="round" fill="none"/>
    </defs>
    <use xlink:href="#a" stroke-width="10" stroke-opacity="0" stroke="red"/>
    <use xlink:href="#a" stroke="#000" stroke-width="2"/>
    <text font-family="serif" font-size="16" font-weight="400">
      <textPath xlink:href="#a" startOffset="50%" text-anchor="middle" alignment-baseline="middle"> </textPath>
    </text>
  </g>
  <path d="M200.667 66h46.666C253.167 66 259 74.75 259 83.5s-5.833 17.5-11.667 17.5h-46.666C194.833 101 189 92.25 189 83.5S194.833 66 200.667 66" stroke-linejoin="round" stroke="#000" stroke-width="2" fill="#fff"/>
  <text transform="translate(198 89)" font-family="serif" font-size="16" font-weight="400">
    <tspan x="14.594" y="0">b12</tspan>
  </text>
  <path d="M226.667 96h46.666c5.834 0 11.667 8.75 11.667 17.5s-5.833 17.5-11.667 17.5h-46.666c-5.834 0-11.667-8.75-11.667-17.5S220.833 96 226.667 96" stroke-linejoin="round" stroke="#000" stroke-width="2" fill="#fff"/>
  <text transform="translate(224 119)" font-family="serif" font-size="16" font-weight="400">
    <tspan x="14.594" y="0">b13</tspan>
  </text>
  <path d="M250.667 126h46.666c5.834 0 11.667 8.75 11.667 17.5s-5.833 17.5-11.667 17.5h-46.666c-5.834 0-11.667-8.75-11.667-17.5s5.833-17.5 11.667-17.5" stroke-linejoin="round" stroke="#000" stroke-width="2" fill="#fff"/>
  <text transform="translate(248 149)" font-family="serif" font-size="16" font-weight="400">
    <tspan x="7.93" y="0">b1n-1</tspan>
  </text>
  <path d="M275.667 157h46.666c5.834 0 11.667 8.75 11.667 17.5s-5.833 17.5-11.667 17.5h-46.666c-5.834 0-11.667-8.75-11.667-17.5s5.833-17.5 11.667-17.5" stroke-linejoin="round" stroke="#000" stroke-width="2" fill="#fff"/>
  <text transform="translate(273 180)" font-family="serif" font-size="16" font-weight="400">
    <tspan x="14.188" y="0">b1n</tspan>
  </text>
  <g transform="translate(88 67)">
    <defs>
      <path id="b" d="M48.357 80.205l95.929 105.884 3.357 3.706M148 182l-.357 7.795L140 189" stroke-linejoin="round" fill="none"/>
    </defs>
    <use xlink:href="#b" stroke-width="10" stroke-opacity="0" stroke="red"/>
    <use xlink:href="#b" stroke="#000" stroke-width="2"/>
    <text font-family="serif" font-size="16" font-weight="400">
      <textPath xlink:href="#b" startOffset="50%" text-anchor="middle" alignment-baseline="middle"> </textPath>
    </text>
  </g>
  <g transform="translate(133 67)">
    <defs>
      <path id="c" d="M2.436 80.867l74.692 133.9 2.436 4.366M82 211l-2.436 8.133L72 217" stroke-linejoin="round" fill="none"/>
    </defs>
    <use xlink:href="#c" stroke-width="10" stroke-opacity="0" stroke="red"/>
    <use xlink:href="#c" stroke="#000" stroke-width="2"/>
    <text font-family="serif" font-size="16" font-weight="400">
      <textPath xlink:href="#c" startOffset="50%" text-anchor="middle" alignment-baseline="middle"> </textPath>
    </text>
  </g>
  <g transform="translate(173 72)">
    <defs>
      <path id="d" d="M-38.492 76.267l51.476 162.699 1.508 4.767M18 237l-3.508 6.733L7 240" stroke-linejoin="round" fill="none"/>
    </defs>
    <use xlink:href="#d" stroke-width="10" stroke-opacity="0" stroke="red"/>
    <use xlink:href="#d" stroke="#000" stroke-width="2"/>
    <text font-family="serif" font-size="16" font-weight="400">
      <textPath xlink:href="#d" startOffset="50%" text-anchor="middle" alignment-baseline="middle"> </textPath>
    </text>
  </g>
  <g transform="translate(208 97)">
    <defs>
      <path id="e" d="M-74.28 51.448l27.839 191.156.72 4.948M-41 241l-4.72 6.552L-52 243" stroke-linejoin="round" fill="none"/>
    </defs>
    <use xlink:href="#e" stroke-width="10" stroke-opacity="0" stroke="red"/>
    <use xlink:href="#e" stroke="#000" stroke-width="2"/>
    <text font-family="serif" font-size="16" font-weight="400">
      <textPath xlink:href="#e" startOffset="50%" text-anchor="middle" alignment-baseline="middle"> </textPath>
    </text>
  </g>
  <path d="M74.667 242h46.666c5.834 0 11.667 8.75 11.667 17.5s-5.833 17.5-11.667 17.5H74.667C68.833 277 63 268.25 63 259.5S68.833 242 74.667 242" stroke-linejoin="round" stroke="#000" stroke-width="2" fill="#fff"/>
  <text transform="translate(71 265)" font-family="serif" font-size="16" font-weight="400">
    <tspan x="19.445" y="0">a2</tspan>
  </text>
  <path d="M275.667 212h46.666c5.834 0 11.667 8.75 11.667 17.5s-5.833 17.5-11.667 17.5h-46.666c-5.834 0-11.667-8.75-11.667-17.5s5.833-17.5 11.667-17.5" stroke-linejoin="round" stroke="#000" stroke-width="2" fill="#fff"/>
  <text transform="translate(273 235)" font-family="serif" font-size="16" font-weight="400">
    <tspan x="14.594" y="0">b21</tspan>
  </text>
  <path d="M250.667 243h46.666c5.834 0 11.667 8.75 11.667 17.5s-5.833 17.5-11.667 17.5h-46.666c-5.834 0-11.667-8.75-11.667-17.5s5.833-17.5 11.667-17.5" stroke-linejoin="round" stroke="#000" stroke-width="2" fill="#fff"/>
  <text transform="translate(248 266)" font-family="serif" font-size="16" font-weight="400">
    <tspan x="14.594" y="0">b22</tspan>
  </text>
  <path d="M226.667 273h46.666c5.834 0 11.667 8.75 11.667 17.5s-5.833 17.5-11.667 17.5h-46.666c-5.834 0-11.667-8.75-11.667-17.5s5.833-17.5 11.667-17.5" stroke-linejoin="round" stroke="#000" stroke-width="2" fill="#fff"/>
  <text transform="translate(224 296)" font-family="serif" font-size="16" font-weight="400">
    <tspan x="14.594" y="0">b23</tspan>
  </text>
  <path d="M200.667 303h46.666c5.834 0 11.667 8.75 11.667 17.5s-5.833 17.5-11.667 17.5h-46.666c-5.834 0-11.667-8.75-11.667-17.5s5.833-17.5 11.667-17.5" stroke-linejoin="round" stroke="#000" stroke-width="2" fill="#fff"/>
  <text transform="translate(198 326)" font-family="serif" font-size="16" font-weight="400">
    <tspan x="5.703" y="0">b2m-1</tspan>
  </text>
  <path d="M174.667 332h46.666c5.834 0 11.667 8.75 11.667 17.5s-5.833 17.5-11.667 17.5h-46.666c-5.834 0-11.667-8.75-11.667-17.5s5.833-17.5 11.667-17.5" stroke-linejoin="round" stroke="#000" stroke-width="2" fill="#fff"/>
  <text transform="translate(172 355)" font-family="serif" font-size="16" font-weight="400">
    <tspan x="12.188" y="0">b2m</tspan>
  </text>
</svg>
