<svg xmlns="http://www.w3.org/2000/svg" xmlns:xlink="http://www.w3.org/1999/xlink" width="345" height="378">
  <path fill="none" d="M0 0h345v378H0z"/>
  <text dominant-baseline="hanging" font-family="serif" font-size="16" font-style="italic" font-weight="400" transform="translate(10.6 10)">
    <tspan x="0" y="0">After Change:</tspan>
  </text>
  <path fill="#fff" stroke="#000" stroke-linejoin="round" stroke-width="2" d="M81.667 41h46.666C134.167 41 140 49.75 140 58.5S134.167 76 128.333 76H81.667C75.833 76 70 67.25 70 58.5S75.833 41 81.667 41"/>
  <text font-family="serif" font-size="16" font-weight="400" transform="translate(78 64)">
    <tspan x="19.445" y="0">a1</tspan>
  </text>
  <path fill="#fff" stroke="#000" stroke-linejoin="round" stroke-width="2" d="M233.667 41h46.666C286.167 41 292 49.75 292 58.5S286.167 76 280.333 76h-46.666C227.833 76 222 67.25 222 58.5S227.833 41 233.667 41"/>
  <text font-family="serif" font-size="16" font-weight="400" transform="translate(231 64)">
    <tspan x="18.594" y="0">b1</tspan>
  </text>
  <path fill="#fff" stroke="#000" stroke-linejoin="round" stroke-width="2" d="M81.667 111h46.666c5.834 0 11.667 8.75 11.667 17.5s-5.833 17.5-11.667 17.5H81.667C75.833 146 70 137.25 70 128.5S75.833 111 81.667 111"/>
  <text font-family="serif" font-size="16" font-weight="400" transform="translate(78 134)">
    <tspan x="19.445" y="0">a2</tspan>
  </text>
  <g transform="translate(148 111)">
    <defs>
      <path id="a" fill="none" stroke-linejoin="round" d="M-6 2l-7.27-3.623L-10-9m-3.27 7.377l87.81-30.131 4.73-1.623M72-37l7.27 3.623L76-26"/>
    </defs>
    <use stroke="red" stroke-opacity="0" stroke-width="10" xlink:href="#a"/>
    <use stroke="#000" stroke-width="2" xlink:href="#a"/>
    <text font-family="serif" font-size="16" font-weight="400">
      <textPath alignment-baseline="middle" startOffset="50%" text-anchor="middle" xlink:href="#a"> </textPath>
    </text>
  </g>
  <path fill="#fff" stroke="#000" stroke-linejoin="round" stroke-width="2" d="M233.667 111h46.666c5.834 0 11.667 8.75 11.667 17.5s-5.833 17.5-11.667 17.5h-46.666c-5.834 0-11.667-8.75-11.667-17.5s5.833-17.5 11.667-17.5"/>
  <text font-family="serif" font-size="16" font-weight="400" transform="translate(231 134)">
    <tspan x="18.594" y="0">b2</tspan>
  </text>
  <g transform="translate(70 158)">
    <defs>
      <path id="b" fill="none" stroke-linejoin="round" d="M154-56l3.27 7.377L150-45m7.27-3.623L69.46-78.754l-4.73-1.623M68-73l-3.27-7.377L72-84"/>
    </defs>
    <use stroke="red" stroke-opacity="0" stroke-width="10" xlink:href="#b"/>
    <use stroke="#000" stroke-width="2" xlink:href="#b"/>
    <text font-family="serif" font-size="16" font-weight="400">
      <textPath alignment-baseline="middle" startOffset="50%" text-anchor="middle" xlink:href="#b"> </textPath>
    </text>
  </g>
  <path fill="#fff" stroke="#000" stroke-linejoin="round" stroke-width="2" d="M81.667 181h46.666c5.834 0 11.667 8.75 11.667 17.5s-5.833 17.5-11.667 17.5H81.667C75.833 216 70 207.25 70 198.5S75.833 181 81.667 181"/>
  <text font-family="serif" font-size="16" font-weight="400" transform="translate(78 204)">
    <tspan x="19.445" y="0">a3</tspan>
  </text>
  <g transform="translate(89 220)">
    <defs>
      <path id="c" fill="none" stroke-linejoin="round" d="M62-16l-6-5.53L62-27m-6 5.47l67-.409 5-.03M122-28l6 6.03-6 5.97"/>
    </defs>
    <use stroke="red" stroke-opacity="0" stroke-width="10" xlink:href="#c"/>
    <use stroke="#000" stroke-width="2" xlink:href="#c"/>
    <text font-family="serif" font-size="16" font-weight="400">
      <textPath alignment-baseline="middle" startOffset="50%" text-anchor="middle" xlink:href="#c"> </textPath>
    </text>
  </g>
  <path fill="#fff" stroke="#000" stroke-linejoin="round" stroke-width="2" d="M233.667 181h46.666c5.834 0 11.667 8.75 11.667 17.5s-5.833 17.5-11.667 17.5h-46.666c-5.834 0-11.667-8.75-11.667-17.5s5.833-17.5 11.667-17.5"/>
  <text font-family="serif" font-size="16" font-weight="400" transform="translate(231 204)">
    <tspan x="18.594" y="0">b3</tspan>
  </text>
  <g transform="translate(148 183)">
    <defs>
      <path id="d" fill="none" stroke-linejoin="round" d="M-6 0l-7.27-3.623L-10-11m-3.27 7.377l87.81-30.131 4.73-1.623M72-39l7.27 3.623L76-28"/>
    </defs>
    <use stroke="red" stroke-opacity="0" stroke-width="10" xlink:href="#d"/>
    <use stroke="#000" stroke-width="2" xlink:href="#d"/>
    <text font-family="serif" font-size="16" font-weight="400">
      <textPath alignment-baseline="middle" startOffset="50%" text-anchor="middle" xlink:href="#d"> </textPath>
    </text>
  </g>
  <g transform="translate(70 232)">
    <defs>
      <path id="e" fill="none" stroke-linejoin="round" d="M154-60l3.27 7.377L150-49m7.27-3.623L69.46-82.754l-4.73-1.623M68-77l-3.27-7.377L72-88"/>
    </defs>
    <use stroke="red" stroke-opacity="0" stroke-width="10" xlink:href="#e"/>
    <use stroke="#000" stroke-width="2" xlink:href="#e"/>
    <text font-family="serif" font-size="16" font-weight="400">
      <textPath alignment-baseline="middle" startOffset="50%" text-anchor="middle" xlink:href="#e"> </textPath>
    </text>
  </g>
  <path fill="#fff" stroke="#000" stroke-linejoin="round" stroke-width="2" d="M81.667 251h46.666c5.834 0 11.667 8.75 11.667 17.5s-5.833 17.5-11.667 17.5H81.667C75.833 286 70 277.25 70 268.5S75.833 251 81.667 251"/>
  <text font-family="serif" font-size="16" font-weight="400" transform="translate(78 274)">
    <tspan x="19.445" y="0">a4</tspan>
  </text>
  <g transform="translate(89 293)">
    <defs>
      <path id="f" fill="none" stroke-linejoin="round" d="M62-19l-6-5.97L62-31m-6 6.03l67 .409 5 .03M122-30l6 5.47-6 5.53"/>
    </defs>
    <use stroke="red" stroke-opacity="0" stroke-width="10" xlink:href="#f"/>
    <use stroke="#000" stroke-width="2" xlink:href="#f"/>
    <text font-family="serif" font-size="16" font-weight="400">
      <textPath alignment-baseline="middle" startOffset="50%" text-anchor="middle" xlink:href="#f"> </textPath>
    </text>
  </g>
  <path fill="#fff" stroke="#000" stroke-linejoin="round" stroke-width="2" d="M233.667 251h46.666c5.834 0 11.667 8.75 11.667 17.5s-5.833 17.5-11.667 17.5h-46.666c-5.834 0-11.667-8.75-11.667-17.5s5.833-17.5 11.667-17.5"/>
  <text font-family="serif" font-size="16" font-weight="400" transform="translate(231 274)">
    <tspan x="18.594" y="0">b4</tspan>
  </text>
  <g transform="translate(148 256)">
    <defs>
      <path id="g" fill="none" stroke-linejoin="round" d="M-6-3l-7.27-3.623L-10-14m-3.27 7.377l87.81-30.131 4.73-1.623M72-42l7.27 3.623L76-31"/>
    </defs>
    <use stroke="red" stroke-opacity="0" stroke-width="10" xlink:href="#g"/>
    <use stroke="#000" stroke-width="2" xlink:href="#g"/>
    <text font-family="serif" font-size="16" font-weight="400">
      <textPath alignment-baseline="middle" startOffset="50%" text-anchor="middle" xlink:href="#g"> </textPath>
    </text>
  </g>
  <g transform="translate(70 305)">
    <defs>
      <path id="h" fill="none" stroke-linejoin="round" d="M154-63l3.27 7.377L150-52m7.27-3.623L69.46-85.754l-4.73-1.623M68-80l-3.27-7.377L72-91"/>
    </defs>
    <use stroke="red" stroke-opacity="0" stroke-width="10" xlink:href="#h"/>
    <use stroke="#000" stroke-width="2" xlink:href="#h"/>
    <text font-family="serif" font-size="16" font-weight="400">
      <textPath alignment-baseline="middle" startOffset="50%" text-anchor="middle" xlink:href="#h"> </textPath>
    </text>
  </g>
  <path fill="#fff" stroke="#000" stroke-linejoin="round" stroke-width="2" d="M81.667 321h46.666c5.834 0 11.667 8.75 11.667 17.5s-5.833 17.5-11.667 17.5H81.667C75.833 356 70 347.25 70 338.5S75.833 321 81.667 321"/>
  <text font-family="serif" font-size="16" font-weight="400" transform="translate(78 344)">
    <tspan x="19.445" y="0">a5</tspan>
  </text>
  <g transform="translate(89 369)">
    <defs>
      <path id="i" fill="none" stroke-linejoin="round" d="M62-25l-6-6 6-6m-6 6h72m-6-6l6 6-6 6"/>
    </defs>
    <use stroke="red" stroke-opacity="0" stroke-width="10" xlink:href="#i"/>
    <use stroke="#000" stroke-width="2" xlink:href="#i"/>
    <text font-family="serif" font-size="16" font-weight="400">
      <textPath alignment-baseline="middle" startOffset="50%" text-anchor="middle" xlink:href="#i"> </textPath>
    </text>
  </g>
  <path fill="#fff" stroke="#000" stroke-linejoin="round" stroke-width="2" d="M233.667 321h46.666c5.834 0 11.667 8.75 11.667 17.5s-5.833 17.5-11.667 17.5h-46.666c-5.834 0-11.667-8.75-11.667-17.5s5.833-17.5 11.667-17.5"/>
  <text font-family="serif" font-size="16" font-weight="400" transform="translate(231 344)">
    <tspan x="18.594" y="0">b5</tspan>
  </text>
  <g transform="translate(148 332)">
    <defs>
      <path id="j" fill="none" stroke-linejoin="round" d="M-6-9l-7.27-3.623L-10-20m-3.27 7.377l87.81-30.131 4.73-1.623M72-48l7.27 3.623L76-37"/>
    </defs>
    <use stroke="red" stroke-opacity="0" stroke-width="10" xlink:href="#j"/>
    <use stroke="#000" stroke-width="2" xlink:href="#j"/>
    <text font-family="serif" font-size="16" font-weight="400">
      <textPath alignment-baseline="middle" startOffset="50%" text-anchor="middle" xlink:href="#j"> </textPath>
    </text>
  </g>
  <g transform="translate(70 381)">
    <defs>
      <path id="k" fill="none" stroke-linejoin="round" d="M154-69l3.27 7.377L150-58m7.27-3.623L69.46-91.754l-4.73-1.623M68-86l-3.27-7.377L72-97"/>
    </defs>
    <use stroke="red" stroke-opacity="0" stroke-width="10" xlink:href="#k"/>
    <use stroke="#000" stroke-width="2" xlink:href="#k"/>
    <text font-family="serif" font-size="16" font-weight="400">
      <textPath alignment-baseline="middle" startOffset="50%" text-anchor="middle" xlink:href="#k"> </textPath>
    </text>
  </g>
  <g transform="translate(130 25)">
    <defs>
      <path id="l" fill="none" stroke-linejoin="round" d="M21 39l-6-5.5 6-5.5m-6 5.5h72M81 28l6 5.5-6 5.5"/>
    </defs>
    <use stroke="red" stroke-opacity="0" stroke-width="10" xlink:href="#l"/>
    <use stroke="#000" stroke-width="2" xlink:href="#l"/>
    <text font-family="serif" font-size="16" font-weight="400">
      <textPath alignment-baseline="middle" startOffset="50%" text-anchor="middle" xlink:href="#l"> </textPath>
    </text>
  </g>
</svg>
