<svg xmlns="http://www.w3.org/2000/svg" xmlns:xlink="http://www.w3.org/1999/xlink" width="489" height="339">
  <defs>
    <path id="c" fill="none" stroke-linejoin="round" d="M20.903 76.768l98.49-100.297 3.504-3.568M115-27l7.897-.097L123-19"/>
    <path id="b" fill="none" stroke-linejoin="round" d="M119-46l6.703 4.608L121-35m4.703-6.392L-63.605-2.417l-4.898 1.009M-62 3l-6.503-4.408L-64-8"/>
    <path id="a" fill="none" stroke-linejoin="round" d="M-47 31l-1.91-7.438L-41 22m-7.91 1.562l68.673 42.91 4.24 2.649M22 61l2.003 8.121L16 71"/>
  </defs>
  <path fill="none" d="M0 0h489v339H0z"/>
  <path stroke="#000" stroke-linejoin="round" stroke-width="2" d="M170.071 246.536l3.536 10.606L163 253.607 159.464 243z"/>
  <path fill="none" d="M178.556 243.707l5.657 5.657-5.657 5.657-5.657-5.657zm3.535 10.607l5.657 5.657-5.657 5.656-5.657-5.656zm-16.263 2.121l5.657 5.657-5.657 5.657-5.657-5.657zm-6.364-24.749l5.657 5.657-5.657 5.657-5.657-5.657z"/>
  <use width="100%" height="100%" stroke="red" stroke-opacity="0" stroke-width="10" transform="translate(226.757 236.23)" xlink:href="#a"/>
  <use width="100%" height="100%" stroke="#000" stroke-width="2" transform="translate(226.757 236.23)" xlink:href="#a"/>
  <text style="text-decoration-line:none" font-family="serif" font-size="16" font-weight="400">
    <textPath alignment-baseline="middle" startOffset="50%" text-anchor="middle" xlink:href="#a"> </textPath>
  </text>
  <path fill="#fff" stroke="#000" stroke-linejoin="round" stroke-width="2" d="M10 72h150v171H10z"/>
  <text style="text-decoration-line:none" x="23" y="93" font-family="serif" font-size="16" font-weight="400">
    <tspan x="23" y="93">getOrderStatus</tspan><tspan x="23" y="110.609">setOrderStatus</tspan><tspan x="23" y="128.219">getLineStatus</tspan><tspan x="23" y="145.828">setLineStatus</tspan><tspan x="23" y="163.438">getCreditApproved</tspan><tspan x="23" y="181.047">setCreditApproved</tspan><tspan x="23" y="198.656">getCustomer</tspan><tspan x="23" y="216.266">setCustomer</tspan><tspan x="23" y="233.875">...</tspan>
  </text>
  <path fill="#fff" stroke="#000" stroke-linejoin="round" stroke-width="2" d="M10 32h150v40H10z"/>
  <text style="text-decoration-line:none" x="18" y="49" font-family="serif" font-size="16" font-weight="400">
    <tspan x="50.813" y="49">&lt;abstract&gt;</tspan><tspan x="49.5" y="66.609">OrderBean</tspan>
  </text>
  <use width="100%" height="100%" stroke="red" stroke-opacity="0" stroke-width="10" transform="translate(233.4 72.4)" xlink:href="#b"/>
  <use width="100%" height="100%" stroke="#000" stroke-width="2" transform="translate(233.4 72.4)" xlink:href="#b"/>
  <text style="text-decoration-line:none" font-family="serif" font-size="16" font-weight="400">
    <textPath alignment-baseline="middle" startOffset="50%" text-anchor="middle" xlink:href="#b"> </textPath>
  </text>
  <path fill="#fff" stroke="#000" stroke-linejoin="round" stroke-width="2" d="M364 10h100v40H364z"/>
  <text style="text-decoration-line:none" x="372" y="36" font-family="serif" font-size="16" font-weight="400">
    <tspan x="382.352" y="36">Customer</tspan>
  </text>
  <path fill="#fff" stroke="#000" stroke-linejoin="round" stroke-width="2" d="M364 137h100v40H364z"/>
  <text style="text-decoration-line:none" x="372" y="163" font-family="serif" font-size="16" font-weight="400">
    <tspan x="388.93" y="163">Product</tspan>
  </text>
  <path fill="#fff" stroke="#000" stroke-linejoin="round" stroke-width="2" d="M255 288h100v40H255z"/>
  <text style="text-decoration-line:none" x="263" y="314" font-family="serif" font-size="16" font-weight="400">
    <tspan x="275.5" y="314">LineItem</tspan>
  </text>
  <use width="100%" height="100%" stroke="red" stroke-opacity="0" stroke-width="10" transform="translate(287.6 207.664)" xlink:href="#c"/>
  <use width="100%" height="100%" stroke="#000" stroke-width="2" transform="translate(287.6 207.664)" xlink:href="#c"/>
  <text style="text-decoration-line:none" font-family="serif" font-size="16" font-weight="400">
    <textPath alignment-baseline="middle" startOffset="50%" text-anchor="middle" xlink:href="#c"> </textPath>
  </text>
  <text dominant-baseline="hanging" style="text-decoration-line:none" x="214" y="25" font-family="serif" font-size="16" font-weight="400">
    <tspan x="214" y="25">Order-Customer</tspan>
  </text>
  <text dominant-baseline="hanging" style="text-decoration-line:none" x="189" y="243.929" font-family="serif" font-size="16" font-weight="400">
    <tspan x="189" y="243.929">1</tspan>
  </text>
  <text dominant-baseline="hanging" style="text-decoration-line:none" x="229" y="307.929" font-family="serif" font-size="16" font-weight="400">
    <tspan x="229" y="307.929">*</tspan>
  </text>
  <text dominant-baseline="hanging" style="text-decoration-line:none" x="169" y="51.929" font-family="serif" font-size="16" font-weight="400">
    <tspan x="169" y="51.929">*</tspan>
  </text>
  <text dominant-baseline="hanging" style="text-decoration-line:none" x="378" y="185.929" font-family="serif" font-size="16" font-weight="400">
    <tspan x="378" y="185.929">1</tspan>
  </text>
  <text dominant-baseline="hanging" style="text-decoration-line:none" x="327" y="272.929" font-family="serif" font-size="16" font-weight="400">
    <tspan x="327" y="272.929">*</tspan>
  </text>
  <text dominant-baseline="hanging" style="text-decoration-line:none" x="344" y="42.929" font-family="serif" font-size="16" font-weight="400">
    <tspan x="344" y="42.929">1</tspan>
  </text>
  <text dominant-baseline="hanging" style="text-decoration-line:none" x="120.071" y="291" font-family="serif" font-size="16" font-weight="400">
    <tspan x="120.071" y="291">Order-LineItem</tspan>
  </text>
  <text dominant-baseline="hanging" style="text-decoration-line:none" x="364.071" y="238" font-family="serif" font-size="16" font-weight="400">
    <tspan x="364.071" y="238">Product-LineItem</tspan>
  </text>
</svg>
