<svg xmlns="http://www.w3.org/2000/svg" xmlns:xlink="http://www.w3.org/1999/xlink" width="345" height="378">
  <defs>
    <path id="j" fill="none" stroke-linejoin="round" d="M-77-2l3.573-6.754L-66-5m-7.427-3.754l25.28 76.262 1.574 4.746"/>
    <path id="i" fill="none" stroke-linejoin="round" d="M-37 23l.366-7.803L-29 16m-7.634-.803L9.267 65.606l3.367 3.697"/>
    <path id="h" fill="none" stroke-linejoin="round" d="M8 26l-3.323-7.732L12 15m-7.323 3.268l67.97 25.696 4.676 1.768"/>
    <path id="g" fill="none" stroke-linejoin="round" d="M56 22l-6-5.43L56 11m-6 5.57l91 1.29 5 .07"/>
    <path id="f" fill="none" stroke-linejoin="round" d="M62 49l-7.147-3.704L59 38m-4.147 7.296l116.441-28.888 4.853-1.204"/>
    <path id="e" fill="none" stroke-linejoin="round" d="M-66 54l-4.13-6.366L-63 43m-7.13 4.634L46.26 74.732l4.87 1.134"/>
    <path id="d" fill="none" stroke-linejoin="round" d="M-29 77l-6-5.476L-29 66m-6 5.524l91 .429 5 .023"/>
    <path id="c" fill="none" stroke-linejoin="round" d="M-5 203l5.206-5.504L6 203m-5.794-5.504l4.381 106.013.207 4.995"/>
    <path id="b" fill="none" stroke-linejoin="round" d="M57 78l-7.304-3.218L53 68m-3.304 6.782l67.913-24.846 4.695-1.718"/>
    <path id="a" fill="none" stroke-linejoin="round" d="M61 103l-7.604-.17L53 95m.396 7.83l45.811-49.49 3.397-3.67"/>
  </defs>
  <path fill="none" d="M0 0h345v378H0z"/>
  <text dominant-baseline="hanging" style="text-decoration-line:none" x="10.6" y="10" font-family="serif" font-size="16" font-style="italic" font-weight="400">
    <tspan x="10.6" y="10">After Change:</tspan>
  </text>
  <path fill="#fff" stroke="#000" stroke-linejoin="round" stroke-width="2" d="M38.667 103h46.666C91.167 103 97 111.75 97 120.5S91.167 138 85.333 138H38.667C32.833 138 27 129.25 27 120.5S32.833 103 38.667 103"/>
  <text style="text-decoration-line:none" x="35" y="126" font-family="serif" font-size="16" font-weight="400">
    <tspan x="54.445" y="126">a1</tspan>
  </text>
  <path fill="#fff" stroke="#000" stroke-linejoin="round" stroke-width="2" d="M164.667 43h46.666C217.167 43 223 51.75 223 60.5S217.167 78 211.333 78h-46.666C158.833 78 153 69.25 153 60.5S158.833 43 164.667 43"/>
  <text style="text-decoration-line:none" x="162" y="66" font-family="serif" font-size="16" font-weight="400">
    <tspan x="176.891" y="66">b11</tspan>
  </text>
  <use width="100%" height="100%" stroke="red" stroke-opacity="0" stroke-width="10" transform="translate(47 14)" xlink:href="#a"/>
  <use width="100%" height="100%" stroke="#000" stroke-width="2" transform="translate(47 14)" xlink:href="#a"/>
  <text style="text-decoration-line:none" font-family="serif" font-size="16" font-weight="400">
    <textPath alignment-baseline="middle" startOffset="50%" text-anchor="middle" xlink:href="#a"> </textPath>
  </text>
  <path fill="#fff" stroke="#000" stroke-linejoin="round" stroke-width="2" d="M190.667 73h46.666C243.167 73 249 81.75 249 90.5s-5.833 17.5-11.667 17.5h-46.666C184.833 108 179 99.25 179 90.5S184.833 73 190.667 73"/>
  <text style="text-decoration-line:none" x="188" y="96" font-family="serif" font-size="16" font-weight="400">
    <tspan x="202.594" y="96">b12</tspan>
  </text>
  <path fill="#fff" stroke="#000" stroke-linejoin="round" stroke-width="2" d="M214.667 103h46.666c5.834 0 11.667 8.75 11.667 17.5s-5.833 17.5-11.667 17.5h-46.666c-5.834 0-11.667-8.75-11.667-17.5s5.833-17.5 11.667-17.5"/>
  <text style="text-decoration-line:none" x="212" y="126" font-family="serif" font-size="16" font-weight="400">
    <tspan x="219.93" y="126">b1n-1</tspan>
  </text>
  <path fill="#fff" stroke="#000" stroke-linejoin="round" stroke-width="2" d="M239.667 134h46.666c5.834 0 11.667 8.75 11.667 17.5s-5.833 17.5-11.667 17.5h-46.666c-5.834 0-11.667-8.75-11.667-17.5s5.833-17.5 11.667-17.5"/>
  <text style="text-decoration-line:none" x="237" y="157" font-family="serif" font-size="16" font-weight="400">
    <tspan x="251.188" y="157">b1n</tspan>
  </text>
  <use width="100%" height="100%" stroke="red" stroke-opacity="0" stroke-width="10" transform="translate(52 44)" xlink:href="#b"/>
  <use width="100%" height="100%" stroke="#000" stroke-width="2" transform="translate(52 44)" xlink:href="#b"/>
  <text style="text-decoration-line:none" font-family="serif" font-size="16" font-weight="400">
    <textPath alignment-baseline="middle" startOffset="50%" text-anchor="middle" xlink:href="#b"> </textPath>
  </text>
  <use width="100%" height="100%" stroke="red" stroke-opacity="0" stroke-width="10" transform="translate(97 44)" xlink:href="#c"/>
  <use width="100%" height="100%" stroke="#000" stroke-width="2" transform="translate(97 44)" xlink:href="#c"/>
  <text style="text-decoration-line:none" font-family="serif" font-size="16" font-weight="400">
    <textPath alignment-baseline="middle" startOffset="50%" text-anchor="middle" xlink:href="#c"> </textPath>
  </text>
  <use width="100%" height="100%" stroke="red" stroke-opacity="0" stroke-width="10" transform="translate(137 49)" xlink:href="#d"/>
  <use width="100%" height="100%" stroke="#000" stroke-width="2" transform="translate(137 49)" xlink:href="#d"/>
  <text style="text-decoration-line:none" font-family="serif" font-size="16" font-weight="400">
    <textPath alignment-baseline="middle" startOffset="50%" text-anchor="middle" xlink:href="#d"> </textPath>
  </text>
  <use width="100%" height="100%" stroke="red" stroke-opacity="0" stroke-width="10" transform="translate(172 74)" xlink:href="#e"/>
  <use width="100%" height="100%" stroke="#000" stroke-width="2" transform="translate(172 74)" xlink:href="#e"/>
  <text style="text-decoration-line:none" font-family="serif" font-size="16" font-weight="400">
    <textPath alignment-baseline="middle" startOffset="50%" text-anchor="middle" xlink:href="#e"> </textPath>
  </text>
  <path fill="#fff" stroke="#000" stroke-linejoin="round" stroke-width="2" d="M38.667 219h46.666C91.167 219 97 227.75 97 236.5S91.167 254 85.333 254H38.667C32.833 254 27 245.25 27 236.5S32.833 219 38.667 219"/>
  <text style="text-decoration-line:none" x="35" y="242" font-family="serif" font-size="16" font-weight="400">
    <tspan x="54.445" y="242">a2</tspan>
  </text>
  <path fill="#fff" stroke="#000" stroke-linejoin="round" stroke-width="2" d="M239.667 189h46.666c5.834 0 11.667 8.75 11.667 17.5s-5.833 17.5-11.667 17.5h-46.666c-5.834 0-11.667-8.75-11.667-17.5s5.833-17.5 11.667-17.5"/>
  <text style="text-decoration-line:none" x="237" y="212" font-family="serif" font-size="16" font-weight="400">
    <tspan x="251.594" y="212">b21</tspan>
  </text>
  <use width="100%" height="100%" stroke="red" stroke-opacity="0" stroke-width="10" transform="translate(47 192)" xlink:href="#f"/>
  <use width="100%" height="100%" stroke="#000" stroke-width="2" transform="translate(47 192)" xlink:href="#f"/>
  <text style="text-decoration-line:none" font-family="serif" font-size="16" font-weight="400">
    <textPath alignment-baseline="middle" startOffset="50%" text-anchor="middle" xlink:href="#f"> </textPath>
  </text>
  <path fill="#fff" stroke="#000" stroke-linejoin="round" stroke-width="2" d="M214.667 220h46.666c5.834 0 11.667 8.75 11.667 17.5s-5.833 17.5-11.667 17.5h-46.666c-5.834 0-11.667-8.75-11.667-17.5s5.833-17.5 11.667-17.5"/>
  <text style="text-decoration-line:none" x="212" y="243" font-family="serif" font-size="16" font-weight="400">
    <tspan x="226.594" y="243">b22</tspan>
  </text>
  <path fill="#fff" stroke="#000" stroke-linejoin="round" stroke-width="2" d="M190.667 250h46.666c5.834 0 11.667 8.75 11.667 17.5s-5.833 17.5-11.667 17.5h-46.666c-5.834 0-11.667-8.75-11.667-17.5s5.833-17.5 11.667-17.5"/>
  <text style="text-decoration-line:none" x="188" y="273" font-family="serif" font-size="16" font-weight="400">
    <tspan x="202.188" y="273">b2k</tspan>
  </text>
  <path fill="#fff" stroke="#000" stroke-linejoin="round" stroke-width="2" d="M164.667 280h46.666c5.834 0 11.667 8.75 11.667 17.5s-5.833 17.5-11.667 17.5h-46.666c-5.834 0-11.667-8.75-11.667-17.5s5.833-17.5 11.667-17.5"/>
  <text style="text-decoration-line:none" x="162" y="303" font-family="serif" font-size="16" font-weight="400">
    <tspan x="167.703" y="303">b2m-1</tspan>
  </text>
  <use width="100%" height="100%" stroke="red" stroke-opacity="0" stroke-width="10" transform="translate(52 220)" xlink:href="#g"/>
  <use width="100%" height="100%" stroke="#000" stroke-width="2" transform="translate(52 220)" xlink:href="#g"/>
  <text style="text-decoration-line:none" font-family="serif" font-size="16" font-weight="400">
    <textPath alignment-baseline="middle" startOffset="50%" text-anchor="middle" xlink:href="#g"> </textPath>
  </text>
  <use width="100%" height="100%" stroke="red" stroke-opacity="0" stroke-width="10" transform="translate(97 220)" xlink:href="#h"/>
  <use width="100%" height="100%" stroke="#000" stroke-width="2" transform="translate(97 220)" xlink:href="#h"/>
  <text style="text-decoration-line:none" font-family="serif" font-size="16" font-weight="400">
    <textPath alignment-baseline="middle" startOffset="50%" text-anchor="middle" xlink:href="#h"> </textPath>
  </text>
  <use width="100%" height="100%" stroke="red" stroke-opacity="0" stroke-width="10" transform="translate(137 225)" xlink:href="#i"/>
  <use width="100%" height="100%" stroke="#000" stroke-width="2" transform="translate(137 225)" xlink:href="#i"/>
  <text style="text-decoration-line:none" font-family="serif" font-size="16" font-weight="400">
    <textPath alignment-baseline="middle" startOffset="50%" text-anchor="middle" xlink:href="#i"> </textPath>
  </text>
  <use width="100%" height="100%" stroke="red" stroke-opacity="0" stroke-width="10" transform="translate(172 250)" xlink:href="#j"/>
  <use width="100%" height="100%" stroke="#000" stroke-width="2" transform="translate(172 250)" xlink:href="#j"/>
  <text style="text-decoration-line:none" font-family="serif" font-size="16" font-weight="400">
    <textPath alignment-baseline="middle" startOffset="50%" text-anchor="middle" xlink:href="#j"> </textPath>
  </text>
  <path fill="#fff" stroke="#000" stroke-linejoin="round" stroke-width="2" d="M138.667 309h46.666c5.834 0 11.667 8.75 11.667 17.5s-5.833 17.5-11.667 17.5h-46.666c-5.834 0-11.667-8.75-11.667-17.5s5.833-17.5 11.667-17.5"/>
  <text style="text-decoration-line:none" x="136" y="332" font-family="serif" font-size="16" font-weight="400">
    <tspan x="148.188" y="332">b2m</tspan>
  </text>
  <path fill="#fff" stroke="#000" stroke-linejoin="round" stroke-width="2" d="M113.667 340h46.666c5.834 0 11.667 8.75 11.667 17.5s-5.833 17.5-11.667 17.5h-46.666c-5.834 0-11.667-8.75-11.667-17.5s5.833-17.5 11.667-17.5"/>
  <text style="text-decoration-line:none" x="111" y="363" font-family="serif" font-size="16" font-weight="400">
    <tspan x="127.367" y="363">b1j</tspan>
  </text>
</svg>
