<svg xmlns="http://www.w3.org/2000/svg" xmlns:xlink="http://www.w3.org/1999/xlink" width="345" height="378">
  <path fill="none" d="M0 0h345v378H0z"/>
  <text dominant-baseline="hanging" font-family="serif" font-size="16" font-weight="400" font-style="italic" transform="translate(10.6 10)">
    <tspan x="0" y="0">After Change:</tspan>
  </text>
  <path d="M81.667 41h46.666C134.167 41 140 49.75 140 58.5S134.167 76 128.333 76H81.667C75.833 76 70 67.25 70 58.5S75.833 41 81.667 41" stroke-linejoin="round" stroke="#000" stroke-width="2" fill="#fff"/>
  <text transform="translate(78 64)" font-family="serif" font-size="16" font-weight="400">
    <tspan x="19.445" y="0">a1</tspan>
  </text>
  <path d="M233.667 41h46.666C286.167 41 292 49.75 292 58.5S286.167 76 280.333 76h-46.666C227.833 76 222 67.25 222 58.5S227.833 41 233.667 41" stroke-linejoin="round" stroke="#000" stroke-width="2" fill="#fff"/>
  <text transform="translate(231 64)" font-family="serif" font-size="16" font-weight="400">
    <tspan x="18.594" y="0">b1</tspan>
  </text>
  <g transform="translate(90 20)">
    <defs>
      <path id="a" d="M42 68l1.003-8.002L51 61m-7.997-1.002l82.992 110.506 3.002 3.998M130 167l-1.003 7.502L121 173" stroke-linejoin="round" fill="none"/>
    </defs>
    <use xlink:href="#a" stroke-width="10" stroke-opacity="0" stroke="red"/>
    <use xlink:href="#a" stroke="#000" stroke-width="2"/>
    <text font-family="serif" font-size="16" font-weight="400">
      <textPath xlink:href="#a" startOffset="50%" text-anchor="middle" alignment-baseline="middle"> </textPath>
    </text>
  </g>
  <path d="M81.667 111h46.666c5.834 0 11.667 8.75 11.667 17.5s-5.833 17.5-11.667 17.5H81.667C75.833 146 70 137.25 70 128.5S75.833 111 81.667 111" stroke-linejoin="round" stroke="#000" stroke-width="2" fill="#fff"/>
  <text transform="translate(78 134)" font-family="serif" font-size="16" font-weight="400">
    <tspan x="19.445" y="0">a2</tspan>
  </text>
  <g transform="translate(148 111)">
    <defs>
      <path id="b" d="M-6 2l-7.27-3.623L-10-9m-3.27 7.377l87.81-30.131 4.73-1.623M72-37l7.27 3.623L76-26" stroke-linejoin="round" fill="none"/>
    </defs>
    <use xlink:href="#b" stroke-width="10" stroke-opacity="0" stroke="red"/>
    <use xlink:href="#b" stroke="#000" stroke-width="2"/>
    <text font-family="serif" font-size="16" font-weight="400">
      <textPath xlink:href="#b" startOffset="50%" text-anchor="middle" alignment-baseline="middle"> </textPath>
    </text>
  </g>
  <path d="M233.667 111h46.666c5.834 0 11.667 8.75 11.667 17.5s-5.833 17.5-11.667 17.5h-46.666c-5.834 0-11.667-8.75-11.667-17.5s5.833-17.5 11.667-17.5" stroke-linejoin="round" stroke="#000" stroke-width="2" fill="#fff"/>
  <text transform="translate(231 134)" font-family="serif" font-size="16" font-weight="400">
    <tspan x="18.594" y="0">b2</tspan>
  </text>
  <g transform="translate(89 146)">
    <defs>
      <path id="c" d="M51-17.5h82m-6-5.5l6 5.5-6 5.5" stroke-linejoin="round" fill="none"/>
    </defs>
    <use xlink:href="#c" stroke-width="10" stroke-opacity="0" stroke="red"/>
    <use xlink:href="#c" stroke="#000" stroke-width="2"/>
    <text font-family="serif" font-size="16" font-weight="400">
      <textPath xlink:href="#c" startOffset="50%" text-anchor="middle" alignment-baseline="middle"> </textPath>
    </text>
  </g>
  <g transform="translate(70 158)">
    <defs>
      <path id="d" d="M154-56l3.27 7.377L150-45m7.27-3.623L69.46-78.754l-4.73-1.623M68-73l-3.27-7.377L72-84" stroke-linejoin="round" fill="none"/>
    </defs>
    <use xlink:href="#d" stroke-width="10" stroke-opacity="0" stroke="red"/>
    <use xlink:href="#d" stroke="#000" stroke-width="2"/>
    <text font-family="serif" font-size="16" font-weight="400">
      <textPath xlink:href="#d" startOffset="50%" text-anchor="middle" alignment-baseline="middle"> </textPath>
    </text>
  </g>
  <path d="M81.667 181h46.666c5.834 0 11.667 8.75 11.667 17.5s-5.833 17.5-11.667 17.5H81.667C75.833 216 70 207.25 70 198.5S75.833 181 81.667 181" stroke-linejoin="round" stroke="#000" stroke-width="2" fill="#fff"/>
  <text transform="translate(78 204)" font-family="serif" font-size="16" font-weight="400">
    <tspan x="19.445" y="0">a3</tspan>
  </text>
  <g transform="translate(89 220)">
    <defs>
      <path id="e" d="M62-16l-6-5.5 6-5.5m-6 5.5h72m-6-5.5l6 5.5-6 5.5" stroke-linejoin="round" fill="none"/>
    </defs>
    <use xlink:href="#e" stroke-width="10" stroke-opacity="0" stroke="red"/>
    <use xlink:href="#e" stroke="#000" stroke-width="2"/>
    <text font-family="serif" font-size="16" font-weight="400">
      <textPath xlink:href="#e" startOffset="50%" text-anchor="middle" alignment-baseline="middle"> </textPath>
    </text>
  </g>
  <path d="M233.667 181h46.666c5.834 0 11.667 8.75 11.667 17.5s-5.833 17.5-11.667 17.5h-46.666c-5.834 0-11.667-8.75-11.667-17.5s5.833-17.5 11.667-17.5" stroke-linejoin="round" stroke="#000" stroke-width="2" fill="#fff"/>
  <text transform="translate(231 204)" font-family="serif" font-size="16" font-weight="400">
    <tspan x="18.594" y="0">b3</tspan>
  </text>
  <g transform="translate(148 183)">
    <defs>
      <path id="f" d="M-6 0l-7.27-3.623L-10-11m-3.27 7.377l87.81-30.131 4.73-1.623M72-39l7.27 3.623L76-28" stroke-linejoin="round" fill="none"/>
    </defs>
    <use xlink:href="#f" stroke-width="10" stroke-opacity="0" stroke="red"/>
    <use xlink:href="#f" stroke="#000" stroke-width="2"/>
    <text font-family="serif" font-size="16" font-weight="400">
      <textPath xlink:href="#f" startOffset="50%" text-anchor="middle" alignment-baseline="middle"> </textPath>
    </text>
  </g>
  <g transform="translate(70 232)">
    <defs>
      <path id="g" d="M154-60l3.27 7.377L150-49m7.27-3.623L69.46-82.754l-4.73-1.623M68-77l-3.27-7.377L72-88" stroke-linejoin="round" fill="none"/>
    </defs>
    <use xlink:href="#g" stroke-width="10" stroke-opacity="0" stroke="red"/>
    <use xlink:href="#g" stroke="#000" stroke-width="2"/>
    <text font-family="serif" font-size="16" font-weight="400">
      <textPath xlink:href="#g" startOffset="50%" text-anchor="middle" alignment-baseline="middle"> </textPath>
    </text>
  </g>
  <path d="M81.667 251h46.666c5.834 0 11.667 8.75 11.667 17.5s-5.833 17.5-11.667 17.5H81.667C75.833 286 70 277.25 70 268.5S75.833 251 81.667 251" stroke-linejoin="round" stroke="#000" stroke-width="2" fill="#fff"/>
  <text transform="translate(78 274)" font-family="serif" font-size="16" font-weight="400">
    <tspan x="19.445" y="0">a4</tspan>
  </text>
  <g transform="translate(89 293)">
    <defs>
      <path id="h" d="M62-19l-6-5.5 6-5.5m-6 5.5h72m-6-5.5l6 5.5-6 5.5" stroke-linejoin="round" fill="none"/>
    </defs>
    <use xlink:href="#h" stroke-width="10" stroke-opacity="0" stroke="red"/>
    <use xlink:href="#h" stroke="#000" stroke-width="2"/>
    <text font-family="serif" font-size="16" font-weight="400">
      <textPath xlink:href="#h" startOffset="50%" text-anchor="middle" alignment-baseline="middle"> </textPath>
    </text>
  </g>
  <path d="M233.667 251h46.666c5.834 0 11.667 8.75 11.667 17.5s-5.833 17.5-11.667 17.5h-46.666c-5.834 0-11.667-8.75-11.667-17.5s5.833-17.5 11.667-17.5" stroke-linejoin="round" stroke="#000" stroke-width="2" fill="#fff"/>
  <text transform="translate(231 274)" font-family="serif" font-size="16" font-weight="400">
    <tspan x="18.594" y="0">b4</tspan>
  </text>
  <g transform="translate(148 256)">
    <defs>
      <path id="i" d="M-6-3l-7.27-3.623L-10-14m-3.27 7.377l87.81-30.131 4.73-1.623M72-42l7.27 3.623L76-31" stroke-linejoin="round" fill="none"/>
    </defs>
    <use xlink:href="#i" stroke-width="10" stroke-opacity="0" stroke="red"/>
    <use xlink:href="#i" stroke="#000" stroke-width="2"/>
    <text font-family="serif" font-size="16" font-weight="400">
      <textPath xlink:href="#i" startOffset="50%" text-anchor="middle" alignment-baseline="middle"> </textPath>
    </text>
  </g>
  <g transform="translate(70 305)">
    <defs>
      <path id="j" d="M154-63l3.27 7.377L150-52m7.27-3.623L69.46-85.754l-4.73-1.623M68-80l-3.27-7.377L72-91" stroke-linejoin="round" fill="none"/>
    </defs>
    <use xlink:href="#j" stroke-width="10" stroke-opacity="0" stroke="red"/>
    <use xlink:href="#j" stroke="#000" stroke-width="2"/>
    <text font-family="serif" font-size="16" font-weight="400">
      <textPath xlink:href="#j" startOffset="50%" text-anchor="middle" alignment-baseline="middle"> </textPath>
    </text>
  </g>
  <path d="M81.667 321h46.666c5.834 0 11.667 8.75 11.667 17.5s-5.833 17.5-11.667 17.5H81.667C75.833 356 70 347.25 70 338.5S75.833 321 81.667 321" stroke-linejoin="round" stroke="#000" stroke-width="2" fill="#fff"/>
  <text transform="translate(78 344)" font-family="serif" font-size="16" font-weight="400">
    <tspan x="19.445" y="0">a5</tspan>
  </text>
  <g transform="translate(89 369)">
    <defs>
      <path id="k" d="M62-25l-6-5.5 6-5.5m-6 5.5h72m-6-5.5l6 5.5-6 5.5" stroke-linejoin="round" fill="none"/>
    </defs>
    <use xlink:href="#k" stroke-width="10" stroke-opacity="0" stroke="red"/>
    <use xlink:href="#k" stroke="#000" stroke-width="2"/>
    <text font-family="serif" font-size="16" font-weight="400">
      <textPath xlink:href="#k" startOffset="50%" text-anchor="middle" alignment-baseline="middle"> </textPath>
    </text>
  </g>
  <path d="M233.667 321h46.666c5.834 0 11.667 8.75 11.667 17.5s-5.833 17.5-11.667 17.5h-46.666c-5.834 0-11.667-8.75-11.667-17.5s5.833-17.5 11.667-17.5" stroke-linejoin="round" stroke="#000" stroke-width="2" fill="#fff"/>
  <text transform="translate(231 344)" font-family="serif" font-size="16" font-weight="400">
    <tspan x="18.594" y="0">b5</tspan>
  </text>
  <g transform="translate(148 332)">
    <defs>
      <path id="l" d="M-6-9l-7.27-3.623L-10-20m-3.27 7.377l87.81-30.131 4.73-1.623M72-48l7.27 3.623L76-37" stroke-linejoin="round" fill="none"/>
    </defs>
    <use xlink:href="#l" stroke-width="10" stroke-opacity="0" stroke="red"/>
    <use xlink:href="#l" stroke="#000" stroke-width="2"/>
    <text font-family="serif" font-size="16" font-weight="400">
      <textPath xlink:href="#l" startOffset="50%" text-anchor="middle" alignment-baseline="middle"> </textPath>
    </text>
  </g>
  <g transform="translate(70 381)">
    <defs>
      <path id="m" d="M154-69l3.27 7.377L150-58m7.27-3.623L69.46-91.754l-4.73-1.623M68-86l-3.27-7.377L72-97" stroke-linejoin="round" fill="none"/>
    </defs>
    <use xlink:href="#m" stroke-width="10" stroke-opacity="0" stroke="red"/>
    <use xlink:href="#m" stroke="#000" stroke-width="2"/>
    <text font-family="serif" font-size="16" font-weight="400">
      <textPath xlink:href="#m" startOffset="50%" text-anchor="middle" alignment-baseline="middle"> </textPath>
    </text>
  </g>
  <g transform="translate(130 25)">
    <defs>
      <path id="n" d="M0 63l2.518-7.68L10 57m-7.482-1.68l94.446 162.04 2.518 4.32M102 214l-2.518 7.68L92 220" stroke-linejoin="round" fill="none"/>
    </defs>
    <use xlink:href="#n" stroke-width="10" stroke-opacity="0" stroke="red"/>
    <use xlink:href="#n" stroke="#000" stroke-width="2"/>
    <text font-family="serif" font-size="16" font-weight="400">
      <textPath xlink:href="#n" startOffset="50%" text-anchor="middle" alignment-baseline="middle"> </textPath>
    </text>
  </g>
</svg>
