<svg xmlns="http://www.w3.org/2000/svg" xmlns:xlink="http://www.w3.org/1999/xlink" width="396" height="555">
  <defs>
    <path id="e" fill="none" d="M-77-2l3.581-6.757L-66-5m-7.419-3.757l25.257 75.77 1.58 4.744M-43 65l-3.581 6.757L-54 68"/>
    <path id="d" fill="none" d="M-37 23l.381-7.817L-29 16m-7.619-.817l45.856 49.95 3.382 3.684M13 61l-.381 7.817L5 68"/>
    <path id="c" fill="none" d="M8 26l-3.323-7.732L12 15m-7.323 3.268l67.97 25.696 4.676 1.768M74 38l3.323 7.732L70 49"/>
    <path id="b" fill="none" d="M56 22l-6-5.453L56 11m-6 5.547l91 .859 5 .047M140 12l6 5.453L140 23"/>
    <path id="a" fill="none" d="M62 50l-7.126-4.616L59 39m-4.126 6.384l116.378-26.652 4.874-1.116M169 13l7.126 4.616L172 24"/>
  </defs>
  <text x="19" y="26">
    <tspan>A and B are in a one-to-many bidirectional relationship:</tspan>
  </text>
  <path fill="#fff" stroke="#000" stroke-width="2" d="M43 72h100v80H43z"/>
  <text x="43" y="72">
    <tspan dx="45" dy="46">A</tspan>
  </text>
  <path fill="none" stroke="#000" stroke-width="2" d="M154 118l-6-6 6-6m-6 6h106m-6-6l6 6-6 6"/>
  <text x="152" y="98">
    <tspan>0..1</tspan>
  </text>
  <text x="226" y="98">
    <tspan>0..*</tspan>
  </text>
  <path fill="#fff" stroke="#000" stroke-width="2" d="M259 72h100v80H259z"/>
  <text x="259" y="72">
    <tspan dx="45" dy="46">B</tspan>
  </text>
  <text x="20" y="197" font-style="italic">
    <tspan>Before Change:</tspan>
  </text>
  <rect width="70" height="36" x="73" y="301" fill="#fff" stroke="#000" stroke-width="2" rx="18" ry="15"/>
  <text x="73" y="301">
    <tspan dx="27" dy="24">a1</tspan>
  </text>
  <path fill="none" stroke="#000" stroke-width="2" d="M152 310l-7.419 3.757L141 307m3.581 6.757l25.257-75.77 1.58-4.744M164 237l7.419-3.757L175 240"/>
  <rect width="70" height="36" x="175" y="210" fill="#fff" stroke="#000" stroke-width="2" rx="18" ry="15"/>
  <text x="175" y="210">
    <tspan dx="24" dy="22">b1</tspan><tspan dy="5" font-size=".75em">1</tspan>
  </text>
  <path fill="none" stroke="#000" stroke-width="2" d="M154 315l-7.588-.155L146 307m.412 7.845l45.765-49.035 3.411-3.656M188 262l7.588.155L196 270"/>
  <rect width="70" height="36" x="200" y="240" fill="#fff" stroke="#000" stroke-width="2" rx="18" ry="15"/>
  <text x="200" y="240">
    <tspan dx="24" dy="22">b1</tspan><tspan dy="5" font-size=".75em">2</tspan>
  </text>
  <path fill="none" stroke="#000" stroke-width="2" d="M155 320l-7.304-3.218L151 310m-3.304 6.782l67.913-24.846 4.695-1.718M213 287l7.304 3.218L217 297"/>
  <rect width="70" height="36" x="225" y="270" fill="#fff" stroke="#000" stroke-width="2" rx="18" ry="15"/>
  <text x="225" y="270">
    <tspan dx="24" dy="22">b1</tspan><tspan dy="5" font-size=".75em">3</tspan>
  </text>
  <path fill="none" stroke="#000" stroke-width="2" d="M154 324l-6-5.5 6-5.5m-6 5.5h96m-6-5.5l6 5.5-6 5.5"/>
  <rect width="70" height="36" x="250" y="300" fill="#fff" stroke="#000" stroke-width="2" rx="18" ry="15"/>
  <text x="250" y="300">
    <tspan dx="24" dy="22">b1</tspan><tspan dy="5" font-size=".75em">n-1</tspan>
  </text>
  <path fill="none" stroke="#000" stroke-width="2" d="M152 326l-4.134-6.349L155 315m-7.134 4.651l116.403 27.546 4.865 1.152M265 342l4.134 6.349L262 353"/>
  <rect width="70" height="36" x="275" y="330" fill="#fff" stroke="#000" stroke-width="2" rx="18" ry="15"/>
  <text x="275" y="330">
    <tspan dx="24" dy="22">b1</tspan><tspan dy="5" font-size=".75em">n</tspan>
  </text>
  <path fill="#fff" stroke="#000" stroke-width="2" d="M84.667 417h46.666c5.834 0 11.667 8.75 11.667 17.5s-5.833 17.5-11.667 17.5H84.667C78.833 452 73 443.25 73 434.5S78.833 417 84.667 417"/>
  <text x="81" y="440">
    <tspan x="100.445" y="440">a2</tspan>
  </text>
  <path fill="#fff" stroke="#000" stroke-width="2" d="M285.667 387h46.666c5.834 0 11.667 8.75 11.667 17.5s-5.833 17.5-11.667 17.5h-46.666c-5.834 0-11.667-8.75-11.667-17.5s5.833-17.5 11.667-17.5"/>
  <text x="283" y="410">
    <tspan x="297.594" y="410">b21</tspan>
  </text>
  <use width="100%" height="100%" stroke="red" stroke-opacity="0" stroke-width="10" transform="translate(93 388)" xlink:href="#a"/>
  <use width="100%" height="100%" stroke="#000" stroke-width="2" transform="translate(93 388)" xlink:href="#a"/>
  <text>
    <textPath alignment-baseline="middle" startOffset="50%" text-anchor="middle" xlink:href="#a"> </textPath>
  </text>
  <path fill="#fff" stroke="#000" stroke-width="2" d="M260.667 418h46.666c5.834 0 11.667 8.75 11.667 17.5s-5.833 17.5-11.667 17.5h-46.666c-5.834 0-11.667-8.75-11.667-17.5s5.833-17.5 11.667-17.5"/>
  <text x="258" y="441">
    <tspan x="272.594" y="441">b22</tspan>
  </text>
  <path fill="#fff" stroke="#000" stroke-width="2" d="M236.667 448h46.666c5.834 0 11.667 8.75 11.667 17.5s-5.833 17.5-11.667 17.5h-46.666c-5.834 0-11.667-8.75-11.667-17.5s5.833-17.5 11.667-17.5"/>
  <text x="234" y="471">
    <tspan x="248.594" y="471">b23</tspan>
  </text>
  <path fill="#fff" stroke="#000" stroke-width="2" d="M210.667 478h46.666c5.834 0 11.667 8.75 11.667 17.5s-5.833 17.5-11.667 17.5h-46.666c-5.834 0-11.667-8.75-11.667-17.5s5.833-17.5 11.667-17.5"/>
  <text x="208" y="501">
    <tspan x="213.703" y="501">b2m-1</tspan>
  </text>
  <path fill="#fff" stroke="#000" stroke-width="2" d="M184.667 507h46.666c5.834 0 11.667 8.75 11.667 17.5s-5.833 17.5-11.667 17.5h-46.666c-5.834 0-11.667-8.75-11.667-17.5s5.833-17.5 11.667-17.5"/>
  <text x="182" y="530">
    <tspan x="194.188" y="530">b2m</tspan>
  </text>
  <use width="100%" height="100%" stroke="red" stroke-opacity="0" stroke-width="10" transform="translate(98 418)" xlink:href="#b"/>
  <use width="100%" height="100%" stroke="#000" stroke-width="2" transform="translate(98 418)" xlink:href="#b"/>
  <text>
    <textPath alignment-baseline="middle" startOffset="50%" text-anchor="middle" xlink:href="#b"> </textPath>
  </text>
  <use width="100%" height="100%" stroke="red" stroke-opacity="0" stroke-width="10" transform="translate(143 418)" xlink:href="#c"/>
  <use width="100%" height="100%" stroke="#000" stroke-width="2" transform="translate(143 418)" xlink:href="#c"/>
  <text>
    <textPath alignment-baseline="middle" startOffset="50%" text-anchor="middle" xlink:href="#c"> </textPath>
  </text>
  <use width="100%" height="100%" stroke="red" stroke-opacity="0" stroke-width="10" transform="translate(183 423)" xlink:href="#d"/>
  <use width="100%" height="100%" stroke="#000" stroke-width="2" transform="translate(183 423)" xlink:href="#d"/>
  <text>
    <textPath alignment-baseline="middle" startOffset="50%" text-anchor="middle" xlink:href="#d"> </textPath>
  </text>
  <use width="100%" height="100%" stroke="red" stroke-opacity="0" stroke-width="10" transform="translate(218 448)" xlink:href="#e"/>
  <use width="100%" height="100%" stroke="#000" stroke-width="2" transform="translate(218 448)" xlink:href="#e"/>
  <text>
    <textPath alignment-baseline="middle" startOffset="50%" text-anchor="middle" xlink:href="#e"> </textPath>
  </text>
</svg>
