<svg xmlns="http://www.w3.org/2000/svg" xmlns:xlink="http://www.w3.org/1999/xlink" width="600" height="550">
  <defs>
    <path id="i" fill="none" d="M324.646-64.828l67.347 32.484 4.503 2.172M394-38l2.496 7.828L389-28"/>
    <path id="h" fill="none" d="M354.932 8.678l72.204-12.034 4.932-.822M426-9l6.068 4.822L427 2"/>
    <path id="g" fill="none" d="M379.821-190.825l71.037-19.525 4.82-1.325M449-216l6.679 4.325L452-205"/>
    <path id="f" fill="none" d="M412.644-206.648l70.067 27.944 4.645 1.852M484-184l3.356 7.148L480-174"/>
    <path id="e" fill="none" d="M471-289v502"/>
    <path id="d" fill="none" d="M131.55-25.213l94.922 110.138 3.264 3.788M230 81l-.264 7.713L222 88"/>
    <path id="c" fill="none" d="M223.929-14.407l82.214 64.721 3.928 3.093M309 45l1.071 8.407L302 54"/>
    <path id="b" fill="none" d="M207.908 6.382l82.275-65.645 3.909-3.119M286-63l8.092.618L293-54"/>
    <path id="a" fill="none" d="M120.535 116.2L215.502 5.1l3.25-3.8M211 2l7.751-.7L219 9"/>
  </defs>
  <path fill="none" d="M0 0h600v550H0z"/>
  <rect width="362" height="466" x="216" y="16" fill="#fff" stroke="#000" stroke-width="2" rx="45.25" ry="45.25"/>
  <rect width="314" height="188" x="239" y="267" fill="#fff" stroke="#000" stroke-width="2" rx="23.5" ry="23.5"/>
  <rect width="315" height="188" x="238" y="57" fill="#fff" stroke="#000" stroke-width="2" rx="23.5" ry="23.5"/>
  <path fill="#fff" stroke="#000" stroke-width="2" d="M228.833 73h83.334C322.583 73 333 81.75 333 90.5S322.583 108 312.167 108h-83.334C218.417 108 208 99.25 208 90.5S218.417 73 228.833 73"/>
  <path fill="#fff" stroke="#000" stroke-width="2" d="M218.833 83h83.334C312.583 83 323 91.75 323 100.5S312.583 118 302.167 118h-83.334C208.417 118 198 109.25 198 100.5S208.417 83 218.833 83"/>
  <path fill="#fff" stroke="#000" stroke-width="2" d="M208.833 93h83.334C302.583 93 313 101.75 313 110.5S302.583 128 292.167 128h-83.334C198.417 128 188 119.25 188 110.5S198.417 93 208.833 93"/>
  <text x="196" y="116">
    <tspan x="212.633" y="116">EJBObjects</tspan>
  </text>
  <path fill="#fff" stroke="#000" stroke-width="2" d="M228.833 287h83.334c10.416 0 20.833 8.75 20.833 17.5S322.583 322 312.167 322h-83.334C218.417 322 208 313.25 208 304.5s10.417-17.5 20.833-17.5"/>
  <path fill="#fff" stroke="#000" stroke-width="2" d="M218.833 297h83.334c10.416 0 20.833 8.75 20.833 17.5S312.583 332 302.167 332h-83.334C208.417 332 198 323.25 198 314.5s10.417-17.5 20.833-17.5"/>
  <path fill="#fff" stroke="#000" stroke-width="2" d="M208.833 307h83.334c10.416 0 20.833 8.75 20.833 17.5S302.583 342 292.167 342h-83.334C198.417 342 188 333.25 188 324.5s10.417-17.5 20.833-17.5"/>
  <text x="196" y="330">
    <tspan x="194.422" y="330">EJBLocalObjects</tspan>
  </text>
  <path fill="#fff" stroke="#000" stroke-width="2" d="M205.833 157h83.334c10.416 0 20.833 8.75 20.833 17.5S299.583 192 289.167 192h-83.334C195.417 192 185 183.25 185 174.5s10.417-17.5 20.833-17.5"/>
  <text x="193" y="180">
    <tspan x="214.563" y="180">EJBHome</tspan>
  </text>
  <path fill="#fff" stroke="#000" stroke-width="2" d="M205.833 371h83.334c10.416 0 20.833 8.75 20.833 17.5S299.583 406 289.167 406h-83.334C195.417 406 185 397.25 185 388.5s10.417-17.5 20.833-17.5"/>
  <text x="193" y="394">
    <tspan x="196.352" y="394">EJBLocalHome</tspan>
  </text>
  <path fill="#fff" d="M402 209h130v20H402z"/>
  <text x="410" y="225">
    <tspan x="412.359" y="225">enterprise bean 1</tspan>
  </text>
  <path fill="#fff" d="M412 422h130v20H412z"/>
  <text x="420" y="438">
    <tspan x="422.359" y="438">enterprise bean 2</tspan>
  </text>
  <path fill="#fff" d="M182 490h175v40H182z"/>
  <text x="191" y="507">
    <tspan x="191" y="507">Classes generated by </tspan><tspan x="191" y="524.609">Container Provider tools</tspan>
  </text>
  <use width="100%" height="100%" stroke="red" stroke-opacity="0" stroke-width="10" transform="translate(-37 112)" xlink:href="#a"/>
  <use width="100%" height="100%" stroke="#000" stroke-width="2" transform="translate(-37 112)" xlink:href="#a"/>
  <text>
    <textPath alignment-baseline="middle" startOffset="50%" text-anchor="middle" xlink:href="#a"> </textPath>
  </text>
  <use width="100%" height="100%" stroke="red" stroke-opacity="0" stroke-width="10" transform="translate(-113 240)" xlink:href="#b"/>
  <use width="100%" height="100%" stroke="#000" stroke-width="2" transform="translate(-113 240)" xlink:href="#b"/>
  <text>
    <textPath alignment-baseline="middle" startOffset="50%" text-anchor="middle" xlink:href="#b"> </textPath>
  </text>
  <use width="100%" height="100%" stroke="red" stroke-opacity="0" stroke-width="10" transform="translate(-129 267)" xlink:href="#c"/>
  <use width="100%" height="100%" stroke="#000" stroke-width="2" transform="translate(-129 267)" xlink:href="#c"/>
  <text>
    <textPath alignment-baseline="middle" startOffset="50%" text-anchor="middle" xlink:href="#c"> </textPath>
  </text>
  <use width="100%" height="100%" stroke="red" stroke-opacity="0" stroke-width="10" transform="translate(-48 296)" xlink:href="#d"/>
  <use width="100%" height="100%" stroke="#000" stroke-width="2" transform="translate(-48 296)" xlink:href="#d"/>
  <text>
    <textPath alignment-baseline="middle" startOffset="50%" text-anchor="middle" xlink:href="#d"> </textPath>
  </text>
  <path fill="#fff" d="M266 28h100v20H266z"/>
  <text x="274" y="44">
    <tspan x="285.695" y="44">container</tspan>
  </text>
  <path fill="#fff" stroke="#000" stroke-width="2" d="M28.5 232h50c6.25 0 12.5 8.75 12.5 17.5S84.75 267 78.5 267h-50c-6.25 0-12.5-8.75-12.5-17.5S22.25 232 28.5 232"/>
  <text x="24" y="255">
    <tspan x="35.547" y="255">client</tspan>
  </text>
  <path fill="#fff" stroke="#000" stroke-width="2" d="M437.833 89h83.334C531.583 89 542 106.5 542 124s-10.417 35-20.833 35h-83.334C427.417 159 417 141.5 417 124s10.417-35 20.833-35"/>
  <path fill="#fff" stroke="#000" stroke-width="2" d="M427.833 99h83.334C521.583 99 532 116.5 532 134s-10.417 35-20.833 35h-83.334C417.417 169 407 151.5 407 134s10.417-35 20.833-35"/>
  <path fill="#fff" stroke="#000" stroke-width="2" d="M417.833 109h83.334C511.583 109 522 126.5 522 144s-10.417 35-20.833 35h-83.334C407.417 179 397 161.5 397 144s10.417-35 20.833-35"/>
  <text x="405" y="141">
    <tspan x="410.453" y="141">enterprise bean</tspan><tspan x="430.086" y="158.609">instances</tspan>
  </text>
  <path fill="#fff" stroke="#000" stroke-width="2" d="M437.833 319h83.334C531.583 319 542 336.5 542 354s-10.417 35-20.833 35h-83.334C427.417 389 417 371.5 417 354s10.417-35 20.833-35"/>
  <path fill="#fff" stroke="#000" stroke-width="2" d="M427.833 329h83.334C521.583 329 532 346.5 532 364s-10.417 35-20.833 35h-83.334C417.417 399 407 381.5 407 364s10.417-35 20.833-35"/>
  <path fill="#fff" stroke="#000" stroke-width="2" d="M417.833 339h83.334C511.583 339 522 356.5 522 374s-10.417 35-20.833 35h-83.334C407.417 409 397 391.5 397 374s10.417-35 20.833-35"/>
  <text x="405" y="371">
    <tspan x="410.453" y="371">enterprise bean</tspan><tspan x="430.086" y="388.609">instances</tspan>
  </text>
  <path fill="#fff" d="M392 490h175v40H392z"/>
  <text x="401" y="507">
    <tspan x="401" y="507">Classes are provided by </tspan><tspan x="401" y="524.609">Bean Provider</tspan>
  </text>
  <use width="100%" height="100%" stroke="red" stroke-opacity="0" stroke-width="10" transform="translate(-96 329)" xlink:href="#e"/>
  <use width="100%" height="100%" stroke="#000" stroke-dasharray="5,5" stroke-width="2" transform="translate(-96 329)" xlink:href="#e"/>
  <text>
    <textPath alignment-baseline="middle" startOffset="50%" text-anchor="middle" xlink:href="#e"> </textPath>
  </text>
  <use width="100%" height="100%" stroke="red" stroke-opacity="0" stroke-width="10" transform="translate(-95 319)" xlink:href="#f"/>
  <use width="100%" height="100%" stroke="#000" stroke-width="2" transform="translate(-95 319)" xlink:href="#f"/>
  <text>
    <textPath alignment-baseline="middle" startOffset="50%" text-anchor="middle" xlink:href="#f"> </textPath>
  </text>
  <use width="100%" height="100%" stroke="red" stroke-opacity="0" stroke-width="10" transform="translate(-65 364)" xlink:href="#g"/>
  <use width="100%" height="100%" stroke="#000" stroke-width="2" transform="translate(-65 364)" xlink:href="#g"/>
  <text>
    <textPath alignment-baseline="middle" startOffset="50%" text-anchor="middle" xlink:href="#g"> </textPath>
  </text>
  <use width="100%" height="100%" stroke="red" stroke-opacity="0" stroke-width="10" transform="translate(-40 379)" xlink:href="#h"/>
  <use width="100%" height="100%" stroke="#000" stroke-width="2" transform="translate(-40 379)" xlink:href="#h"/>
  <text>
    <textPath alignment-baseline="middle" startOffset="50%" text-anchor="middle" xlink:href="#h"> </textPath>
  </text>
  <use width="100%" height="100%" stroke="red" stroke-opacity="0" stroke-width="10" transform="translate(-5 389)" xlink:href="#i"/>
  <use width="100%" height="100%" stroke="#000" stroke-width="2" transform="translate(-5 389)" xlink:href="#i"/>
  <text>
    <textPath alignment-baseline="middle" startOffset="50%" text-anchor="middle" xlink:href="#i"> </textPath>
  </text>
</svg>
