<svg xmlns="http://www.w3.org/2000/svg" xmlns:xlink="http://www.w3.org/1999/xlink" width="613" height="544">
  <defs>
    <path id="e" fill="none" d="M125-29.439l26 .317 5 .061M150-35l6 5.939L150-23"/>
    <path id="d" fill="none" d="M114-108.04l49-.382 5-.039M162-114l6 5.54-6 5.46"/>
    <path id="c" fill="none" d="M52-51h52m-6-6l6 6-6 6"/>
    <path id="b" fill="none" d="M105-108h124m-6-6l6 6-6 6"/>
    <path id="a" fill="none" d="M37-51h111m-6-6l6 6-6 6"/>
  </defs>
  <path fill="none" d="M0 0h613v544H0z"/>
  <path fill="#fff" stroke="#fff" stroke-width="2" d="M97 17h400v20H97z"/>
  <text x="106" y="33" font-style="italic">
    <tspan x="106" y="33">(a) Entity bean is an object view of a record in the database</tspan>
  </text>
  <rect width="176" height="162" x="193" y="75" fill="#fff" stroke="#000" stroke-width="2" rx="20.25" ry="20.25"/>
  <path fill="#fff" stroke="#000" stroke-width="2" d="M26.667 137h66.666c8.334 0 16.667 10 16.667 20s-8.333 20-16.667 20H26.667C18.333 177 10 167 10 157s8.333-20 16.667-20"/>
  <text x="18" y="163">
    <tspan x="42.047" y="163">client</tspan>
  </text>
  <path fill="#fff" d="M465 123.667v66.666c0 8.334 25 16.667 50 16.667s50-8.333 50-16.667v-66.666c0-8.334-25-16.667-50-16.667s-50 8.333-50 16.667z"/>
  <path fill="none" stroke="#000" stroke-width="2" d="M465 123.667v66.666c0 8.334 25 16.667 50 16.667s50-8.333 50-16.667v-66.666c0 8.333-25 16.666-50 16.666s-50-8.333-50-16.666c0-8.334 25-16.667 50-16.667s50 8.333 50 16.667"/>
  <text x="474" y="179">
    <tspan x="474.492" y="179">Account 100</tspan>
  </text>
  <path fill="#fff" stroke="#000" stroke-width="2" d="M247.667 137h66.666c8.334 0 16.667 10 16.667 20s-8.333 20-16.667 20h-66.666C239.333 177 231 167 231 157s8.333-20 16.667-20"/>
  <text x="239" y="154">
    <tspan x="251.492" y="154">Account </tspan><tspan x="245.273" y="171.609">entity bean</tspan>
  </text>
  <use width="100%" height="100%" stroke="red" stroke-opacity="0" stroke-width="10" transform="translate(78 208)" xlink:href="#a"/>
  <use width="100%" height="100%" stroke="#000" stroke-width="2" transform="translate(78 208)" xlink:href="#a"/>
  <text>
    <textPath alignment-baseline="middle" startOffset="50%" text-anchor="middle" xlink:href="#a"> </textPath>
  </text>
  <use width="100%" height="100%" stroke="red" stroke-opacity="0" stroke-width="10" transform="translate(231 265)" xlink:href="#b"/>
  <use width="100%" height="100%" stroke="#000" stroke-width="2" transform="translate(231 265)" xlink:href="#b"/>
  <text>
    <textPath alignment-baseline="middle" startOffset="50%" text-anchor="middle" xlink:href="#b"> </textPath>
  </text>
  <path fill="#fff" d="M246 84h70v20h-70z"/>
  <text x="254" y="100">
    <tspan x="250.695" y="100">container</tspan>
  </text>
  <path fill="#fff" stroke="#fff" stroke-width="2" d="M97 283h400v20H97z"/>
  <text x="110" y="299" font-style="italic">
    <tspan x="110" y="299">(b) Entity bean is an object view of an existing application</tspan>
  </text>
  <rect width="176" height="162" x="134" y="322" fill="#fff" stroke="#000" stroke-width="2" rx="20.25" ry="20.25"/>
  <path fill="#fff" stroke="#000" stroke-width="2" d="M26.667 384h66.666c8.334 0 16.667 10 16.667 20s-8.333 20-16.667 20H26.667C18.333 424 10 414 10 404s8.333-20 16.667-20"/>
  <text x="18" y="410">
    <tspan x="42.047" y="410">client</tspan>
  </text>
  <path fill="#fff" d="M502 370.667v66.666c0 8.334 25 16.667 50 16.667s50-8.333 50-16.667v-66.666c0-8.334-25-16.667-50-16.667s-50 8.333-50 16.667z"/>
  <path fill="none" stroke="#000" stroke-width="2" d="M502 370.667v66.666c0 8.334 25 16.667 50 16.667s50-8.333 50-16.667v-66.666c0 8.333-25 16.666-50 16.666s-50-8.333-50-16.666c0-8.334 25-16.667 50-16.667s50 8.333 50 16.667"/>
  <text x="511" y="426">
    <tspan x="511.492" y="426">Account 100</tspan>
  </text>
  <path fill="#fff" stroke="#000" stroke-width="2" d="M188.667 384h66.666c8.334 0 16.667 10 16.667 20s-8.333 20-16.667 20h-66.666C180.333 424 172 414 172 404s8.333-20 16.667-20"/>
  <text x="180" y="401">
    <tspan x="192.492" y="401">Account </tspan><tspan x="186.273" y="418.609">entity bean</tspan>
  </text>
  <use width="100%" height="100%" stroke="red" stroke-opacity="0" stroke-width="10" transform="translate(63 455)" xlink:href="#c"/>
  <use width="100%" height="100%" stroke="#000" stroke-width="2" transform="translate(63 455)" xlink:href="#c"/>
  <text>
    <textPath alignment-baseline="middle" startOffset="50%" text-anchor="middle" xlink:href="#c"> </textPath>
  </text>
  <use width="100%" height="100%" stroke="red" stroke-opacity="0" stroke-width="10" transform="translate(163 512)" xlink:href="#d"/>
  <use width="100%" height="100%" stroke="#000" stroke-width="2" transform="translate(163 512)" xlink:href="#d"/>
  <text>
    <textPath alignment-baseline="middle" startOffset="50%" text-anchor="middle" xlink:href="#d"> </textPath>
  </text>
  <path fill="#fff" d="M187 331h70v20h-70z"/>
  <text x="195" y="347">
    <tspan x="191.695" y="347">container</tspan>
  </text>
  <ellipse cx="398.5" cy="403.5" fill="#fff" stroke="#000" stroke-width="2" rx="62.5" ry="37.5"/>
  <text x="344" y="400">
    <tspan x="370.945" y="400">exisiting</tspan><tspan x="362.555" y="417.609">application</tspan>
  </text>
  <use width="100%" height="100%" stroke="red" stroke-opacity="0" stroke-width="10" transform="translate(341 433)" xlink:href="#e"/>
  <use width="100%" height="100%" stroke="#000" stroke-width="2" transform="translate(341 433)" xlink:href="#e"/>
  <text>
    <textPath alignment-baseline="middle" startOffset="50%" text-anchor="middle" xlink:href="#e"> </textPath>
  </text>
</svg>
